{"glyphs":{"0":{"ha":825,"x_min":56,"x_max":765,"o":"m 321 -14 q 210 10 260 -14 q 127 78 161 35 q 74 181 93 121 q 56 311 56 240 q 92 513 56 418 q 191 677 129 607 q 333 788 253 747 q 500 829 413 829 q 610 805 561 829 q 694 738 660 781 q 747 634 728 694 q 765 503 765 574 q 728 301 765 394 q 630 137 692 207 q 488 26 568 67 q 321 -14 407 -14 m 357 157 q 439 183 400 157 q 508 253 478 208 q 557 358 539 299 q 575 483 575 417 q 546 610 575 561 q 464 658 517 658 q 379 632 419 658 q 309 560 339 606 q 261 456 279 515 q 243 331 243 397 q 273 205 243 253 q 357 157 303 157 z "},"1":{"ha":664,"x_min":0,"x_max":581,"o":"m 35 168 l 222 168 l 313 589 q 268 555 297 572 q 205 522 239 538 q 137 497 171 507 q 76 488 103 488 l 114 661 q 175 677 138 661 q 250 715 213 693 q 317 759 288 738 q 356 793 347 781 l 546 793 l 413 168 l 581 168 l 546 0 l 0 0 l 35 168 z "},"2":{"ha":757,"x_min":-36,"x_max":721,"o":"m -36 0 q -2 113 -22 63 q 51 207 18 164 q 131 288 83 250 q 249 360 179 325 q 362 417 313 393 q 444 462 411 440 q 493 506 476 483 q 510 561 510 529 q 485 620 510 596 q 411 644 460 644 q 299 611 350 644 q 206 538 249 578 l 117 675 q 176 717 139 694 q 261 760 214 740 q 364 794 308 781 q 479 807 419 807 q 660 753 599 807 q 721 614 721 700 q 700 513 721 557 q 646 435 679 469 q 572 376 613 401 q 492 329 531 350 q 437 300 467 317 q 378 263 407 283 q 322 219 349 243 q 278 168 296 194 l 643 168 l 607 0 l -36 0 l -36 0 z "},"3":{"ha":747,"x_min":-65,"x_max":713,"o":"m 215 -204 q 44 -170 114 -204 q -65 -71 -26 -136 l 67 61 q 132 -10 90 15 q 243 -35 174 -35 q 388 9 339 -35 q 438 133 438 53 q 397 221 438 190 q 272 251 357 251 l 235 251 l 264 390 l 306 390 q 451 436 396 390 q 506 550 506 482 q 476 617 506 594 q 399 639 447 639 q 287 610 340 639 q 192 528 233 581 l 103 658 q 169 716 129 690 q 254 760 208 742 q 351 790 300 779 q 453 800 401 800 q 644 744 575 800 q 713 596 713 689 q 694 504 713 549 q 647 423 676 460 q 576 361 617 386 q 490 328 536 336 q 593 263 557 315 q 629 133 629 210 q 599 -3 629 58 q 513 -110 568 -65 q 382 -180 458 -156 q 215 -204 306 -204 z "},"4":{"ha":768,"x_min":-49,"x_max":679,"o":"m 331 31 l -49 31 l -12 196 l 553 793 l 679 793 l 553 197 l 669 197 l 633 31 l 517 31 l 474 -176 l 288 -176 l 331 31 m 388 197 l 454 511 l 174 197 l 388 197 z "},"5":{"ha":740,"x_min":-57,"x_max":714,"o":"m 214 -207 q 40 -161 113 -207 q -57 -36 -32 -115 l 74 75 q 145 -11 99 21 q 250 -43 192 -43 q 326 -28 290 -43 q 388 15 361 -12 q 431 78 415 42 q 446 157 446 114 q 415 249 446 214 q 331 283 383 283 q 249 263 289 283 q 181 206 208 242 l 18 206 q 49 282 29 233 q 91 388 68 331 q 138 508 114 446 q 184 625 163 569 q 224 725 206 681 q 251 793 242 769 l 714 793 l 678 624 l 350 624 l 269 403 q 317 432 286 421 q 392 443 349 443 q 494 424 449 443 q 573 372 540 406 q 623 292 606 339 q 640 190 640 246 q 606 31 640 104 q 514 -94 572 -42 q 378 -177 456 -147 q 214 -207 300 -207 z "},"6":{"ha":822,"x_min":60,"x_max":818,"o":"m 328 -14 q 129 73 199 -14 q 60 311 60 160 q 97 576 60 451 q 199 792 133 700 q 358 939 265 885 q 561 993 450 993 q 715 953 649 993 q 818 838 782 913 l 688 721 q 624 803 667 774 q 524 832 581 832 q 372 758 439 832 q 274 550 306 685 q 368 629 313 600 q 488 658 424 658 q 597 638 547 658 q 681 581 646 617 q 734 495 715 544 q 753 389 753 446 q 717 234 753 307 q 623 106 682 161 q 488 19 564 51 q 328 -14 411 -14 m 363 143 q 438 161 400 143 q 505 210 475 179 q 553 280 535 240 q 571 363 571 319 q 535 467 571 425 q 440 510 499 510 q 364 492 401 510 q 297 446 326 475 q 250 378 268 417 q 232 296 232 339 q 268 188 232 232 q 363 143 304 143 z "},"7":{"ha":758,"x_min":-54,"x_max":832,"o":"m 501 640 l 85 640 l 121 810 l 832 810 l 157 -176 l -54 -176 l 501 640 z "},"8":{"ha":810,"x_min":29,"x_max":788,"o":"m 311 -12 q 198 6 250 -12 q 108 60 146 25 q 50 142 71 94 q 29 246 29 189 q 48 344 29 300 q 96 424 67 389 q 160 485 125 460 q 228 528 196 511 q 170 588 192 547 q 149 678 149 629 q 185 808 149 750 q 276 905 221 865 q 398 965 332 944 q 524 986 464 986 q 619 972 572 986 q 704 928 667 957 q 765 856 742 899 q 788 758 788 814 q 774 683 788 718 q 737 617 760 647 q 685 565 714 588 q 625 528 656 542 q 695 453 665 503 q 725 336 725 403 q 690 196 725 260 q 597 85 656 132 q 465 13 539 39 q 311 -12 390 -12 m 349 156 q 416 169 382 156 q 476 206 450 182 q 519 261 503 229 q 536 331 536 293 q 499 419 536 388 q 410 450 463 450 q 342 437 375 450 q 282 401 308 424 q 240 346 256 378 q 224 276 224 314 q 260 189 224 222 q 349 156 297 156 m 440 590 q 492 599 465 590 q 542 626 519 608 q 578 669 564 644 q 593 728 593 694 q 563 796 593 771 q 489 821 533 821 q 433 811 460 821 q 385 783 406 801 q 351 740 364 765 q 338 686 338 715 q 369 615 338 639 q 440 590 401 590 z "},"9":{"ha":797,"x_min":-21,"x_max":738,"o":"m 236 -214 q 83 -174 149 -214 q -21 -58 17 -133 l 110 58 q 174 -24 131 6 q 274 -53 217 -53 q 425 21 358 -53 q 524 229 492 94 q 429 150 485 179 q 310 121 374 121 q 201 142 250 121 q 118 199 153 163 q 65 284 83 235 q 46 390 46 333 q 81 544 46 471 q 174 673 115 618 q 310 760 233 728 q 469 793 386 793 q 668 706 599 793 q 738 468 738 619 q 701 203 738 328 q 598 -13 664 79 q 440 -160 532 -106 q 236 -214 347 -214 m 357 269 q 433 287 396 269 q 500 333 471 304 q 547 401 529 363 q 565 483 565 440 q 529 592 565 547 q 435 636 493 636 q 360 618 397 636 q 292 569 322 600 q 244 499 263 539 q 226 417 226 460 q 263 312 226 354 q 357 269 299 269 z "},"A":{"ha":896,"x_min":-74,"x_max":803,"o":"m 489 986 l 660 986 l 803 0 l 606 0 l 575 246 l 257 246 l 124 0 l -74 0 l 489 986 m 571 381 l 528 768 l 317 381 l 571 381 z "},"Æ":{"ha":1290,"x_min":-111,"x_max":1353,"o":"m 681 986 l 1353 986 l 1317 818 l 885 818 l 836 586 l 1196 586 l 1160 418 l 800 418 l 747 168 l 1189 168 l 1154 0 l 521 0 l 574 246 l 278 246 l 93 0 l -111 0 l 681 986 m 594 413 l 671 771 l 396 413 l 594 413 z "},"Ǽ":{"ha":1290,"x_min":-111,"x_max":1353,"o":"m 861 1083 l 740 1107 l 846 1272 l 1018 1272 l 861 1083 m 681 986 l 1353 986 l 1317 818 l 885 818 l 836 586 l 1196 586 l 1160 418 l 800 418 l 747 168 l 1189 168 l 1154 0 l 521 0 l 574 246 l 278 246 l 93 0 l -111 0 l 681 986 m 594 413 l 671 771 l 396 413 l 594 413 z "},"´":{"ha":340,"x_min":32,"x_max":310,"o":"m 153 825 l 32 849 l 138 1014 l 310 1014 l 153 825 z "},"Á":{"ha":896,"x_min":-74,"x_max":803,"o":"m 489 986 l 660 986 l 803 0 l 606 0 l 575 246 l 257 246 l 124 0 l -74 0 l 489 986 m 571 381 l 528 768 l 317 381 l 571 381 m 618 1083 l 497 1107 l 603 1272 l 775 1272 l 618 1083 z "},"Ă":{"ha":896,"x_min":-74,"x_max":803,"o":"m 489 986 l 660 986 l 803 0 l 606 0 l 575 246 l 257 246 l 124 0 l -74 0 l 489 986 m 571 381 l 528 768 l 317 381 l 571 381 m 599 1169 q 656 1199 628 1169 q 699 1272 685 1228 l 799 1272 q 769 1198 790 1232 q 720 1139 749 1164 q 656 1100 692 1114 q 582 1086 621 1086 q 476 1125 514 1086 q 438 1226 438 1164 q 443 1272 438 1251 l 543 1272 q 539 1244 539 1257 q 556 1191 539 1213 q 599 1169 572 1169 z "},"˘":{"ha":439,"x_min":63,"x_max":424,"o":"m 224 911 q 281 940 253 911 q 324 1014 310 969 l 424 1014 q 394 940 415 974 q 345 881 374 906 q 281 842 317 856 q 207 828 246 828 q 101 867 139 828 q 63 968 63 906 q 68 1014 63 993 l 168 1014 q 164 986 164 999 q 181 933 164 954 q 224 911 197 911 z "},"Â":{"ha":896,"x_min":-74,"x_max":814,"o":"m 489 986 l 660 986 l 803 0 l 606 0 l 575 246 l 257 246 l 124 0 l -74 0 l 489 986 m 571 381 l 528 768 l 317 381 l 571 381 m 397 1132 l 568 1272 l 703 1272 l 814 1132 l 707 1088 l 614 1175 l 483 1088 l 397 1132 z "},"ˆ":{"ha":493,"x_min":58,"x_max":475,"o":"m 58 874 l 229 1014 l 364 1014 l 475 874 l 368 829 l 275 917 l 144 829 l 58 874 z "},"Ä":{"ha":896,"x_min":-74,"x_max":826,"o":"m 489 986 l 660 986 l 803 0 l 606 0 l 575 246 l 257 246 l 124 0 l -74 0 l 489 986 m 571 381 l 528 768 l 317 381 l 571 381 m 378 1099 l 414 1264 l 568 1264 l 532 1099 l 378 1099 m 639 1099 l 674 1264 l 826 1264 l 793 1099 l 639 1099 z "},"¨":{"ha":621,"x_min":101,"x_max":550,"o":"m 101 839 l 138 1004 l 292 1004 l 256 839 l 101 839 m 363 839 l 397 1004 l 550 1004 l 517 839 l 363 839 z "},"À":{"ha":896,"x_min":-74,"x_max":803,"o":"m 489 986 l 660 986 l 803 0 l 606 0 l 575 246 l 257 246 l 124 0 l -74 0 l 489 986 m 571 381 l 528 768 l 317 381 l 571 381 m 449 1274 l 619 1274 l 656 1108 l 526 1083 l 449 1274 z "},"`":{"ha":342,"x_min":83,"x_max":290,"o":"m 83 1014 l 254 1014 l 290 849 l 161 824 l 83 1014 z "},"Ā":{"ha":896,"x_min":-74,"x_max":824,"o":"m 489 986 l 660 986 l 803 0 l 606 0 l 575 246 l 257 246 l 124 0 l -74 0 l 489 986 m 571 381 l 528 768 l 317 381 l 571 381 m 401 1136 l 426 1251 l 824 1251 l 799 1136 l 401 1136 z "},"¯":{"ha":557,"x_min":94,"x_max":517,"o":"m 94 878 l 119 993 l 517 993 l 492 878 l 94 878 z "},"Ą":{"ha":896,"x_min":-74,"x_max":803,"o":"m 689 -272 q 587 -233 619 -261 q 554 -167 554 -204 q 697 0 554 -81 l 606 0 l 575 246 l 257 246 l 124 0 l -74 0 l 489 986 l 660 986 l 803 0 q 675 -126 675 -74 q 747 -175 675 -171 l 689 -272 m 571 381 l 528 768 l 317 381 l 571 381 z "},"˛":{"ha":389,"x_min":53,"x_max":301,"o":"m 188 -272 q 85 -233 118 -261 q 53 -167 53 -204 q 253 29 53 -65 l 301 0 q 174 -126 174 -74 q 246 -175 174 -171 l 188 -272 l 188 -272 z "},"Å":{"ha":896,"x_min":-74,"x_max":803,"o":"m 489 986 l 660 986 l 803 0 l 606 0 l 575 246 l 257 246 l 124 0 l -74 0 l 489 986 m 571 381 l 528 768 l 317 381 l 571 381 m 472 1144 q 517 1239 472 1206 q 629 1272 561 1272 q 711 1249 682 1272 q 740 1186 740 1226 q 697 1092 740 1126 q 583 1058 653 1058 q 502 1081 532 1058 q 472 1144 472 1104 m 617 1215 q 572 1199 590 1215 q 553 1157 553 1182 q 565 1127 553 1139 q 596 1115 576 1115 q 640 1132 619 1115 q 661 1174 661 1149 q 649 1204 661 1193 q 617 1215 636 1215 z "},"˚":{"ha":347,"x_min":63,"x_max":331,"o":"m 63 886 q 107 981 63 947 q 219 1014 151 1014 q 301 991 272 1014 q 331 928 331 968 q 287 834 331 868 q 174 800 243 800 q 92 823 122 800 q 63 886 63 846 m 207 957 q 162 940 181 957 q 143 899 143 924 q 155 869 143 881 q 186 857 167 857 q 231 874 210 857 q 251 915 251 890 q 239 946 251 935 q 207 957 226 957 z "},"Ǻ":{"ha":896,"x_min":-74,"x_max":821,"o":"m 682 1121 q 715 1056 715 1099 q 701 998 715 1024 q 664 956 688 972 l 803 0 l 606 0 l 575 246 l 257 246 l 124 0 l -74 0 l 471 954 q 447 1014 447 978 q 476 1093 447 1063 q 551 1135 504 1124 l 649 1281 l 821 1281 l 682 1121 m 571 381 l 528 768 l 317 381 l 571 381 m 592 1085 q 547 1068 565 1085 q 528 1026 528 1051 q 540 997 528 1008 q 571 985 551 985 q 615 1001 594 985 q 636 1043 636 1018 q 624 1074 636 1063 q 592 1085 611 1085 z "},"Ã":{"ha":896,"x_min":-74,"x_max":881,"o":"m 489 986 l 660 986 l 803 0 l 606 0 l 575 246 l 257 246 l 124 0 l -74 0 l 489 986 m 571 381 l 528 768 l 317 381 l 571 381 m 678 1094 q 628 1104 649 1094 q 590 1126 607 1114 q 556 1147 572 1138 q 517 1157 539 1157 q 480 1147 494 1157 q 457 1125 465 1138 q 445 1102 449 1113 q 442 1090 442 1092 l 339 1090 q 356 1133 342 1103 q 394 1192 369 1163 q 455 1245 419 1222 q 535 1268 490 1268 q 585 1258 565 1268 q 621 1235 604 1247 q 654 1213 638 1224 q 694 1203 671 1203 q 734 1213 718 1203 q 760 1235 750 1222 q 774 1258 769 1247 q 779 1272 779 1269 l 881 1272 q 864 1233 878 1263 q 824 1174 850 1204 q 762 1119 799 1143 q 678 1094 725 1094 z "},"˜":{"ha":582,"x_min":35,"x_max":576,"o":"m 374 836 q 324 846 344 836 q 285 867 303 856 q 251 889 268 879 q 213 899 235 899 q 176 889 190 899 q 153 867 161 879 q 141 844 144 854 q 138 832 138 833 l 35 832 q 51 874 38 844 q 90 934 65 904 q 151 987 115 964 q 231 1010 186 1010 q 281 999 261 1010 q 317 977 300 989 q 350 955 333 965 q 390 944 367 944 q 430 954 414 944 q 456 976 446 964 q 470 1000 465 989 q 475 1014 475 1011 l 576 1014 q 560 975 574 1004 q 520 915 546 946 q 458 860 494 885 q 374 836 421 836 z "},"B":{"ha":911,"x_min":14,"x_max":896,"o":"m 224 986 l 729 986 q 802 969 771 986 q 854 924 833 951 q 885 860 875 896 q 896 785 896 824 q 883 700 896 742 q 844 621 869 658 q 784 553 819 583 q 706 506 749 524 q 801 434 768 485 q 835 310 835 383 q 804 177 835 235 q 722 80 774 119 q 604 20 671 40 q 467 0 538 0 l 14 0 l 224 986 m 501 163 q 554 175 528 163 q 601 209 581 188 q 633 259 621 231 q 646 319 646 288 q 624 392 646 363 q 565 422 603 422 l 293 422 l 239 163 l 501 163 m 561 574 q 610 585 586 574 q 654 616 635 596 q 685 665 674 636 q 697 728 697 693 q 676 797 697 771 q 621 822 656 822 l 379 822 l 326 574 l 561 574 z "},"C":{"ha":914,"x_min":51,"x_max":951,"o":"m 411 -8 q 258 27 325 -8 q 146 121 192 63 q 76 255 100 179 q 51 411 51 331 q 71 549 51 479 q 127 683 90 618 q 216 803 164 747 q 333 901 268 860 q 472 967 397 943 q 631 992 547 992 q 844 932 761 992 q 951 776 926 872 l 783 675 q 756 745 775 717 q 709 790 736 774 q 651 815 682 807 q 589 822 619 822 q 447 785 511 822 q 339 689 383 747 q 270 560 294 631 q 246 422 246 489 q 260 322 246 369 q 300 239 274 275 q 365 182 326 203 q 453 161 403 161 q 519 169 483 161 q 588 196 554 178 q 653 242 622 214 q 710 311 685 271 l 847 221 q 763 123 814 165 q 653 51 713 81 q 531 7 594 22 q 411 -8 468 -8 z "},"\r":{"ha":0,"x_min":0,"x_max":0,"o":""},"Ć":{"ha":914,"x_min":51,"x_max":951,"o":"m 692 1083 l 571 1107 l 676 1272 l 849 1272 l 692 1083 m 411 -8 q 258 27 325 -8 q 146 121 192 63 q 76 255 100 179 q 51 411 51 331 q 71 549 51 479 q 127 683 90 618 q 216 803 164 747 q 333 901 268 860 q 472 967 397 943 q 631 992 547 992 q 844 932 761 992 q 951 776 926 872 l 783 675 q 756 745 775 717 q 709 790 736 774 q 651 815 682 807 q 589 822 619 822 q 447 785 511 822 q 339 689 383 747 q 270 560 294 631 q 246 422 246 489 q 260 322 246 369 q 300 239 274 275 q 365 182 326 203 q 453 161 403 161 q 519 169 483 161 q 588 196 554 178 q 653 242 622 214 q 710 311 685 271 l 847 221 q 763 123 814 165 q 653 51 713 81 q 531 7 594 22 q 411 -8 468 -8 z "},"Č":{"ha":914,"x_min":51,"x_max":951,"o":"m 474 1228 l 581 1272 l 674 1185 l 804 1272 l 892 1228 l 719 1088 l 585 1088 l 474 1228 m 411 -8 q 258 27 325 -8 q 146 121 192 63 q 76 255 100 179 q 51 411 51 331 q 71 549 51 479 q 127 683 90 618 q 216 803 164 747 q 333 901 268 860 q 472 967 397 943 q 631 992 547 992 q 844 932 761 992 q 951 776 926 872 l 783 675 q 756 745 775 717 q 709 790 736 774 q 651 815 682 807 q 589 822 619 822 q 447 785 511 822 q 339 689 383 747 q 270 560 294 631 q 246 422 246 489 q 260 322 246 369 q 300 239 274 275 q 365 182 326 203 q 453 161 403 161 q 519 169 483 161 q 588 196 554 178 q 653 242 622 214 q 710 311 685 271 l 847 221 q 763 123 814 165 q 653 51 713 81 q 531 7 594 22 q 411 -8 468 -8 z "},"ˇ":{"ha":493,"x_min":68,"x_max":486,"o":"m 68 969 l 175 1014 l 268 926 l 399 1014 l 486 969 l 314 829 l 179 829 l 68 969 z "},"Ç":{"ha":911,"x_min":49,"x_max":949,"o":"m 257 -176 q 302 -194 271 -186 q 369 -203 333 -203 q 431 -190 407 -203 q 454 -149 454 -178 q 438 -119 454 -128 q 393 -111 421 -111 q 333 -117 365 -111 q 285 -128 301 -124 l 368 -6 q 232 40 292 3 q 132 135 172 78 q 70 263 92 192 q 49 411 49 335 q 68 549 49 479 q 124 683 88 618 q 213 803 161 747 q 330 901 265 860 q 469 967 394 943 q 628 992 544 992 q 841 932 758 992 q 949 776 924 872 l 781 675 q 753 745 772 717 q 706 790 733 774 q 648 815 679 807 q 586 822 617 822 q 444 785 508 822 q 336 689 381 747 q 267 560 292 631 q 243 422 243 489 q 257 322 243 369 q 297 239 271 275 q 362 182 324 203 q 450 161 400 161 q 516 169 481 161 q 585 196 551 178 q 651 242 619 214 q 707 311 682 271 l 844 221 q 769 131 814 171 q 670 61 724 90 q 560 15 617 32 q 449 -6 503 -1 l 406 -58 q 426 -54 415 -56 q 449 -53 438 -53 q 516 -72 489 -53 q 543 -131 543 -90 q 493 -231 543 -190 q 342 -272 443 -272 q 263 -264 297 -272 q 206 -244 229 -256 l 257 -176 z "},"¸":{"ha":435,"x_min":-25,"x_max":313,"o":"m 26 -176 q 72 -194 40 -186 q 139 -203 103 -203 q 200 -190 176 -203 q 224 -149 224 -178 q 207 -119 224 -128 q 163 -111 190 -111 q 103 -117 135 -111 q 54 -128 71 -124 l 169 39 l 238 17 l 175 -58 q 196 -54 185 -56 q 218 -53 207 -53 q 285 -72 258 -53 q 313 -131 313 -90 q 263 -231 313 -190 q 111 -272 213 -272 q 33 -264 67 -272 q -25 -244 -1 -256 l 26 -176 z "},"Ĉ":{"ha":914,"x_min":51,"x_max":951,"o":"m 460 1132 l 631 1272 l 765 1272 l 876 1132 l 769 1088 l 676 1175 l 546 1088 l 460 1132 m 411 -8 q 258 27 325 -8 q 146 121 192 63 q 76 255 100 179 q 51 411 51 331 q 71 549 51 479 q 127 683 90 618 q 216 803 164 747 q 333 901 268 860 q 472 967 397 943 q 631 992 547 992 q 844 932 761 992 q 951 776 926 872 l 783 675 q 756 745 775 717 q 709 790 736 774 q 651 815 682 807 q 589 822 619 822 q 447 785 511 822 q 339 689 383 747 q 270 560 294 631 q 246 422 246 489 q 260 322 246 369 q 300 239 274 275 q 365 182 326 203 q 453 161 403 161 q 519 169 483 161 q 588 196 554 178 q 653 242 622 214 q 710 311 685 271 l 847 221 q 763 123 814 165 q 653 51 713 81 q 531 7 594 22 q 411 -8 468 -8 z "},"Ċ":{"ha":914,"x_min":51,"x_max":951,"o":"m 411 -8 q 258 27 325 -8 q 146 121 192 63 q 76 255 100 179 q 51 411 51 331 q 71 549 51 479 q 127 683 90 618 q 216 803 164 747 q 333 901 268 860 q 472 967 397 943 q 631 992 547 992 q 844 932 761 992 q 951 776 926 872 l 783 675 q 756 745 775 717 q 709 790 736 774 q 651 815 682 807 q 589 822 619 822 q 447 785 511 822 q 339 689 383 747 q 270 560 294 631 q 246 422 246 489 q 260 322 246 369 q 300 239 274 275 q 365 182 326 203 q 453 161 403 161 q 519 169 483 161 q 588 196 554 178 q 653 242 622 214 q 710 311 685 271 l 847 221 q 763 123 814 165 q 653 51 713 81 q 531 7 594 22 q 411 -8 468 -8 m 578 1097 l 615 1272 l 782 1272 l 746 1097 l 578 1097 z "},"˙":{"ha":299,"x_min":63,"x_max":267,"o":"m 63 839 l 100 1014 l 267 1014 l 231 839 l 63 839 z "},"D":{"ha":961,"x_min":14,"x_max":939,"o":"m 224 986 l 567 986 q 733 956 663 986 q 849 875 803 926 q 917 754 894 824 q 939 604 939 685 q 895 363 939 474 q 773 172 851 253 q 588 46 694 92 q 357 0 482 0 l 14 0 l 224 986 m 392 168 q 535 201 471 168 q 646 291 600 235 q 717 421 692 347 q 742 576 742 494 q 688 751 742 685 q 531 818 635 818 l 378 818 l 240 168 l 392 168 z "},"Ď":{"ha":961,"x_min":14,"x_max":939,"o":"m 393 1228 l 500 1272 l 593 1185 l 724 1272 l 811 1228 l 639 1088 l 504 1088 l 393 1228 m 224 986 l 567 986 q 733 956 663 986 q 849 875 803 926 q 917 754 894 824 q 939 604 939 685 q 895 363 939 474 q 773 172 851 253 q 588 46 694 92 q 357 0 482 0 l 14 0 l 224 986 m 392 168 q 535 201 471 168 q 646 291 600 235 q 717 421 692 347 q 742 576 742 494 q 688 751 742 685 q 531 818 635 818 l 378 818 l 240 168 l 392 168 z "},"Đ":{"ha":969,"x_min":21,"x_max":946,"o":"m 79 565 l 140 565 l 231 986 l 574 986 q 740 956 669 986 q 856 875 810 926 q 924 754 901 824 q 946 604 946 685 q 902 363 946 474 q 780 172 858 253 q 595 46 701 92 q 364 0 489 0 l 21 0 l 111 426 l 50 426 l 79 565 m 400 168 q 544 201 479 168 q 654 291 608 235 q 725 421 700 347 q 750 576 750 494 q 736 675 750 631 q 696 751 722 719 q 629 801 669 783 q 538 818 589 818 l 386 818 l 332 565 l 513 565 l 482 426 l 301 426 l 247 168 l 400 168 z "},"E":{"ha":803,"x_min":14,"x_max":863,"o":"m 224 986 l 863 986 l 828 818 l 378 818 l 328 581 l 715 581 l 682 425 l 294 425 l 240 168 l 701 168 l 665 0 l 14 0 l 224 986 z "},"É":{"ha":803,"x_min":14,"x_max":863,"o":"m 599 1083 l 478 1107 l 583 1272 l 756 1272 l 599 1083 m 224 986 l 863 986 l 828 818 l 378 818 l 328 581 l 715 581 l 682 425 l 294 425 l 240 168 l 701 168 l 665 0 l 14 0 l 224 986 z "},"Ĕ":{"ha":803,"x_min":14,"x_max":863,"o":"m 224 986 l 863 986 l 828 818 l 378 818 l 328 581 l 715 581 l 682 425 l 294 425 l 240 168 l 701 168 l 665 0 l 14 0 l 224 986 m 568 1169 q 626 1199 597 1169 q 668 1272 654 1228 l 768 1272 q 739 1198 760 1232 q 690 1139 718 1164 q 626 1100 661 1114 q 551 1086 590 1086 q 445 1125 483 1086 q 407 1226 407 1164 q 413 1272 407 1251 l 513 1272 q 508 1244 508 1257 q 525 1191 508 1213 q 568 1169 542 1169 z "},"Ě":{"ha":803,"x_min":14,"x_max":863,"o":"m 376 1228 l 483 1272 l 576 1185 l 707 1272 l 794 1228 l 622 1088 l 488 1088 l 376 1228 m 224 986 l 863 986 l 828 818 l 378 818 l 328 581 l 715 581 l 682 425 l 294 425 l 240 168 l 701 168 l 665 0 l 14 0 l 224 986 z "},"Ê":{"ha":803,"x_min":14,"x_max":863,"o":"m 367 1132 l 538 1272 l 672 1272 l 783 1132 l 676 1088 l 583 1175 l 453 1088 l 367 1132 m 224 986 l 863 986 l 828 818 l 378 818 l 328 581 l 715 581 l 682 425 l 294 425 l 240 168 l 701 168 l 665 0 l 14 0 l 224 986 z "},"Ë":{"ha":803,"x_min":14,"x_max":863,"o":"m 358 1099 l 394 1264 l 549 1264 l 513 1099 l 358 1099 m 619 1099 l 654 1264 l 807 1264 l 774 1099 l 619 1099 m 224 986 l 863 986 l 828 818 l 378 818 l 328 581 l 715 581 l 682 425 l 294 425 l 240 168 l 701 168 l 665 0 l 14 0 l 224 986 z "},"Ė":{"ha":803,"x_min":14,"x_max":863,"o":"m 224 986 l 863 986 l 828 818 l 378 818 l 328 581 l 715 581 l 682 425 l 294 425 l 240 168 l 701 168 l 665 0 l 14 0 l 224 986 m 481 1097 l 518 1272 l 685 1272 l 649 1097 l 481 1097 z "},"È":{"ha":803,"x_min":14,"x_max":863,"o":"m 224 986 l 863 986 l 828 818 l 378 818 l 328 581 l 715 581 l 682 425 l 294 425 l 240 168 l 701 168 l 665 0 l 14 0 l 224 986 m 451 1274 l 622 1274 l 658 1108 l 529 1083 l 451 1274 z "},"Ē":{"ha":803,"x_min":14,"x_max":863,"o":"m 224 986 l 863 986 l 828 818 l 378 818 l 328 581 l 715 581 l 682 425 l 294 425 l 240 168 l 701 168 l 665 0 l 14 0 l 224 986 m 374 1136 l 399 1251 l 796 1251 l 771 1136 l 374 1136 z "},"Ŋ":{"ha":1000,"x_min":14,"x_max":1018,"o":"m 506 -272 q 413 -256 456 -272 q 342 -207 371 -240 l 449 -81 q 478 -103 460 -96 q 517 -111 497 -111 q 581 -85 551 -111 q 618 -19 610 -60 l 631 39 l 338 626 l 204 0 l 14 0 l 224 986 l 369 986 l 692 347 l 826 985 l 1018 985 l 806 -12 q 763 -119 793 -71 q 693 -201 733 -167 q 604 -253 653 -235 q 506 -272 556 -272 z "},"Ę":{"ha":803,"x_min":14,"x_max":863,"o":"m 224 986 l 863 986 l 828 818 l 378 818 l 328 581 l 715 581 l 682 425 l 294 425 l 240 168 l 701 168 l 665 0 l 403 0 q 275 -126 275 -74 q 347 -175 275 -171 l 289 -272 q 187 -233 219 -261 q 154 -167 154 -204 q 297 0 154 -81 l 14 0 l 224 986 z "},"Ð":{"ha":969,"x_min":21,"x_max":946,"o":"m 79 565 l 140 565 l 231 986 l 574 986 q 740 956 669 986 q 856 875 810 926 q 924 754 901 824 q 946 604 946 685 q 902 363 946 474 q 780 172 858 253 q 595 46 701 92 q 364 0 489 0 l 21 0 l 111 426 l 50 426 l 79 565 m 400 168 q 544 201 479 168 q 654 291 608 235 q 725 421 700 347 q 750 576 750 494 q 736 675 750 631 q 696 751 722 719 q 629 801 669 783 q 538 818 589 818 l 386 818 l 332 565 l 513 565 l 482 426 l 301 426 l 247 168 l 400 168 z "},"Ẽ":{"ha":803,"x_min":14,"x_max":863,"o":"m 224 986 l 863 986 l 828 818 l 378 818 l 328 581 l 715 581 l 682 425 l 294 425 l 240 168 l 701 168 l 665 0 l 14 0 l 224 986 m 643 1094 q 593 1104 614 1094 q 555 1126 572 1114 q 521 1147 538 1138 q 482 1157 504 1157 q 445 1147 460 1157 q 422 1125 431 1138 q 410 1102 414 1113 q 407 1090 407 1092 l 304 1090 q 321 1133 307 1103 q 360 1192 335 1163 q 420 1245 385 1222 q 500 1268 456 1268 q 550 1258 531 1268 q 586 1235 569 1247 q 619 1213 603 1224 q 660 1203 636 1203 q 699 1213 683 1203 q 725 1235 715 1222 q 740 1258 735 1247 q 744 1272 744 1269 l 846 1272 q 829 1233 843 1263 q 790 1174 815 1204 q 727 1119 764 1143 q 643 1094 690 1094 z "},"€":{"ha":1058,"x_min":31,"x_max":1063,"o":"m 204 613 q 289 758 236 689 q 410 878 342 826 q 563 961 479 931 q 742 992 647 992 q 954 932 872 992 q 1063 776 1036 872 l 893 675 q 865 745 885 717 q 819 790 846 774 q 762 815 793 807 q 700 822 731 822 q 603 806 649 822 q 521 760 558 789 q 453 694 483 732 q 403 613 424 656 l 736 613 l 674 510 l 367 510 q 360 474 363 492 q 357 439 358 456 l 657 439 l 594 336 l 367 336 q 435 211 386 261 q 563 161 483 161 q 628 169 593 161 q 698 196 664 178 q 763 242 732 214 q 819 311 794 271 l 957 221 q 873 123 924 165 q 763 51 822 81 q 641 7 704 22 q 521 -8 578 -8 q 384 19 444 -8 q 278 94 324 47 q 206 204 233 142 q 168 336 178 267 l 31 336 l 93 439 l 164 439 q 172 510 165 474 l 82 510 l 146 613 l 204 613 z "},"F":{"ha":772,"x_min":14,"x_max":854,"o":"m 224 986 l 854 986 l 818 818 l 378 818 l 325 564 l 689 564 l 656 408 l 292 408 l 204 0 l 14 0 l 224 986 z "},"G":{"ha":968,"x_min":51,"x_max":954,"o":"m 686 111 q 547 22 615 50 q 404 -7 478 -7 q 260 24 325 -7 q 149 110 196 56 q 77 238 103 164 q 51 399 51 313 q 100 626 51 518 q 229 815 149 733 q 414 945 310 897 q 629 993 518 993 q 844 935 761 993 q 954 778 926 876 l 789 672 q 716 785 769 746 q 588 824 663 824 q 457 790 518 824 q 349 699 396 756 q 274 570 301 643 q 247 419 247 497 q 262 318 247 365 q 303 236 276 271 q 369 182 331 201 q 457 163 408 163 q 725 297 590 163 l 740 367 l 553 367 l 583 507 l 929 507 l 821 0 l 663 0 l 686 111 z "},"Ğ":{"ha":968,"x_min":51,"x_max":954,"o":"m 686 111 q 547 22 615 50 q 404 -7 478 -7 q 260 24 325 -7 q 149 110 196 56 q 77 238 103 164 q 51 399 51 313 q 100 626 51 518 q 229 815 149 733 q 414 945 310 897 q 629 993 518 993 q 844 935 761 993 q 954 778 926 876 l 789 672 q 716 785 769 746 q 588 824 663 824 q 457 790 518 824 q 349 699 396 756 q 274 570 301 643 q 247 419 247 497 q 262 318 247 365 q 303 236 276 271 q 369 182 331 201 q 457 163 408 163 q 725 297 590 163 l 740 367 l 553 367 l 583 507 l 929 507 l 821 0 l 663 0 l 686 111 m 657 1169 q 715 1199 686 1169 q 757 1272 743 1228 l 857 1272 q 828 1198 849 1232 q 778 1139 807 1164 q 715 1100 750 1114 q 640 1086 679 1086 q 534 1125 572 1086 q 496 1226 496 1164 q 501 1272 496 1251 l 601 1272 q 597 1244 597 1257 q 614 1191 597 1213 q 657 1169 631 1169 z "},"Ĝ":{"ha":968,"x_min":51,"x_max":954,"o":"m 451 1132 l 622 1272 l 757 1272 l 868 1132 l 761 1088 l 668 1175 l 538 1088 l 451 1132 m 686 111 q 547 22 615 50 q 404 -7 478 -7 q 260 24 325 -7 q 149 110 196 56 q 77 238 103 164 q 51 399 51 313 q 100 626 51 518 q 229 815 149 733 q 414 945 310 897 q 629 993 518 993 q 844 935 761 993 q 954 778 926 876 l 789 672 q 716 785 769 746 q 588 824 663 824 q 457 790 518 824 q 349 699 396 756 q 274 570 301 643 q 247 419 247 497 q 262 318 247 365 q 303 236 276 271 q 369 182 331 201 q 457 163 408 163 q 725 297 590 163 l 740 367 l 553 367 l 583 507 l 929 507 l 821 0 l 663 0 l 686 111 z "},"Ģ":{"ha":968,"x_min":51,"x_max":954,"o":"m 293 -296 l 353 -196 l 297 -196 l 326 -65 l 482 -65 l 456 -196 l 378 -296 l 293 -296 m 686 111 q 547 22 615 50 q 404 -7 478 -7 q 260 24 325 -7 q 149 110 196 56 q 77 238 103 164 q 51 399 51 313 q 100 626 51 518 q 229 815 149 733 q 414 945 310 897 q 629 993 518 993 q 844 935 761 993 q 954 778 926 876 l 789 672 q 716 785 769 746 q 588 824 663 824 q 457 790 518 824 q 349 699 396 756 q 274 570 301 643 q 247 419 247 497 q 262 318 247 365 q 303 236 276 271 q 369 182 331 201 q 457 163 408 163 q 725 297 590 163 l 740 367 l 553 367 l 583 507 l 929 507 l 821 0 l 663 0 l 686 111 z "},"":{"ha":272,"x_min":35,"x_max":224,"o":"m 35 -296 l 94 -196 l 39 -196 l 68 -65 l 224 -65 l 197 -196 l 119 -296 l 35 -296 z "},"Ġ":{"ha":968,"x_min":51,"x_max":954,"o":"m 686 111 q 547 22 615 50 q 404 -7 478 -7 q 260 24 325 -7 q 149 110 196 56 q 77 238 103 164 q 51 399 51 313 q 100 626 51 518 q 229 815 149 733 q 414 945 310 897 q 629 993 518 993 q 844 935 761 993 q 954 778 926 876 l 789 672 q 716 785 769 746 q 588 824 663 824 q 457 790 518 824 q 349 699 396 756 q 274 570 301 643 q 247 419 247 497 q 262 318 247 365 q 303 236 276 271 q 369 182 331 201 q 457 163 408 163 q 725 297 590 163 l 740 367 l 553 367 l 583 507 l 929 507 l 821 0 l 663 0 l 686 111 m 571 1097 l 608 1272 l 775 1272 l 739 1097 l 571 1097 z "},"H":{"ha":997,"x_min":14,"x_max":1015,"o":"m 224 986 l 414 986 l 329 588 l 740 588 l 825 986 l 1015 986 l 806 0 l 615 0 l 704 421 l 293 421 l 204 0 l 14 0 l 224 986 z "},"Ħ":{"ha":1008,"x_min":19,"x_max":1058,"o":"m 133 846 l 199 846 l 229 986 l 421 986 l 390 846 l 801 846 l 832 986 l 1022 986 l 992 846 l 1058 846 l 1039 754 l 972 754 l 813 0 l 622 0 l 711 421 l 300 421 l 211 0 l 19 0 l 179 754 l 114 754 l 133 846 m 747 588 l 782 754 l 371 754 l 336 588 l 747 588 z "},"Ĥ":{"ha":997,"x_min":14,"x_max":1015,"o":"m 440 1132 l 611 1272 l 746 1272 l 857 1132 l 750 1088 l 657 1175 l 526 1088 l 440 1132 m 224 986 l 414 986 l 329 588 l 740 588 l 825 986 l 1015 986 l 806 0 l 615 0 l 704 421 l 293 421 l 204 0 l 14 0 l 224 986 z "},"I":{"ha":396,"x_min":14,"x_max":414,"o":"m 224 985 l 414 985 l 204 0 l 14 0 l 224 985 z "},"Ĳ":{"ha":1061,"x_min":14,"x_max":1092,"o":"m 224 985 l 414 985 l 204 0 l 14 0 l 224 985 m 526 -15 q 336 46 408 -15 l 411 201 q 465 171 425 188 q 563 154 506 154 q 653 174 617 154 q 714 236 689 194 q 757 340 739 278 q 793 485 775 401 l 900 985 l 1092 985 l 985 485 q 931 280 961 372 q 849 122 900 188 q 721 21 799 57 q 526 -15 643 -15 z "},"J":{"ha":665,"x_min":-60,"x_max":696,"o":"m 131 -15 q -60 46 13 -15 l 15 201 q 69 171 29 188 q 167 154 110 154 q 257 174 221 154 q 318 236 293 194 q 361 340 343 278 q 397 485 379 401 l 504 985 l 696 985 l 589 485 q 535 280 565 372 q 453 122 504 188 q 325 21 403 57 q 131 -15 247 -15 z "},"Í":{"ha":396,"x_min":14,"x_max":514,"o":"m 224 985 l 414 985 l 204 0 l 14 0 l 224 985 m 357 1083 l 236 1107 l 342 1272 l 514 1272 l 357 1083 z "},"Ĭ":{"ha":396,"x_min":14,"x_max":547,"o":"m 224 985 l 414 985 l 204 0 l 14 0 l 224 985 m 347 1169 q 405 1199 376 1169 q 447 1272 433 1228 l 547 1272 q 518 1198 539 1232 q 469 1139 497 1164 q 405 1100 440 1114 q 331 1086 369 1086 q 224 1125 263 1086 q 186 1226 186 1164 q 192 1272 186 1251 l 292 1272 q 288 1244 288 1257 q 304 1191 288 1213 q 347 1169 321 1169 z "},"Î":{"ha":396,"x_min":14,"x_max":558,"o":"m 224 985 l 414 985 l 204 0 l 14 0 l 224 985 m 142 1132 l 313 1272 l 447 1272 l 558 1132 l 451 1088 l 358 1175 l 228 1088 l 142 1132 z "},"Ï":{"ha":396,"x_min":14,"x_max":583,"o":"m 224 985 l 414 985 l 204 0 l 14 0 l 224 985 m 135 1099 l 171 1264 l 325 1264 l 289 1099 l 135 1099 m 396 1099 l 431 1264 l 583 1264 l 550 1099 l 396 1099 z "},"İ":{"ha":396,"x_min":14,"x_max":463,"o":"m 224 985 l 414 985 l 204 0 l 14 0 l 224 985 m 258 1097 l 296 1272 l 463 1272 l 426 1097 l 258 1097 z "},"Ì":{"ha":396,"x_min":14,"x_max":429,"o":"m 224 985 l 414 985 l 204 0 l 14 0 l 224 985 m 222 1274 l 393 1274 l 429 1108 l 300 1083 l 222 1274 z "},"Ī":{"ha":396,"x_min":14,"x_max":574,"o":"m 224 985 l 414 985 l 204 0 l 14 0 l 224 985 m 151 1136 l 176 1251 l 574 1251 l 549 1136 l 151 1136 z "},"Į":{"ha":396,"x_min":-44,"x_max":414,"o":"m 224 985 l 414 985 l 204 0 q 76 -126 76 -74 q 149 -175 76 -171 l 90 -272 q -12 -233 21 -261 q -44 -167 -44 -204 q 99 0 -44 -81 l 14 0 l 224 985 z "},"Ĩ":{"ha":396,"x_min":14,"x_max":635,"o":"m 224 985 l 414 985 l 204 0 l 14 0 l 224 985 m 432 1094 q 382 1104 403 1094 q 344 1126 361 1114 q 310 1147 326 1138 q 271 1157 293 1157 q 234 1147 249 1157 q 211 1125 219 1138 q 199 1102 203 1113 q 196 1090 196 1092 l 93 1090 q 110 1133 96 1103 q 149 1192 124 1163 q 209 1245 174 1222 q 289 1268 244 1268 q 339 1258 319 1268 q 375 1235 358 1247 q 408 1213 392 1224 q 449 1203 425 1203 q 488 1213 472 1203 q 514 1235 504 1222 q 528 1258 524 1247 q 533 1272 533 1269 l 635 1272 q 618 1233 632 1263 q 578 1174 604 1204 q 516 1119 553 1143 q 432 1094 479 1094 z "},"Ĵ":{"ha":665,"x_min":-60,"x_max":838,"o":"m 421 1132 l 592 1272 l 726 1272 l 838 1132 l 731 1088 l 638 1175 l 507 1088 l 421 1132 m 131 -15 q -60 46 13 -15 l 15 201 q 69 171 29 188 q 167 154 110 154 q 257 174 221 154 q 318 236 293 194 q 361 340 343 278 q 397 485 379 401 l 504 985 l 696 985 l 589 485 q 535 280 565 372 q 453 122 504 188 q 325 21 403 57 q 131 -15 247 -15 z "},"K":{"ha":893,"x_min":14,"x_max":1007,"o":"m 224 985 l 414 985 l 314 517 l 793 986 l 1007 986 l 556 549 l 819 0 l 603 0 l 410 426 l 267 294 l 204 0 l 14 0 l 224 985 z "},"Ķ":{"ha":893,"x_min":14,"x_max":1007,"o":"m 278 -296 l 338 -196 l 282 -196 l 311 -65 l 467 -65 l 440 -196 l 363 -296 l 278 -296 m 224 985 l 414 985 l 314 517 l 793 986 l 1007 986 l 556 549 l 819 0 l 603 0 l 410 426 l 267 294 l 204 0 l 14 0 l 224 985 z "},"L":{"ha":779,"x_min":14,"x_max":711,"o":"m 224 986 l 414 986 l 240 168 l 711 168 l 676 0 l 14 0 l 224 986 z "},"Ĺ":{"ha":779,"x_min":14,"x_max":711,"o":"m 371 1083 l 250 1107 l 356 1272 l 528 1272 l 371 1083 m 224 986 l 414 986 l 240 168 l 711 168 l 676 0 l 14 0 l 224 986 z "},"Ľ":{"ha":781,"x_min":14,"x_max":754,"o":"m 476 849 l 583 1014 l 754 1014 l 589 813 l 476 849 m 224 986 l 414 986 l 240 168 l 711 168 l 676 0 l 14 0 l 224 986 z "},"Ļ":{"ha":779,"x_min":14,"x_max":711,"o":"m 228 -296 l 288 -196 l 232 -196 l 261 -65 l 417 -65 l 390 -196 l 313 -296 l 228 -296 m 224 986 l 414 986 l 240 168 l 711 168 l 676 0 l 14 0 l 224 986 z "},"Ŀ":{"ha":781,"x_min":14,"x_max":711,"o":"m 224 986 l 414 986 l 240 168 l 711 168 l 676 0 l 14 0 l 224 986 m 467 472 l 511 682 l 664 682 l 619 472 l 467 472 z "},"·":{"ha":311,"x_min":61,"x_max":258,"o":"m 61 336 l 106 546 l 258 546 l 214 336 l 61 336 z "},"Ł":{"ha":790,"x_min":4,"x_max":724,"o":"m 4 438 l 133 513 l 235 986 l 425 986 l 350 638 l 510 729 l 533 628 l 322 506 l 251 168 l 724 168 l 688 0 l 25 0 l 106 381 l 29 336 l 4 438 z "},"M":{"ha":1153,"x_min":14,"x_max":1171,"o":"m 224 986 l 429 986 l 578 425 l 967 986 l 1171 986 l 961 0 l 771 0 l 910 653 l 575 167 l 471 167 l 343 653 l 204 0 l 14 0 l 224 986 z "},"N":{"ha":1018,"x_min":14,"x_max":1036,"o":"m 224 986 l 372 986 l 708 339 l 846 985 l 1036 985 l 826 0 l 672 0 l 338 632 l 204 0 l 14 0 l 224 986 z "},"\u0000":{"ha":0,"x_min":0,"x_max":0,"o":""},"Ń":{"ha":1018,"x_min":14,"x_max":1036,"o":"m 679 1083 l 558 1107 l 664 1272 l 836 1272 l 679 1083 m 224 986 l 372 986 l 708 339 l 846 985 l 1036 985 l 826 0 l 672 0 l 338 632 l 204 0 l 14 0 l 224 986 z "},"Ň":{"ha":1018,"x_min":14,"x_max":1036,"o":"m 454 1228 l 561 1272 l 654 1185 l 785 1272 l 872 1228 l 700 1088 l 565 1088 l 454 1228 m 224 986 l 372 986 l 708 339 l 846 985 l 1036 985 l 826 0 l 672 0 l 338 632 l 204 0 l 14 0 l 224 986 z "},"Ņ":{"ha":1018,"x_min":14,"x_max":1036,"o":"m 303 -296 l 363 -196 l 307 -196 l 336 -65 l 492 -65 l 465 -196 l 388 -296 l 303 -296 m 224 986 l 372 986 l 708 339 l 846 985 l 1036 985 l 826 0 l 672 0 l 338 632 l 204 0 l 14 0 l 224 986 z "},"Ṅ":{"ha":1018,"x_min":14,"x_max":1036,"o":"m 561 1097 l 599 1272 l 765 1272 l 729 1097 l 561 1097 m 224 986 l 372 986 l 708 339 l 846 985 l 1036 985 l 826 0 l 672 0 l 338 632 l 204 0 l 14 0 l 224 986 z "},"Ñ":{"ha":1018,"x_min":14,"x_max":1036,"o":"m 224 986 l 372 986 l 708 339 l 846 985 l 1036 985 l 826 0 l 672 0 l 338 632 l 204 0 l 14 0 l 224 986 m 738 1094 q 688 1104 708 1094 q 649 1126 667 1114 q 615 1147 632 1138 q 576 1157 599 1157 q 540 1147 554 1157 q 517 1125 525 1138 q 505 1102 508 1113 q 501 1090 501 1092 l 399 1090 q 415 1133 401 1103 q 454 1192 429 1163 q 515 1245 479 1222 q 594 1268 550 1268 q 644 1258 625 1268 q 681 1235 664 1247 q 714 1213 697 1224 q 754 1203 731 1203 q 794 1213 778 1203 q 819 1235 810 1222 q 834 1258 829 1247 q 839 1272 839 1269 l 940 1272 q 924 1233 938 1263 q 884 1174 910 1204 q 822 1119 858 1143 q 738 1094 785 1094 z "},"O":{"ha":1013,"x_min":51,"x_max":992,"o":"m 415 -7 q 260 27 328 -7 q 145 118 192 61 q 75 249 99 175 q 51 403 51 322 q 99 622 51 515 q 228 810 147 728 q 413 943 308 893 q 632 993 518 993 q 787 958 719 993 q 899 867 854 924 q 968 735 944 810 q 992 581 992 660 q 944 363 992 469 q 817 175 897 257 q 633 43 738 93 q 415 -7 529 -7 m 453 163 q 592 200 529 163 q 701 296 656 238 q 772 426 747 354 q 797 567 797 497 q 785 665 797 618 q 747 746 772 711 q 682 801 721 781 q 592 822 643 822 q 451 785 515 822 q 342 690 388 749 q 271 560 296 632 q 246 418 246 489 q 258 321 246 367 q 297 240 271 275 q 362 183 324 204 q 453 163 400 163 z "},"Œ":{"ha":1433,"x_min":51,"x_max":1496,"o":"m 401 -7 q 251 27 317 -7 q 142 117 186 61 q 74 247 97 174 q 51 400 51 321 q 99 619 51 513 q 224 810 146 726 q 405 943 303 893 q 618 993 507 993 q 756 950 700 993 q 843 842 813 907 l 874 986 l 1496 986 l 1460 818 l 1028 818 l 979 586 l 1339 586 l 1304 418 l 943 418 l 890 168 l 1333 168 l 1297 0 l 664 0 l 694 146 q 560 36 636 79 q 401 -7 483 -7 m 439 163 q 574 200 513 163 q 678 297 635 238 q 747 430 722 357 q 771 572 771 503 q 758 668 771 622 q 722 748 746 714 q 663 803 699 782 q 579 824 626 824 q 444 786 506 824 q 340 689 383 749 q 271 557 296 629 q 246 414 246 485 q 258 318 246 364 q 294 238 269 272 q 354 183 318 203 q 439 163 390 163 z "},"Ó":{"ha":1013,"x_min":51,"x_max":992,"o":"m 686 1083 l 565 1107 l 671 1272 l 843 1272 l 686 1083 m 415 -7 q 260 27 328 -7 q 145 118 192 61 q 75 249 99 175 q 51 403 51 322 q 99 622 51 515 q 228 810 147 728 q 413 943 308 893 q 632 993 518 993 q 787 958 719 993 q 899 867 854 924 q 968 735 944 810 q 992 581 992 660 q 944 363 992 469 q 817 175 897 257 q 633 43 738 93 q 415 -7 529 -7 m 453 163 q 592 200 529 163 q 701 296 656 238 q 772 426 747 354 q 797 567 797 497 q 785 665 797 618 q 747 746 772 711 q 682 801 721 781 q 592 822 643 822 q 451 785 515 822 q 342 690 388 749 q 271 560 296 632 q 246 418 246 489 q 258 321 246 367 q 297 240 271 275 q 362 183 324 204 q 453 163 400 163 z "},"Ŏ":{"ha":1013,"x_min":51,"x_max":992,"o":"m 415 -7 q 260 27 328 -7 q 145 118 192 61 q 75 249 99 175 q 51 403 51 322 q 99 622 51 515 q 228 810 147 728 q 413 943 308 893 q 632 993 518 993 q 787 958 719 993 q 899 867 854 924 q 968 735 944 810 q 992 581 992 660 q 944 363 992 469 q 817 175 897 257 q 633 43 738 93 q 415 -7 529 -7 m 453 163 q 592 200 529 163 q 701 296 656 238 q 772 426 747 354 q 797 567 797 497 q 785 665 797 618 q 747 746 772 711 q 682 801 721 781 q 592 822 643 822 q 451 785 515 822 q 342 690 388 749 q 271 560 296 632 q 246 418 246 489 q 258 321 246 367 q 297 240 271 275 q 362 183 324 204 q 453 163 400 163 m 663 1169 q 720 1199 692 1169 q 763 1272 749 1228 l 863 1272 q 833 1198 854 1232 q 784 1139 813 1164 q 720 1100 756 1114 q 646 1086 685 1086 q 540 1125 578 1086 q 501 1226 501 1164 q 507 1272 501 1251 l 607 1272 q 603 1244 603 1257 q 619 1191 603 1213 q 663 1169 636 1169 z "},"Ô":{"ha":1013,"x_min":51,"x_max":992,"o":"m 457 1132 l 628 1272 l 763 1272 l 874 1132 l 767 1088 l 674 1175 l 543 1088 l 457 1132 m 415 -7 q 260 27 328 -7 q 145 118 192 61 q 75 249 99 175 q 51 403 51 322 q 99 622 51 515 q 228 810 147 728 q 413 943 308 893 q 632 993 518 993 q 787 958 719 993 q 899 867 854 924 q 968 735 944 810 q 992 581 992 660 q 944 363 992 469 q 817 175 897 257 q 633 43 738 93 q 415 -7 529 -7 m 453 163 q 592 200 529 163 q 701 296 656 238 q 772 426 747 354 q 797 567 797 497 q 785 665 797 618 q 747 746 772 711 q 682 801 721 781 q 592 822 643 822 q 451 785 515 822 q 342 690 388 749 q 271 560 296 632 q 246 418 246 489 q 258 321 246 367 q 297 240 271 275 q 362 183 324 204 q 453 163 400 163 z "},"Ö":{"ha":1013,"x_min":51,"x_max":992,"o":"m 446 1099 l 482 1264 l 636 1264 l 600 1099 l 446 1099 m 707 1099 l 742 1264 l 894 1264 l 861 1099 l 707 1099 m 415 -7 q 260 27 328 -7 q 145 118 192 61 q 75 249 99 175 q 51 403 51 322 q 99 622 51 515 q 228 810 147 728 q 413 943 308 893 q 632 993 518 993 q 787 958 719 993 q 899 867 854 924 q 968 735 944 810 q 992 581 992 660 q 944 363 992 469 q 817 175 897 257 q 633 43 738 93 q 415 -7 529 -7 m 453 163 q 592 200 529 163 q 701 296 656 238 q 772 426 747 354 q 797 567 797 497 q 785 665 797 618 q 747 746 772 711 q 682 801 721 781 q 592 822 643 822 q 451 785 515 822 q 342 690 388 749 q 271 560 296 632 q 246 418 246 489 q 258 321 246 367 q 297 240 271 275 q 362 183 324 204 q 453 163 400 163 z "},"Ò":{"ha":1013,"x_min":51,"x_max":992,"o":"m 415 -7 q 260 27 328 -7 q 145 118 192 61 q 75 249 99 175 q 51 403 51 322 q 99 622 51 515 q 228 810 147 728 q 413 943 308 893 q 632 993 518 993 q 787 958 719 993 q 899 867 854 924 q 968 735 944 810 q 992 581 992 660 q 944 363 992 469 q 817 175 897 257 q 633 43 738 93 q 415 -7 529 -7 m 453 163 q 592 200 529 163 q 701 296 656 238 q 772 426 747 354 q 797 567 797 497 q 785 665 797 618 q 747 746 772 711 q 682 801 721 781 q 592 822 643 822 q 451 785 515 822 q 342 690 388 749 q 271 560 296 632 q 246 418 246 489 q 258 321 246 367 q 297 240 271 275 q 362 183 324 204 q 453 163 400 163 m 547 1274 l 718 1274 l 754 1108 l 625 1083 l 547 1274 z "},"Ő":{"ha":1013,"x_min":51,"x_max":992,"o":"m 557 1071 l 464 1093 l 561 1258 l 704 1258 l 557 1071 m 774 1071 l 682 1093 l 778 1258 l 921 1258 l 774 1071 m 415 -7 q 260 27 328 -7 q 145 118 192 61 q 75 249 99 175 q 51 403 51 322 q 99 622 51 515 q 228 810 147 728 q 413 943 308 893 q 632 993 518 993 q 787 958 719 993 q 899 867 854 924 q 968 735 944 810 q 992 581 992 660 q 944 363 992 469 q 817 175 897 257 q 633 43 738 93 q 415 -7 529 -7 m 453 163 q 592 200 529 163 q 701 296 656 238 q 772 426 747 354 q 797 567 797 497 q 785 665 797 618 q 747 746 772 711 q 682 801 721 781 q 592 822 643 822 q 451 785 515 822 q 342 690 388 749 q 271 560 296 632 q 246 418 246 489 q 258 321 246 367 q 297 240 271 275 q 362 183 324 204 q 453 163 400 163 z "},"˝":{"ha":488,"x_min":31,"x_max":488,"o":"m 124 826 l 31 849 l 128 1014 l 271 1014 l 124 826 m 340 826 l 249 849 l 344 1014 l 488 1014 l 340 826 z "},"Ō":{"ha":1013,"x_min":51,"x_max":992,"o":"m 464 1136 l 489 1251 l 886 1251 l 861 1136 l 464 1136 m 415 -7 q 260 27 328 -7 q 145 118 192 61 q 75 249 99 175 q 51 403 51 322 q 99 622 51 515 q 228 810 147 728 q 413 943 308 893 q 632 993 518 993 q 787 958 719 993 q 899 867 854 924 q 968 735 944 810 q 992 581 992 660 q 944 363 992 469 q 817 175 897 257 q 633 43 738 93 q 415 -7 529 -7 m 453 163 q 592 200 529 163 q 701 296 656 238 q 772 426 747 354 q 797 567 797 497 q 785 665 797 618 q 747 746 772 711 q 682 801 721 781 q 592 822 643 822 q 451 785 515 822 q 342 690 388 749 q 271 560 296 632 q 246 418 246 489 q 258 321 246 367 q 297 240 271 275 q 362 183 324 204 q 453 163 400 163 z "},"Ǫ":{"ha":1011,"x_min":51,"x_max":992,"o":"m 367 -272 q 265 -233 297 -261 q 232 -167 232 -204 q 368 -4 232 -82 q 231 41 290 4 q 133 133 172 78 q 72 258 93 189 q 51 403 51 328 q 99 622 51 515 q 228 810 147 728 q 413 943 308 893 q 632 993 518 993 q 787 958 719 993 q 899 867 854 924 q 968 735 944 810 q 992 581 992 660 q 950 377 992 476 q 838 198 908 278 q 673 64 767 118 q 475 -3 579 10 q 353 -126 353 -74 q 425 -175 353 -171 l 367 -272 m 453 163 q 592 200 529 163 q 701 296 656 238 q 772 426 747 354 q 797 567 797 497 q 785 665 797 618 q 747 746 772 711 q 682 801 721 781 q 592 822 643 822 q 451 785 515 822 q 342 690 388 749 q 271 560 296 632 q 246 418 246 489 q 258 321 246 367 q 297 240 271 275 q 362 183 324 204 q 453 163 400 163 z "},"Ø":{"ha":1013,"x_min":-12,"x_max":1060,"o":"m 1060 986 l 924 832 q 974 713 957 778 q 992 581 992 649 q 944 363 992 469 q 817 175 897 257 q 633 43 738 93 q 415 -7 529 -7 q 315 6 361 -7 q 231 43 269 19 l 193 0 l -12 0 l 121 151 q 69 269 86 204 q 51 403 51 333 q 99 622 51 515 q 228 810 147 728 q 413 943 308 893 q 632 993 518 993 q 731 979 685 993 q 815 942 778 965 l 854 986 l 1060 986 m 246 418 q 249 363 246 390 q 261 311 253 335 l 689 797 q 644 815 668 808 q 592 822 619 822 q 451 785 515 822 q 342 690 388 749 q 271 560 296 632 q 246 418 246 489 m 453 163 q 592 200 529 163 q 701 296 656 238 q 772 426 747 354 q 797 567 797 497 q 782 671 797 621 l 356 186 q 453 163 399 163 z "},"/":{"ha":961,"x_min":-37,"x_max":1035,"o":"m 1035 986 l 168 0 l -37 0 l 829 986 l 1035 986 z "},"Ǿ":{"ha":1013,"x_min":-15,"x_max":1057,"o":"m 1057 986 l 922 833 q 974 715 957 779 q 992 581 992 650 q 944 363 992 469 q 817 175 897 257 q 633 43 738 93 q 415 -7 529 -7 q 315 6 361 -7 q 229 43 268 19 l 190 0 l -15 0 l 119 153 q 68 269 85 206 q 51 403 51 333 q 99 622 51 515 q 228 810 147 728 q 413 943 308 893 q 632 993 518 993 q 730 980 685 993 q 814 943 775 967 l 851 986 l 1057 986 m 453 163 q 592 200 529 163 q 701 296 656 238 q 772 426 747 354 q 797 567 797 497 q 782 672 797 622 l 354 186 q 453 163 397 163 m 246 418 q 260 314 246 360 l 686 799 q 643 816 667 810 q 592 822 619 822 q 451 785 515 822 q 342 690 388 749 q 271 560 296 632 q 246 418 246 489 m 692 1083 l 571 1107 l 676 1272 l 849 1272 l 692 1083 z "},"Õ":{"ha":1013,"x_min":51,"x_max":992,"o":"m 415 -7 q 260 27 328 -7 q 145 118 192 61 q 75 249 99 175 q 51 403 51 322 q 99 622 51 515 q 228 810 147 728 q 413 943 308 893 q 632 993 518 993 q 787 958 719 993 q 899 867 854 924 q 968 735 944 810 q 992 581 992 660 q 944 363 992 469 q 817 175 897 257 q 633 43 738 93 q 415 -7 529 -7 m 453 163 q 592 200 529 163 q 701 296 656 238 q 772 426 747 354 q 797 567 797 497 q 785 665 797 618 q 747 746 772 711 q 682 801 721 781 q 592 822 643 822 q 451 785 515 822 q 342 690 388 749 q 271 560 296 632 q 246 418 246 489 q 258 321 246 367 q 297 240 271 275 q 362 183 324 204 q 453 163 400 163 m 742 1094 q 692 1104 713 1094 q 653 1126 671 1114 q 619 1147 636 1138 q 581 1157 603 1157 q 544 1147 558 1157 q 521 1125 529 1138 q 509 1102 513 1113 q 506 1090 506 1092 l 403 1090 q 419 1133 406 1103 q 458 1192 433 1163 q 519 1245 483 1222 q 599 1268 554 1268 q 649 1258 629 1268 q 685 1235 668 1247 q 718 1213 701 1224 q 758 1203 735 1203 q 798 1213 782 1203 q 824 1235 814 1222 q 838 1258 833 1247 q 843 1272 843 1269 l 944 1272 q 928 1233 942 1263 q 888 1174 914 1204 q 826 1119 863 1143 q 742 1094 789 1094 z "},"P":{"ha":835,"x_min":14,"x_max":858,"o":"m 224 986 l 621 986 q 721 963 676 986 q 796 902 765 940 q 842 815 826 864 q 858 714 858 765 q 829 576 858 644 q 749 453 800 507 q 631 365 699 399 q 489 331 564 331 l 274 331 l 204 0 l 14 0 l 224 986 m 511 499 q 567 514 540 499 q 616 556 594 529 q 650 619 638 583 q 663 699 663 656 q 636 787 663 756 q 572 818 610 818 l 378 818 l 310 499 l 511 499 z "},"Q":{"ha":1011,"x_min":50,"x_max":992,"o":"m 664 58 q 543 10 606 26 q 414 -7 481 -7 q 258 27 326 -7 q 144 118 190 61 q 74 249 99 175 q 50 403 50 322 q 98 622 50 515 q 226 810 146 728 q 412 943 307 893 q 631 993 517 993 q 785 958 718 993 q 899 867 853 924 q 968 735 944 810 q 992 581 992 660 q 936 344 992 458 q 788 147 881 231 l 885 0 l 703 0 l 664 58 m 453 163 q 517 170 486 163 q 578 192 549 178 l 465 365 l 646 365 l 696 288 q 771 421 744 347 q 797 567 797 494 q 784 665 797 618 q 745 747 771 711 q 681 803 719 782 q 592 824 643 824 q 451 787 515 824 q 342 692 388 750 q 271 561 296 633 q 246 418 246 489 q 258 321 246 367 q 297 240 271 275 q 362 183 324 204 q 453 163 400 163 z "},"R":{"ha":892,"x_min":14,"x_max":878,"o":"m 14 0 l 224 986 l 640 986 q 740 963 696 986 q 815 902 785 940 q 862 815 846 864 q 878 714 878 765 q 860 608 878 660 q 810 510 842 556 q 737 428 779 464 q 644 371 694 392 l 778 0 l 561 0 l 444 331 l 274 331 l 204 0 l 14 0 m 531 499 q 585 515 558 499 q 633 558 613 531 q 667 620 654 585 q 681 694 681 656 q 655 783 681 747 q 592 818 629 818 l 378 818 l 310 499 l 531 499 z "},"Ŕ":{"ha":892,"x_min":14,"x_max":878,"o":"m 606 1086 l 485 1110 l 590 1275 l 763 1275 l 606 1086 m 14 0 l 224 986 l 640 986 q 740 963 696 986 q 815 902 785 940 q 862 815 846 864 q 878 714 878 765 q 860 608 878 660 q 810 510 842 556 q 737 428 779 464 q 644 371 694 392 l 778 0 l 561 0 l 444 331 l 274 331 l 204 0 l 14 0 m 531 499 q 585 515 558 499 q 633 558 613 531 q 667 620 654 585 q 681 694 681 656 q 655 783 681 747 q 592 818 629 818 l 378 818 l 310 499 l 531 499 z "},"Ř":{"ha":892,"x_min":14,"x_max":878,"o":"m 392 1231 l 499 1275 l 592 1188 l 722 1275 l 810 1231 l 638 1090 l 503 1090 l 392 1231 m 14 0 l 224 986 l 640 986 q 740 963 696 986 q 815 902 785 940 q 862 815 846 864 q 878 714 878 765 q 860 608 878 660 q 810 510 842 556 q 737 428 779 464 q 644 371 694 392 l 778 0 l 561 0 l 444 331 l 274 331 l 204 0 l 14 0 m 531 499 q 585 515 558 499 q 633 558 613 531 q 667 620 654 585 q 681 694 681 656 q 655 783 681 747 q 592 818 629 818 l 378 818 l 310 499 l 531 499 z "},"Ŗ":{"ha":892,"x_min":14,"x_max":878,"o":"m 236 -296 l 296 -196 l 240 -196 l 269 -65 l 425 -65 l 399 -196 l 321 -296 l 236 -296 m 14 0 l 224 986 l 640 986 q 740 963 696 986 q 815 902 785 940 q 862 815 846 864 q 878 714 878 765 q 860 608 878 660 q 810 510 842 556 q 737 428 779 464 q 644 371 694 392 l 778 0 l 561 0 l 444 331 l 274 331 l 204 0 l 14 0 m 531 499 q 585 515 558 499 q 633 558 613 531 q 667 620 654 585 q 681 694 681 656 q 655 783 681 747 q 592 818 629 818 l 378 818 l 310 499 l 531 499 z "},"S":{"ha":822,"x_min":-29,"x_max":844,"o":"m 338 -11 q 137 22 233 -11 q -29 117 40 56 l 90 282 q 123 249 97 269 q 187 209 149 229 q 274 175 225 189 q 378 161 324 161 q 502 194 461 161 q 543 281 543 226 q 527 326 543 307 q 483 361 511 346 q 417 390 456 376 q 333 417 379 403 q 175 497 229 449 q 121 629 121 544 q 156 783 121 715 q 248 897 190 850 q 381 969 306 944 q 539 993 457 993 q 715 960 638 993 q 844 883 792 928 l 726 728 q 700 754 721 738 q 648 787 679 771 q 578 814 617 803 q 497 825 539 825 q 372 789 414 825 q 331 693 331 753 q 342 652 331 669 q 378 622 354 635 q 435 597 401 608 q 513 574 468 586 q 613 539 568 558 q 690 492 658 519 q 740 428 722 465 q 757 339 757 390 q 721 179 757 246 q 626 70 685 113 q 492 8 568 28 q 338 -11 417 -11 z "},"Ś":{"ha":822,"x_min":-29,"x_max":844,"o":"m 599 1103 l 478 1126 l 583 1292 l 756 1292 l 599 1103 m 338 -11 q 137 22 233 -11 q -29 117 40 56 l 90 282 q 123 249 97 269 q 187 209 149 229 q 274 175 225 189 q 378 161 324 161 q 502 194 461 161 q 543 281 543 226 q 527 326 543 307 q 483 361 511 346 q 417 390 456 376 q 333 417 379 403 q 175 497 229 449 q 121 629 121 544 q 156 783 121 715 q 248 897 190 850 q 381 969 306 944 q 539 993 457 993 q 715 960 638 993 q 844 883 792 928 l 726 728 q 700 754 721 738 q 648 787 679 771 q 578 814 617 803 q 497 825 539 825 q 372 789 414 825 q 331 693 331 753 q 342 652 331 669 q 378 622 354 635 q 435 597 401 608 q 513 574 468 586 q 613 539 568 558 q 690 492 658 519 q 740 428 722 465 q 757 339 757 390 q 721 179 757 246 q 626 70 685 113 q 492 8 568 28 q 338 -11 417 -11 z "},"Š":{"ha":822,"x_min":-29,"x_max":844,"o":"m 379 1247 l 486 1292 l 579 1204 l 710 1292 l 797 1247 l 625 1107 l 490 1107 l 379 1247 m 338 -11 q 137 22 233 -11 q -29 117 40 56 l 90 282 q 123 249 97 269 q 187 209 149 229 q 274 175 225 189 q 378 161 324 161 q 502 194 461 161 q 543 281 543 226 q 527 326 543 307 q 483 361 511 346 q 417 390 456 376 q 333 417 379 403 q 175 497 229 449 q 121 629 121 544 q 156 783 121 715 q 248 897 190 850 q 381 969 306 944 q 539 993 457 993 q 715 960 638 993 q 844 883 792 928 l 726 728 q 700 754 721 738 q 648 787 679 771 q 578 814 617 803 q 497 825 539 825 q 372 789 414 825 q 331 693 331 753 q 342 652 331 669 q 378 622 354 635 q 435 597 401 608 q 513 574 468 586 q 613 539 568 558 q 690 492 658 519 q 740 428 722 465 q 757 339 757 390 q 721 179 757 246 q 626 70 685 113 q 492 8 568 28 q 338 -11 417 -11 z "},"Ŝ":{"ha":822,"x_min":-29,"x_max":844,"o":"m 371 1151 l 542 1292 l 676 1292 l 788 1151 l 681 1107 l 588 1194 l 457 1107 l 371 1151 m 338 -11 q 137 22 233 -11 q -29 117 40 56 l 90 282 q 123 249 97 269 q 187 209 149 229 q 274 175 225 189 q 378 161 324 161 q 502 194 461 161 q 543 281 543 226 q 527 326 543 307 q 483 361 511 346 q 417 390 456 376 q 333 417 379 403 q 175 497 229 449 q 121 629 121 544 q 156 783 121 715 q 248 897 190 850 q 381 969 306 944 q 539 993 457 993 q 715 960 638 993 q 844 883 792 928 l 726 728 q 700 754 721 738 q 648 787 679 771 q 578 814 617 803 q 497 825 539 825 q 372 789 414 825 q 331 693 331 753 q 342 652 331 669 q 378 622 354 635 q 435 597 401 608 q 513 574 468 586 q 613 539 568 558 q 690 492 658 519 q 740 428 722 465 q 757 339 757 390 q 721 179 757 246 q 626 70 685 113 q 492 8 568 28 q 338 -11 417 -11 z "},"T":{"ha":822,"x_min":106,"x_max":922,"o":"m 401 818 l 106 818 l 140 986 l 922 986 l 886 818 l 592 818 l 418 0 l 226 0 l 401 818 z "},"Ŧ":{"ha":858,"x_min":90,"x_max":939,"o":"m 110 526 l 356 526 l 418 818 l 122 818 l 157 986 l 939 986 l 904 818 l 608 818 l 546 526 l 793 526 l 774 435 l 526 435 l 435 0 l 244 0 l 336 435 l 90 435 l 110 526 z "},"Ť":{"ha":822,"x_min":106,"x_max":922,"o":"m 365 1228 l 472 1272 l 565 1185 l 696 1272 l 783 1228 l 611 1088 l 476 1088 l 365 1228 m 401 818 l 106 818 l 140 986 l 922 986 l 886 818 l 592 818 l 418 0 l 226 0 l 401 818 z "},"Þ":{"ha":810,"x_min":14,"x_max":799,"o":"m 224 986 l 414 986 l 376 808 l 560 808 q 661 785 617 808 q 736 724 706 763 q 783 637 767 686 q 799 536 799 588 q 769 398 799 467 q 690 275 740 329 q 572 187 639 221 q 429 153 504 153 l 236 153 l 204 0 l 14 0 l 224 986 m 456 321 q 512 338 485 321 q 560 381 539 354 q 593 444 581 408 q 606 517 606 479 q 580 606 606 571 q 515 640 554 640 l 340 640 l 272 321 l 456 321 z "},"U":{"ha":1000,"x_min":85,"x_max":1032,"o":"m 410 -7 q 259 19 321 -7 q 158 90 197 44 q 102 195 119 135 q 85 326 85 256 q 103 483 85 403 l 210 986 l 400 986 l 293 483 q 283 420 286 451 q 279 360 279 389 q 288 282 279 318 q 316 219 296 246 q 367 178 336 193 q 444 163 399 163 q 556 190 507 163 q 640 263 604 218 q 699 365 675 307 q 735 483 722 422 l 842 986 l 1032 986 l 925 483 q 861 293 904 382 q 754 138 818 204 q 604 32 690 71 q 410 -7 518 -7 z "},"Ú":{"ha":999,"x_min":85,"x_max":1032,"o":"m 668 1083 l 547 1107 l 653 1272 l 825 1272 l 668 1083 m 410 -7 q 259 19 321 -7 q 158 90 197 44 q 102 195 119 135 q 85 326 85 256 q 103 483 85 403 l 210 986 l 400 986 l 293 483 q 283 420 286 451 q 279 360 279 389 q 288 282 279 318 q 316 219 296 246 q 367 178 336 193 q 444 163 399 163 q 556 190 507 163 q 640 263 604 218 q 699 365 675 307 q 735 483 722 422 l 842 986 l 1032 986 l 925 483 q 861 293 904 382 q 754 138 818 204 q 604 32 690 71 q 410 -7 518 -7 z "},"Ŭ":{"ha":999,"x_min":85,"x_max":1032,"o":"m 410 -7 q 259 19 321 -7 q 158 90 197 44 q 102 195 119 135 q 85 326 85 256 q 103 483 85 403 l 210 986 l 400 986 l 293 483 q 283 420 286 451 q 279 360 279 389 q 288 282 279 318 q 316 219 296 246 q 367 178 336 193 q 444 163 399 163 q 556 190 507 163 q 640 263 604 218 q 699 365 675 307 q 735 483 722 422 l 842 986 l 1032 986 l 925 483 q 861 293 904 382 q 754 138 818 204 q 604 32 690 71 q 410 -7 518 -7 m 638 1169 q 695 1199 667 1169 q 738 1272 724 1228 l 838 1272 q 808 1198 829 1232 q 759 1139 788 1164 q 695 1100 731 1114 q 621 1086 660 1086 q 515 1125 553 1086 q 476 1226 476 1164 q 482 1272 476 1251 l 582 1272 q 578 1244 578 1257 q 594 1191 578 1213 q 638 1169 611 1169 z "},"Û":{"ha":999,"x_min":85,"x_max":1032,"o":"m 438 1132 l 608 1272 l 743 1272 l 854 1132 l 747 1088 l 654 1175 l 524 1088 l 438 1132 m 410 -7 q 259 19 321 -7 q 158 90 197 44 q 102 195 119 135 q 85 326 85 256 q 103 483 85 403 l 210 986 l 400 986 l 293 483 q 283 420 286 451 q 279 360 279 389 q 288 282 279 318 q 316 219 296 246 q 367 178 336 193 q 444 163 399 163 q 556 190 507 163 q 640 263 604 218 q 699 365 675 307 q 735 483 722 422 l 842 986 l 1032 986 l 925 483 q 861 293 904 382 q 754 138 818 204 q 604 32 690 71 q 410 -7 518 -7 z "},"Ü":{"ha":999,"x_min":85,"x_max":1032,"o":"m 429 1099 l 465 1264 l 619 1264 l 583 1099 l 429 1099 m 690 1099 l 725 1264 l 878 1264 l 844 1099 l 690 1099 m 410 -7 q 259 19 321 -7 q 158 90 197 44 q 102 195 119 135 q 85 326 85 256 q 103 483 85 403 l 210 986 l 400 986 l 293 483 q 283 420 286 451 q 279 360 279 389 q 288 282 279 318 q 316 219 296 246 q 367 178 336 193 q 444 163 399 163 q 556 190 507 163 q 640 263 604 218 q 699 365 675 307 q 735 483 722 422 l 842 986 l 1032 986 l 925 483 q 861 293 904 382 q 754 138 818 204 q 604 32 690 71 q 410 -7 518 -7 z "},"Ù":{"ha":999,"x_min":85,"x_max":1032,"o":"m 410 -7 q 259 19 321 -7 q 158 90 197 44 q 102 195 119 135 q 85 326 85 256 q 103 483 85 403 l 210 986 l 400 986 l 293 483 q 283 420 286 451 q 279 360 279 389 q 288 282 279 318 q 316 219 296 246 q 367 178 336 193 q 444 163 399 163 q 556 190 507 163 q 640 263 604 218 q 699 365 675 307 q 735 483 722 422 l 842 986 l 1032 986 l 925 483 q 861 293 904 382 q 754 138 818 204 q 604 32 690 71 q 410 -7 518 -7 m 525 1274 l 696 1274 l 732 1108 l 603 1083 l 525 1274 z "},"Ű":{"ha":999,"x_min":85,"x_max":1032,"o":"m 410 -7 q 259 19 321 -7 q 158 90 197 44 q 102 195 119 135 q 85 326 85 256 q 103 483 85 403 l 210 986 l 400 986 l 293 483 q 283 420 286 451 q 279 360 279 389 q 288 282 279 318 q 316 219 296 246 q 367 178 336 193 q 444 163 399 163 q 556 190 507 163 q 640 263 604 218 q 699 365 675 307 q 735 483 722 422 l 842 986 l 1032 986 l 925 483 q 861 293 904 382 q 754 138 818 204 q 604 32 690 71 q 410 -7 518 -7 m 531 1086 l 438 1108 l 535 1274 l 678 1274 l 531 1086 m 747 1086 l 656 1108 l 751 1274 l 894 1274 l 747 1086 z "},"Ū":{"ha":999,"x_min":85,"x_max":1032,"o":"m 410 -7 q 259 19 321 -7 q 158 90 197 44 q 102 195 119 135 q 85 326 85 256 q 103 483 85 403 l 210 986 l 400 986 l 293 483 q 283 420 286 451 q 279 360 279 389 q 288 282 279 318 q 316 219 296 246 q 367 178 336 193 q 444 163 399 163 q 556 190 507 163 q 640 263 604 218 q 699 365 675 307 q 735 483 722 422 l 842 986 l 1032 986 l 925 483 q 861 293 904 382 q 754 138 818 204 q 604 32 690 71 q 410 -7 518 -7 m 446 1136 l 471 1251 l 868 1251 l 843 1136 l 446 1136 z "},"Ų":{"ha":999,"x_min":85,"x_max":1032,"o":"m 361 -272 q 259 -233 292 -261 q 226 -167 226 -204 q 361 -4 226 -83 q 233 31 286 3 q 148 102 181 58 q 100 203 115 146 q 85 326 85 261 q 103 483 85 403 l 210 986 l 400 986 l 293 483 q 283 420 286 451 q 279 360 279 389 q 288 282 279 318 q 316 219 296 246 q 367 178 336 193 q 444 163 399 163 q 556 190 507 163 q 640 263 604 218 q 699 365 675 307 q 735 483 722 422 l 842 986 l 1032 986 l 925 483 q 867 305 906 389 q 772 156 829 221 q 638 48 714 90 q 468 -4 563 6 q 376 -69 406 -40 q 347 -126 347 -99 q 419 -175 347 -171 l 361 -272 l 361 -272 z "},"Ů":{"ha":999,"x_min":85,"x_max":1032,"o":"m 519 1144 q 564 1239 519 1206 q 676 1272 608 1272 q 758 1249 729 1272 q 788 1186 788 1226 q 744 1092 788 1126 q 631 1058 700 1058 q 549 1081 579 1058 q 519 1144 519 1104 m 664 1215 q 619 1199 638 1215 q 600 1157 600 1182 q 612 1127 600 1139 q 643 1115 624 1115 q 688 1132 667 1115 q 708 1174 708 1149 q 696 1204 708 1193 q 664 1215 683 1215 m 410 -7 q 259 19 321 -7 q 158 90 197 44 q 102 195 119 135 q 85 326 85 256 q 103 483 85 403 l 210 986 l 400 986 l 293 483 q 283 420 286 451 q 279 360 279 389 q 288 282 279 318 q 316 219 296 246 q 367 178 336 193 q 444 163 399 163 q 556 190 507 163 q 640 263 604 218 q 699 365 675 307 q 735 483 722 422 l 842 986 l 1032 986 l 925 483 q 861 293 904 382 q 754 138 818 204 q 604 32 690 71 q 410 -7 518 -7 z "},"Ũ":{"ha":999,"x_min":85,"x_max":1032,"o":"m 410 -7 q 259 19 321 -7 q 158 90 197 44 q 102 195 119 135 q 85 326 85 256 q 103 483 85 403 l 210 986 l 400 986 l 293 483 q 283 420 286 451 q 279 360 279 389 q 288 282 279 318 q 316 219 296 246 q 367 178 336 193 q 444 163 399 163 q 556 190 507 163 q 640 263 604 218 q 699 365 675 307 q 735 483 722 422 l 842 986 l 1032 986 l 925 483 q 861 293 904 382 q 754 138 818 204 q 604 32 690 71 q 410 -7 518 -7 m 721 1094 q 671 1104 692 1094 q 633 1126 650 1114 q 599 1147 615 1138 q 560 1157 582 1157 q 523 1147 538 1157 q 500 1125 508 1138 q 488 1102 492 1113 q 485 1090 485 1092 l 382 1090 q 399 1133 385 1103 q 438 1192 413 1163 q 498 1245 463 1222 q 578 1268 533 1268 q 628 1258 608 1268 q 664 1235 647 1247 q 697 1213 681 1224 q 738 1203 714 1203 q 777 1213 761 1203 q 803 1235 793 1222 q 817 1258 813 1247 q 822 1272 822 1269 l 924 1272 q 907 1233 921 1263 q 867 1174 893 1204 q 805 1119 842 1143 q 721 1094 768 1094 z "},"V":{"ha":897,"x_min":119,"x_max":1008,"o":"m 119 986 l 321 986 l 407 240 l 807 986 l 1008 986 l 436 0 l 275 0 l 119 986 z "},"W":{"ha":1392,"x_min":114,"x_max":1510,"o":"m 114 986 l 321 986 l 415 219 l 593 535 l 532 983 l 708 983 l 742 657 l 913 983 l 1090 983 l 836 535 l 882 219 l 1301 986 l 1510 986 l 921 0 l 761 0 l 690 414 l 443 0 l 283 0 l 114 986 z "},"Ẃ":{"ha":1392,"x_min":114,"x_max":1510,"o":"m 854 1083 l 733 1107 l 839 1272 l 1011 1272 l 854 1083 m 114 986 l 321 986 l 415 219 l 593 535 l 532 983 l 708 983 l 742 657 l 913 983 l 1090 983 l 836 535 l 882 219 l 1301 986 l 1510 986 l 921 0 l 761 0 l 690 414 l 443 0 l 283 0 l 114 986 z "},"Ŵ":{"ha":1392,"x_min":114,"x_max":1510,"o":"m 632 1132 l 803 1272 l 938 1272 l 1049 1132 l 942 1088 l 849 1175 l 718 1088 l 632 1132 m 114 986 l 321 986 l 415 219 l 593 535 l 532 983 l 708 983 l 742 657 l 913 983 l 1090 983 l 836 535 l 882 219 l 1301 986 l 1510 986 l 921 0 l 761 0 l 690 414 l 443 0 l 283 0 l 114 986 z "},"Ẅ":{"ha":1392,"x_min":114,"x_max":1510,"o":"m 618 1099 l 654 1264 l 808 1264 l 772 1099 l 618 1099 m 879 1099 l 914 1264 l 1067 1264 l 1033 1099 l 879 1099 m 114 986 l 321 986 l 415 219 l 593 535 l 532 983 l 708 983 l 742 657 l 913 983 l 1090 983 l 836 535 l 882 219 l 1301 986 l 1510 986 l 921 0 l 761 0 l 690 414 l 443 0 l 283 0 l 114 986 z "},"Ẁ":{"ha":1392,"x_min":114,"x_max":1510,"o":"m 114 986 l 321 986 l 415 219 l 593 535 l 532 983 l 708 983 l 742 657 l 913 983 l 1090 983 l 836 535 l 882 219 l 1301 986 l 1510 986 l 921 0 l 761 0 l 690 414 l 443 0 l 283 0 l 114 986 m 704 1274 l 875 1274 l 911 1108 l 782 1083 l 704 1274 z "},"X":{"ha":860,"x_min":-81,"x_max":983,"o":"m 343 486 l 118 986 l 326 986 l 474 619 l 776 986 l 983 986 l 546 486 l 763 0 l 556 0 l 417 353 l 128 0 l -81 0 l 343 486 z "},"Y":{"ha":860,"x_min":113,"x_max":978,"o":"m 313 347 l 113 986 l 321 986 l 443 511 l 771 986 l 978 986 l 501 344 l 429 0 l 239 0 l 313 347 z "},"Ý":{"ha":860,"x_min":113,"x_max":978,"o":"m 313 347 l 113 986 l 321 986 l 443 511 l 771 986 l 978 986 l 501 344 l 429 0 l 239 0 l 313 347 m 588 1083 l 467 1107 l 572 1272 l 744 1272 l 588 1083 z "},"Ŷ":{"ha":860,"x_min":113,"x_max":978,"o":"m 313 347 l 113 986 l 321 986 l 443 511 l 771 986 l 978 986 l 501 344 l 429 0 l 239 0 l 313 347 m 358 1132 l 529 1272 l 664 1272 l 775 1132 l 668 1088 l 575 1175 l 444 1088 l 358 1132 z "},"Ÿ":{"ha":860,"x_min":113,"x_max":978,"o":"m 313 347 l 113 986 l 321 986 l 443 511 l 771 986 l 978 986 l 501 344 l 429 0 l 239 0 l 313 347 m 357 1099 l 393 1264 l 547 1264 l 511 1099 l 357 1099 m 618 1099 l 653 1264 l 806 1264 l 772 1099 l 618 1099 z "},"Ỳ":{"ha":860,"x_min":113,"x_max":978,"o":"m 313 347 l 113 986 l 321 986 l 443 511 l 771 986 l 978 986 l 501 344 l 429 0 l 239 0 l 313 347 m 446 1274 l 617 1274 l 653 1108 l 524 1083 l 446 1274 z "},"Ỹ":{"ha":860,"x_min":113,"x_max":978,"o":"m 313 347 l 113 986 l 321 986 l 443 511 l 771 986 l 978 986 l 501 344 l 429 0 l 239 0 l 313 347 m 644 1094 q 594 1104 615 1094 q 556 1126 574 1114 q 522 1147 539 1138 q 483 1157 506 1157 q 447 1147 461 1157 q 424 1125 432 1138 q 412 1102 415 1113 q 408 1090 408 1092 l 306 1090 q 322 1133 308 1103 q 361 1192 336 1163 q 422 1245 386 1222 q 501 1268 457 1268 q 551 1258 532 1268 q 588 1235 571 1247 q 621 1213 604 1224 q 661 1203 638 1203 q 701 1213 685 1203 q 726 1235 717 1222 q 741 1258 736 1247 q 746 1272 746 1269 l 847 1272 q 831 1233 844 1263 q 791 1174 817 1204 q 728 1119 765 1143 q 644 1094 692 1094 z "},"Z":{"ha":829,"x_min":-49,"x_max":900,"o":"m -18 144 l 643 818 l 142 818 l 176 986 l 900 986 l 869 842 l 226 168 l 729 168 l 694 0 l -49 0 l -18 144 z "},"Ź":{"ha":829,"x_min":-49,"x_max":900,"o":"m 574 1083 l 453 1107 l 558 1272 l 731 1272 l 574 1083 m -18 144 l 643 818 l 142 818 l 176 986 l 900 986 l 869 842 l 226 168 l 729 168 l 694 0 l -49 0 l -18 144 z "},"Ž":{"ha":829,"x_min":-49,"x_max":900,"o":"m 363 1228 l 469 1272 l 563 1185 l 693 1272 l 781 1228 l 608 1088 l 474 1088 l 363 1228 m -18 144 l 643 818 l 142 818 l 176 986 l 900 986 l 869 842 l 226 168 l 729 168 l 694 0 l -49 0 l -18 144 z "},"Ż":{"ha":829,"x_min":-49,"x_max":900,"o":"m -18 144 l 643 818 l 142 818 l 176 986 l 900 986 l 869 842 l 226 168 l 729 168 l 694 0 l -49 0 l -18 144 m 465 1097 l 503 1272 l 669 1272 l 633 1097 l 465 1097 z "},"a":{"ha":867,"x_min":21,"x_max":833,"o":"m 279 -14 q 170 9 218 -14 q 89 72 122 32 q 38 167 56 113 q 21 285 21 222 q 53 458 21 375 q 141 603 86 540 q 268 703 196 665 q 419 740 340 740 q 547 701 494 740 q 619 600 600 663 l 647 725 l 833 725 l 725 214 q 721 189 721 199 q 754 158 721 160 l 721 0 q 677 -7 696 -4 q 644 -10 658 -10 q 567 11 596 -10 q 539 74 539 32 q 547 126 539 90 q 423 22 494 57 q 279 -14 351 -14 m 363 144 q 413 153 386 144 q 465 179 440 163 q 513 218 490 196 q 550 267 535 240 l 586 440 q 538 542 578 501 q 444 582 497 582 q 358 559 400 582 q 285 498 317 536 q 235 412 254 460 q 217 314 217 364 q 256 193 217 242 q 363 144 294 144 z "},"á":{"ha":867,"x_min":21,"x_max":833,"o":"m 279 -14 q 170 9 218 -14 q 89 72 122 32 q 38 167 56 113 q 21 285 21 222 q 53 458 21 375 q 141 603 86 540 q 268 703 196 665 q 419 740 340 740 q 547 701 494 740 q 619 600 600 663 l 647 725 l 833 725 l 725 214 q 721 189 721 199 q 754 158 721 160 l 721 0 q 677 -7 696 -4 q 644 -10 658 -10 q 567 11 596 -10 q 539 74 539 32 q 547 126 539 90 q 423 22 494 57 q 279 -14 351 -14 m 363 144 q 413 153 386 144 q 465 179 440 163 q 513 218 490 196 q 550 267 535 240 l 586 440 q 538 542 578 501 q 444 582 497 582 q 358 559 400 582 q 285 498 317 536 q 235 412 254 460 q 217 314 217 364 q 256 193 217 242 q 363 144 294 144 m 504 825 l 383 849 l 489 1014 l 661 1014 l 504 825 z "},"ă":{"ha":867,"x_min":21,"x_max":833,"o":"m 279 -14 q 170 9 218 -14 q 89 72 122 32 q 38 167 56 113 q 21 285 21 222 q 53 458 21 375 q 141 603 86 540 q 268 703 196 665 q 419 740 340 740 q 547 701 494 740 q 619 600 600 663 l 647 725 l 833 725 l 725 214 q 721 189 721 199 q 754 158 721 160 l 721 0 q 677 -7 696 -4 q 644 -10 658 -10 q 567 11 596 -10 q 539 74 539 32 q 547 126 539 90 q 423 22 494 57 q 279 -14 351 -14 m 363 144 q 413 153 386 144 q 465 179 440 163 q 513 218 490 196 q 550 267 535 240 l 586 440 q 538 542 578 501 q 444 582 497 582 q 358 559 400 582 q 285 498 317 536 q 235 412 254 460 q 217 314 217 364 q 256 193 217 242 q 363 144 294 144 m 471 911 q 528 940 500 911 q 571 1014 557 969 l 671 1014 q 642 940 663 974 q 592 881 621 906 q 528 842 564 856 q 454 828 493 828 q 348 867 386 828 q 310 968 310 906 q 315 1014 310 993 l 415 1014 q 411 986 411 999 q 428 933 411 954 q 471 911 444 911 z "},"â":{"ha":867,"x_min":21,"x_max":833,"o":"m 279 -14 q 170 9 218 -14 q 89 72 122 32 q 38 167 56 113 q 21 285 21 222 q 53 458 21 375 q 141 603 86 540 q 268 703 196 665 q 419 740 340 740 q 547 701 494 740 q 619 600 600 663 l 647 725 l 833 725 l 725 214 q 721 189 721 199 q 754 158 721 160 l 721 0 q 677 -7 696 -4 q 644 -10 658 -10 q 567 11 596 -10 q 539 74 539 32 q 547 126 539 90 q 423 22 494 57 q 279 -14 351 -14 m 363 144 q 413 153 386 144 q 465 179 440 163 q 513 218 490 196 q 550 267 535 240 l 586 440 q 538 542 578 501 q 444 582 497 582 q 358 559 400 582 q 285 498 317 536 q 235 412 254 460 q 217 314 217 364 q 256 193 217 242 q 363 144 294 144 m 265 874 l 436 1014 l 571 1014 l 682 874 l 575 829 l 482 917 l 351 829 l 265 874 z "},"ä":{"ha":867,"x_min":21,"x_max":833,"o":"m 279 -14 q 170 9 218 -14 q 89 72 122 32 q 38 167 56 113 q 21 285 21 222 q 53 458 21 375 q 141 603 86 540 q 268 703 196 665 q 419 740 340 740 q 547 701 494 740 q 619 600 600 663 l 647 725 l 833 725 l 725 214 q 721 189 721 199 q 754 158 721 160 l 721 0 q 677 -7 696 -4 q 644 -10 658 -10 q 567 11 596 -10 q 539 74 539 32 q 547 126 539 90 q 423 22 494 57 q 279 -14 351 -14 m 363 144 q 413 153 386 144 q 465 179 440 163 q 513 218 490 196 q 550 267 535 240 l 586 440 q 538 542 578 501 q 444 582 497 582 q 358 559 400 582 q 285 498 317 536 q 235 412 254 460 q 217 314 217 364 q 256 193 217 242 q 363 144 294 144 m 260 839 l 296 1004 l 450 1004 l 414 839 l 260 839 m 521 839 l 556 1004 l 708 1004 l 675 839 l 521 839 z "},"æ":{"ha":1242,"x_min":-14,"x_max":1211,"o":"m 183 -14 q 39 40 92 -14 q -14 176 -14 93 q 14 286 -14 236 q 89 373 42 336 q 200 431 136 410 q 336 451 264 451 q 418 444 379 451 q 485 424 457 438 q 501 471 492 450 q 510 515 510 492 q 478 585 510 558 q 385 611 447 611 q 274 590 331 611 q 151 529 217 569 l 121 647 q 432 740 276 740 q 567 713 513 740 q 650 638 622 686 q 772 713 704 685 q 918 740 840 740 q 1045 717 990 740 q 1137 651 1100 693 q 1192 554 1174 610 q 1211 436 1211 499 q 1201 352 1211 383 q 1185 304 1192 321 l 651 304 q 650 288 650 296 q 650 274 650 281 q 662 205 650 233 q 693 158 674 176 q 739 131 713 139 q 793 122 765 122 q 896 149 844 122 q 974 221 947 176 l 1122 176 q 1056 100 1094 135 q 970 40 1017 65 q 870 0 924 14 q 758 -14 817 -14 q 591 27 658 -14 q 492 136 524 68 q 419 67 460 96 q 338 21 379 39 q 256 -6 296 3 q 183 -14 217 -14 m 267 122 q 321 130 292 122 q 377 151 350 138 q 426 181 404 164 q 460 218 449 199 q 458 234 458 225 q 457 253 457 243 q 464 324 457 285 q 406 341 438 335 q 344 347 374 347 q 276 337 308 347 q 219 309 243 326 q 182 267 196 292 q 168 213 168 242 q 193 148 168 174 q 267 122 218 122 m 1021 419 q 1022 437 1022 429 q 1022 454 1022 444 q 986 565 1022 524 q 885 606 950 606 q 754 554 813 606 q 672 419 696 503 l 1021 419 z "},"ǽ":{"ha":1240,"x_min":-15,"x_max":1210,"o":"m 729 825 l 608 849 l 714 1014 l 886 1014 l 729 825 m 182 -14 q 38 40 90 -14 q -15 176 -15 93 q 13 286 -15 236 q 88 373 40 336 q 199 431 135 410 q 335 451 263 451 q 417 444 378 451 q 483 424 456 438 q 499 471 490 450 q 508 515 508 492 q 477 585 508 558 q 383 611 446 611 q 272 590 329 611 q 150 529 215 569 l 119 647 q 431 740 275 740 q 566 713 511 740 q 649 638 621 686 q 771 713 703 685 q 917 740 839 740 q 1044 717 989 740 q 1135 651 1099 693 q 1191 554 1172 610 q 1210 436 1210 499 q 1200 352 1210 383 q 1183 304 1190 321 l 650 304 q 649 288 649 296 q 649 274 649 281 q 660 205 649 233 q 692 158 672 176 q 738 131 711 139 q 792 122 764 122 q 894 149 843 122 q 972 221 946 176 l 1121 176 q 1054 100 1093 135 q 969 40 1015 65 q 869 0 922 14 q 757 -14 815 -14 q 590 27 657 -14 q 490 136 522 68 q 418 67 458 96 q 336 21 378 39 q 255 -6 294 3 q 182 -14 215 -14 m 265 122 q 319 130 290 122 q 376 151 349 138 q 425 181 403 164 q 458 218 447 199 q 456 234 457 225 q 456 253 456 243 q 463 324 456 285 q 404 341 436 335 q 343 347 372 347 q 274 337 307 347 q 218 309 242 326 q 181 267 194 292 q 167 213 167 242 q 192 148 167 174 q 265 122 217 122 m 1019 419 q 1021 437 1021 429 q 1021 454 1021 444 q 985 565 1021 524 q 883 606 949 606 q 753 554 811 606 q 671 419 694 503 l 1019 419 z "},"à":{"ha":867,"x_min":21,"x_max":833,"o":"m 279 -14 q 170 9 218 -14 q 89 72 122 32 q 38 167 56 113 q 21 285 21 222 q 53 458 21 375 q 141 603 86 540 q 268 703 196 665 q 419 740 340 740 q 547 701 494 740 q 619 600 600 663 l 647 725 l 833 725 l 725 214 q 721 189 721 199 q 754 158 721 160 l 721 0 q 677 -7 696 -4 q 644 -10 658 -10 q 567 11 596 -10 q 539 74 539 32 q 547 126 539 90 q 423 22 494 57 q 279 -14 351 -14 m 363 144 q 413 153 386 144 q 465 179 440 163 q 513 218 490 196 q 550 267 535 240 l 586 440 q 538 542 578 501 q 444 582 497 582 q 358 559 400 582 q 285 498 317 536 q 235 412 254 460 q 217 314 217 364 q 256 193 217 242 q 363 144 294 144 m 329 1014 l 500 1014 l 536 849 l 407 824 l 329 1014 z "},"ā":{"ha":867,"x_min":21,"x_max":833,"o":"m 279 -14 q 170 9 218 -14 q 89 72 122 32 q 38 167 56 113 q 21 285 21 222 q 53 458 21 375 q 141 603 86 540 q 268 703 196 665 q 419 740 340 740 q 547 701 494 740 q 619 600 600 663 l 647 725 l 833 725 l 725 214 q 721 189 721 199 q 754 158 721 160 l 721 0 q 677 -7 696 -4 q 644 -10 658 -10 q 567 11 596 -10 q 539 74 539 32 q 547 126 539 90 q 423 22 494 57 q 279 -14 351 -14 m 363 144 q 413 153 386 144 q 465 179 440 163 q 513 218 490 196 q 550 267 535 240 l 586 440 q 538 542 578 501 q 444 582 497 582 q 358 559 400 582 q 285 498 317 536 q 235 412 254 460 q 217 314 217 364 q 256 193 217 242 q 363 144 294 144 m 283 878 l 308 993 l 706 993 l 681 878 l 283 878 z "},"&":{"ha":968,"x_min":21,"x_max":932,"o":"m 554 93 q 415 13 488 40 q 272 -14 343 -14 q 165 6 211 -14 q 86 58 118 25 q 38 134 54 90 q 21 228 21 178 q 40 328 21 283 q 90 411 58 374 q 164 480 122 449 q 253 540 206 511 q 201 638 217 596 q 186 725 186 681 q 211 834 186 783 q 279 921 236 885 q 378 978 322 957 q 494 999 433 999 q 643 954 578 999 q 733 822 708 910 l 604 750 q 553 832 589 803 q 478 861 518 861 q 433 853 454 861 q 396 831 413 844 q 369 797 379 817 q 360 756 360 778 q 379 693 360 728 q 446 590 399 658 l 608 354 q 652 458 633 403 q 682 578 671 514 l 932 578 l 911 444 l 799 444 q 750 333 778 385 q 690 236 722 281 l 856 0 l 618 0 l 554 93 m 321 129 q 485 196 403 129 l 332 421 q 233 341 265 381 q 201 249 201 301 q 236 160 201 190 q 321 129 271 129 z "},"ą":{"ha":867,"x_min":21,"x_max":833,"o":"m 607 -272 q 505 -233 538 -261 q 472 -167 472 -204 q 606 -6 472 -85 q 539 74 539 10 q 547 126 539 90 q 423 22 494 57 q 279 -14 351 -14 q 170 9 218 -14 q 89 72 122 32 q 38 167 56 113 q 21 285 21 222 q 53 458 21 375 q 141 603 86 540 q 268 703 196 665 q 419 740 340 740 q 547 701 494 740 q 619 600 600 663 l 647 725 l 833 725 l 725 214 q 721 189 721 199 q 754 158 721 160 l 721 0 q 593 -126 593 -74 q 665 -175 593 -171 l 607 -272 m 363 144 q 413 153 386 144 q 465 179 440 163 q 513 218 490 196 q 550 267 535 240 l 586 440 q 538 542 578 501 q 444 582 497 582 q 358 559 400 582 q 285 498 317 536 q 235 412 254 460 q 217 314 217 364 q 256 193 217 242 q 363 144 294 144 z "},"ʼ":{"ha":725,"x_min":343,"x_max":621,"o":"m 343 849 l 408 950 l 413 1014 l 621 1014 l 454 813 l 343 849 z "},"å":{"ha":867,"x_min":21,"x_max":833,"o":"m 279 -14 q 170 9 218 -14 q 89 72 122 32 q 38 167 56 113 q 21 285 21 222 q 53 458 21 375 q 141 603 86 540 q 268 703 196 665 q 419 740 340 740 q 547 701 494 740 q 619 600 600 663 l 647 725 l 833 725 l 725 214 q 721 189 721 199 q 754 158 721 160 l 721 0 q 677 -7 696 -4 q 644 -10 658 -10 q 567 11 596 -10 q 539 74 539 32 q 547 126 539 90 q 423 22 494 57 q 279 -14 351 -14 m 363 144 q 413 153 386 144 q 465 179 440 163 q 513 218 490 196 q 550 267 535 240 l 586 440 q 538 542 578 501 q 444 582 497 582 q 358 559 400 582 q 285 498 317 536 q 235 412 254 460 q 217 314 217 364 q 256 193 217 242 q 363 144 294 144 m 343 886 q 388 981 343 947 q 500 1014 432 1014 q 582 991 553 1014 q 611 928 611 968 q 567 834 611 868 q 454 800 524 800 q 373 823 403 800 q 343 886 343 846 m 488 957 q 442 940 461 957 q 424 899 424 924 q 435 869 424 881 q 467 857 447 857 q 511 874 490 857 q 532 915 532 890 q 519 946 532 935 q 488 957 507 957 z "},"ǻ":{"ha":867,"x_min":21,"x_max":833,"o":"m 279 -14 q 170 9 218 -14 q 89 72 122 32 q 38 167 56 113 q 21 285 21 222 q 53 458 21 375 q 141 603 86 540 q 268 703 196 665 q 419 740 340 740 q 547 701 494 740 q 619 600 600 663 l 647 725 l 833 725 l 725 214 q 721 189 721 199 q 754 158 721 160 l 721 0 q 677 -7 696 -4 q 644 -10 658 -10 q 567 11 596 -10 q 539 74 539 32 q 547 126 539 90 q 423 22 494 57 q 279 -14 351 -14 m 363 144 q 413 153 386 144 q 465 179 440 163 q 513 218 490 196 q 550 267 535 240 l 586 440 q 538 542 578 501 q 444 582 497 582 q 358 559 400 582 q 285 498 317 536 q 235 412 254 460 q 217 314 217 364 q 256 193 217 242 q 363 144 294 144 m 553 1042 l 432 1065 l 538 1231 l 710 1231 l 553 1042 m 342 886 q 386 981 342 947 q 499 1014 431 1014 q 581 991 551 1014 q 610 928 610 968 q 566 834 610 868 q 453 800 522 800 q 372 823 401 800 q 342 886 342 846 m 486 957 q 441 940 460 957 q 422 899 422 924 q 434 869 422 881 q 465 857 446 857 q 510 874 489 857 q 531 915 531 890 q 518 946 531 935 q 486 957 506 957 z "},"^":{"ha":818,"x_min":67,"x_max":771,"o":"m 67 421 l 342 986 l 497 986 l 771 421 l 618 421 l 419 829 l 217 421 l 67 421 z "},"~":{"ha":758,"x_min":57,"x_max":699,"o":"m 57 317 q 71 359 58 329 q 109 420 83 389 q 173 476 135 451 q 265 500 211 500 q 332 488 303 500 q 388 463 361 476 q 440 437 414 449 q 496 425 465 425 q 543 435 524 425 q 574 458 563 446 q 592 483 586 471 q 597 497 597 494 l 699 497 q 686 461 699 490 q 647 400 674 432 q 581 342 621 368 q 485 317 540 317 q 419 328 449 317 q 363 353 389 339 q 310 378 336 367 q 256 389 285 389 q 209 378 228 389 q 179 353 190 367 q 164 329 168 340 q 160 317 160 318 l 57 317 l 57 317 z "},"*":{"ha":468,"x_min":163,"x_max":488,"o":"m 167 722 l 249 821 l 163 851 l 204 932 l 290 889 l 307 996 l 406 996 l 376 889 l 481 932 l 488 851 l 389 821 l 431 722 l 349 675 l 311 779 l 228 675 l 167 722 z "},"@":{"ha":1129,"x_min":28,"x_max":1053,"o":"m 803 61 q 872 96 840 61 q 926 183 903 131 q 961 297 949 235 q 974 413 974 358 q 951 549 974 485 q 883 660 928 613 q 774 735 839 707 q 626 763 710 763 q 430 721 524 763 q 265 607 336 679 q 150 438 193 535 q 107 228 107 340 q 129 83 107 149 q 193 -29 151 18 q 295 -102 235 -76 q 432 -128 356 -128 q 536 -115 486 -128 q 644 -75 586 -101 l 653 -147 q 535 -189 594 -175 q 417 -203 475 -203 q 258 -172 329 -203 q 135 -87 186 -142 q 56 46 83 -32 q 28 219 28 124 q 81 466 28 353 q 219 662 133 579 q 417 791 306 744 q 646 838 529 838 q 816 806 740 838 q 944 721 892 775 q 1025 593 997 667 q 1053 435 1053 519 q 1035 288 1053 368 q 981 140 1017 208 q 892 24 946 71 q 768 -22 839 -22 q 694 -1 724 -22 q 665 69 665 21 q 665 82 665 76 q 667 93 665 88 q 560 21 615 46 q 446 -4 504 -4 q 353 15 394 -4 q 283 69 313 35 q 239 150 254 103 q 224 251 224 197 q 252 399 224 328 q 328 524 281 469 q 439 610 376 578 q 568 643 501 643 q 683 609 639 643 q 743 522 728 575 l 763 625 l 857 625 l 764 160 q 760 136 761 149 q 758 114 758 124 q 803 61 758 61 m 486 89 q 598 129 549 89 q 672 231 647 169 l 700 407 q 649 503 686 469 q 563 538 613 538 q 482 517 522 538 q 409 459 442 496 q 356 373 376 422 q 336 268 336 324 q 376 140 336 192 q 486 89 417 89 z "},"ã":{"ha":867,"x_min":21,"x_max":833,"o":"m 279 -14 q 170 9 218 -14 q 89 72 122 32 q 38 167 56 113 q 21 285 21 222 q 53 458 21 375 q 141 603 86 540 q 268 703 196 665 q 419 740 340 740 q 547 701 494 740 q 619 600 600 663 l 647 725 l 833 725 l 725 214 q 721 189 721 199 q 754 158 721 160 l 721 0 q 677 -7 696 -4 q 644 -10 658 -10 q 567 11 596 -10 q 539 74 539 32 q 547 126 539 90 q 423 22 494 57 q 279 -14 351 -14 m 363 144 q 413 153 386 144 q 465 179 440 163 q 513 218 490 196 q 550 267 535 240 l 586 440 q 538 542 578 501 q 444 582 497 582 q 358 559 400 582 q 285 498 317 536 q 235 412 254 460 q 217 314 217 364 q 256 193 217 242 q 363 144 294 144 m 547 836 q 497 846 518 836 q 459 867 476 856 q 425 889 442 879 q 386 899 408 899 q 349 889 364 899 q 326 867 335 879 q 315 844 318 854 q 311 832 311 833 l 208 832 q 225 874 211 844 q 264 934 239 904 q 324 987 289 964 q 404 1010 360 1010 q 454 999 435 1010 q 490 977 474 989 q 524 955 507 965 q 564 944 540 944 q 603 954 588 944 q 629 976 619 964 q 644 1000 639 989 q 649 1014 649 1011 l 750 1014 q 733 975 747 1004 q 694 915 719 946 q 631 860 668 885 q 547 836 594 836 z "},"b":{"ha":850,"x_min":-6,"x_max":806,"o":"m 392 -14 q 257 24 310 -14 q 183 126 204 61 l 157 0 l -6 0 l 210 1014 l 396 1014 l 307 600 q 424 702 356 664 q 568 740 493 740 q 670 717 626 740 q 744 654 714 694 q 790 560 775 614 q 806 446 806 507 q 771 268 806 351 q 678 122 736 185 q 546 23 621 60 q 392 -14 471 -14 m 378 144 q 464 166 422 144 q 538 224 506 188 q 590 309 571 261 q 610 410 610 357 q 601 476 610 444 q 575 531 592 507 q 533 568 558 554 q 476 582 508 582 q 365 541 419 582 q 274 440 310 500 l 236 267 q 283 179 244 214 q 378 144 321 144 z "},"\\":{"ha":839,"x_min":149,"x_max":719,"o":"m 356 986 l 719 0 l 514 0 l 149 986 l 356 986 z "},"|":{"ha":454,"x_min":156,"x_max":314,"o":"m 156 -181 l 156 1076 l 314 1076 l 314 -181 l 156 -181 z "},"{":{"ha":428,"x_min":35,"x_max":494,"o":"m 390 879 l 331 596 q 306 544 324 568 q 263 500 288 519 q 283 467 275 485 q 292 426 292 449 q 291 415 292 419 q 289 404 290 410 l 226 106 l 299 106 l 267 -43 l 57 -43 q 42 -37 50 -43 q 35 -17 35 -32 q 36 -1 35 -7 l 108 343 q 110 353 110 349 q 111 365 111 358 q 97 413 111 393 q 61 436 82 432 l 89 567 q 117 575 103 567 q 144 597 132 583 q 165 626 156 611 q 176 657 174 642 l 246 986 q 265 1020 251 1013 q 285 1028 278 1028 l 494 1028 l 463 879 l 390 879 z "},"}":{"ha":429,"x_min":-32,"x_max":428,"o":"m 164 879 l 196 1028 l 404 1028 q 419 1022 411 1028 q 428 999 428 1017 q 426 986 428 990 l 356 657 q 354 648 354 653 q 354 639 354 643 q 368 589 354 611 q 406 567 382 567 l 376 436 q 323 405 349 431 q 289 343 297 379 l 217 -1 q 198 -35 211 -26 q 176 -43 185 -43 l -32 -43 l -1 106 l 72 106 l 135 404 q 160 456 142 432 q 201 500 178 481 q 182 533 190 515 q 174 572 174 551 q 176 596 174 582 l 238 879 l 164 879 z "},"[":{"ha":419,"x_min":1,"x_max":488,"o":"m 1 -56 l 232 1028 l 488 1028 l 457 879 l 372 879 l 206 93 l 290 93 l 258 -56 l 1 -56 z "},"]":{"ha":419,"x_min":-40,"x_max":447,"o":"m -40 -56 l -8 93 l 76 93 l 243 879 l 158 879 l 190 1028 l 447 1028 l 218 -56 l -40 -56 z "},"¦":{"ha":444,"x_min":150,"x_max":308,"o":"m 308 367 l 308 -181 l 150 -181 l 150 367 l 308 367 m 308 1076 l 308 529 l 150 529 l 150 1076 l 308 1076 z "},"•":{"ha":492,"x_min":115,"x_max":401,"o":"m 401 511 q 387 446 401 476 q 347 392 372 415 q 291 354 322 368 q 226 340 260 340 q 147 375 178 340 q 115 460 115 410 q 131 525 115 494 q 170 579 146 556 q 226 617 194 603 q 289 631 257 631 q 371 595 340 631 q 401 511 401 560 z "},"c":{"ha":753,"x_min":21,"x_max":751,"o":"m 317 -14 q 189 10 244 -14 q 96 76 133 35 q 40 174 58 118 q 21 292 21 229 q 55 459 21 378 q 149 603 89 540 q 294 703 210 665 q 476 740 378 740 q 660 689 592 740 q 751 554 729 638 l 560 499 q 515 560 546 539 q 440 582 485 582 q 356 562 397 582 q 284 506 315 542 q 233 420 253 469 q 214 314 214 371 q 251 192 214 239 q 349 144 288 144 q 437 169 393 144 q 504 231 481 194 l 674 175 q 526 39 619 92 q 317 -14 433 -14 z "},"ć":{"ha":753,"x_min":21,"x_max":751,"o":"m 513 825 l 392 849 l 497 1014 l 669 1014 l 513 825 m 317 -14 q 189 10 244 -14 q 96 76 133 35 q 40 174 58 118 q 21 292 21 229 q 55 459 21 378 q 149 603 89 540 q 294 703 210 665 q 476 740 378 740 q 660 689 592 740 q 751 554 729 638 l 560 499 q 515 560 546 539 q 440 582 485 582 q 356 562 397 582 q 284 506 315 542 q 233 420 253 469 q 214 314 214 371 q 251 192 214 239 q 349 144 288 144 q 437 169 393 144 q 504 231 481 194 l 674 175 q 526 39 619 92 q 317 -14 433 -14 z "},"č":{"ha":753,"x_min":21,"x_max":751,"o":"m 310 969 l 417 1014 l 510 926 l 640 1014 l 728 969 l 556 829 l 421 829 l 310 969 m 317 -14 q 189 10 244 -14 q 96 76 133 35 q 40 174 58 118 q 21 292 21 229 q 55 459 21 378 q 149 603 89 540 q 294 703 210 665 q 476 740 378 740 q 660 689 592 740 q 751 554 729 638 l 560 499 q 515 560 546 539 q 440 582 485 582 q 356 562 397 582 q 284 506 315 542 q 233 420 253 469 q 214 314 214 371 q 251 192 214 239 q 349 144 288 144 q 437 169 393 144 q 504 231 481 194 l 674 175 q 526 39 619 92 q 317 -14 433 -14 z "},"ç":{"ha":753,"x_min":21,"x_max":751,"o":"m 165 -176 q 210 -194 179 -186 q 278 -203 242 -203 q 339 -190 315 -203 q 363 -149 363 -178 q 346 -119 363 -128 q 301 -111 329 -111 q 242 -117 274 -111 q 193 -128 210 -124 l 274 -11 q 164 22 211 -4 q 85 89 117 49 q 37 181 53 129 q 21 292 21 233 q 55 459 21 378 q 149 603 89 540 q 294 703 210 665 q 476 740 378 740 q 660 689 592 740 q 751 554 729 638 l 560 499 q 515 560 546 539 q 440 582 485 582 q 356 562 397 582 q 284 506 315 542 q 233 420 253 469 q 214 314 214 371 q 251 192 214 239 q 349 144 288 144 q 437 169 393 144 q 504 231 481 194 l 674 175 q 540 47 624 99 q 351 -12 456 -4 l 314 -58 q 335 -54 324 -56 q 357 -53 346 -53 q 424 -72 397 -53 q 451 -131 451 -90 q 401 -231 451 -190 q 250 -272 351 -272 q 172 -264 206 -272 q 114 -244 138 -256 l 165 -176 z "},"ĉ":{"ha":753,"x_min":21,"x_max":751,"o":"m 299 874 l 469 1014 l 604 1014 l 715 874 l 608 829 l 515 917 l 385 829 l 299 874 m 317 -14 q 189 10 244 -14 q 96 76 133 35 q 40 174 58 118 q 21 292 21 229 q 55 459 21 378 q 149 603 89 540 q 294 703 210 665 q 476 740 378 740 q 660 689 592 740 q 751 554 729 638 l 560 499 q 515 560 546 539 q 440 582 485 582 q 356 562 397 582 q 284 506 315 542 q 233 420 253 469 q 214 314 214 371 q 251 192 214 239 q 349 144 288 144 q 437 169 393 144 q 504 231 481 194 l 674 175 q 526 39 619 92 q 317 -14 433 -14 z "},"ċ":{"ha":753,"x_min":21,"x_max":751,"o":"m 317 -14 q 189 10 244 -14 q 96 76 133 35 q 40 174 58 118 q 21 292 21 229 q 55 459 21 378 q 149 603 89 540 q 294 703 210 665 q 476 740 378 740 q 660 689 592 740 q 751 554 729 638 l 560 499 q 515 560 546 539 q 440 582 485 582 q 356 562 397 582 q 284 506 315 542 q 233 420 253 469 q 214 314 214 371 q 251 192 214 239 q 349 144 288 144 q 437 169 393 144 q 504 231 481 194 l 674 175 q 526 39 619 92 q 317 -14 433 -14 m 413 839 l 450 1014 l 617 1014 l 581 839 l 413 839 z "},"¢":{"ha":793,"x_min":38,"x_max":769,"o":"m 246 -167 l 279 -12 q 177 19 222 -8 q 101 90 132 47 q 53 185 69 132 q 38 294 38 238 q 65 444 38 371 q 145 579 93 518 q 272 683 197 640 q 439 739 346 725 l 472 896 l 556 896 l 522 739 q 679 689 614 736 q 769 554 744 642 l 576 499 q 542 554 567 535 q 488 576 518 574 l 397 149 q 467 177 431 156 q 522 231 504 199 l 692 175 q 619 92 663 128 q 531 33 576 57 q 440 -2 485 10 q 363 -14 396 -14 l 329 -167 l 246 -167 m 229 310 q 252 215 229 257 q 315 157 275 172 l 403 568 q 335 534 367 560 q 279 472 303 508 q 242 394 256 436 q 229 310 229 351 z "},":":{"ha":339,"x_min":4,"x_max":308,"o":"m 114 519 l 157 719 l 308 719 l 267 519 l 114 519 m 4 0 l 47 200 l 199 200 l 156 0 l 4 0 z "},",":{"ha":319,"x_min":-22,"x_max":194,"o":"m -22 -160 l 51 6 l -7 6 l 35 200 l 194 200 l 153 6 l 63 -160 l -22 -160 z "},"©":{"ha":1188,"x_min":85,"x_max":1135,"o":"m 606 -10 q 398 28 493 -10 q 233 134 303 67 q 124 293 164 201 q 85 493 85 385 q 124 692 85 600 q 233 850 164 783 q 398 955 303 917 q 606 993 493 993 q 817 955 719 993 q 985 850 914 917 q 1095 692 1056 783 q 1135 493 1135 600 q 1095 293 1135 385 q 985 134 1056 201 q 817 28 914 67 q 606 -10 719 -10 m 606 60 q 784 91 701 60 q 928 180 867 122 q 1025 317 990 238 q 1060 492 1060 396 q 1026 662 1060 583 q 931 799 992 740 q 786 890 869 857 q 606 924 703 924 q 428 890 510 924 q 288 799 347 857 q 194 662 228 740 q 160 492 160 583 q 194 322 160 400 q 287 185 228 243 q 428 93 346 126 q 606 60 510 60 m 618 161 q 476 187 540 161 q 365 257 411 213 q 292 362 318 301 q 267 493 267 422 q 289 615 267 556 q 355 722 311 675 q 463 796 399 768 q 614 824 528 824 q 805 776 725 824 q 922 646 885 728 l 742 590 q 683 649 719 633 q 614 665 647 665 q 548 651 576 665 q 499 614 519 638 q 469 559 479 590 q 458 493 458 528 q 472 419 458 451 q 508 365 486 386 q 558 331 531 343 q 615 319 586 319 q 690 340 654 319 q 746 397 726 361 l 926 343 q 882 274 910 307 q 815 217 854 242 q 726 176 775 192 q 618 161 676 161 z "},"d":{"ha":867,"x_min":21,"x_max":894,"o":"m 279 -14 q 170 9 218 -14 q 89 72 122 32 q 38 167 56 113 q 21 285 21 222 q 53 458 21 375 q 141 603 86 540 q 268 703 196 665 q 419 740 340 740 q 547 701 494 740 q 619 600 600 663 l 708 1014 l 894 1014 l 725 214 q 721 189 721 199 q 754 158 721 160 l 721 0 q 677 -7 696 -4 q 644 -10 658 -10 q 567 10 596 -10 q 539 69 539 29 q 541 94 539 81 q 547 126 543 107 q 423 22 494 57 q 279 -14 351 -14 m 363 144 q 413 153 386 144 q 465 179 440 163 q 513 218 490 196 q 550 267 535 240 l 586 440 q 538 542 578 501 q 444 582 497 582 q 358 559 400 582 q 285 498 317 536 q 235 412 254 460 q 217 314 217 364 q 256 193 217 242 q 363 144 294 144 z "},"†":{"ha":624,"x_min":24,"x_max":583,"o":"m 97 -181 l 197 293 l 24 293 l 58 460 l 233 460 l 364 1076 l 540 1076 l 410 460 l 583 460 l 547 293 l 374 293 l 274 -181 l 97 -181 z "},"‡":{"ha":639,"x_min":0,"x_max":628,"o":"m 107 -181 l 174 142 l 0 142 l 36 308 l 210 308 l 243 464 l 69 464 l 104 632 l 279 632 l 374 1076 l 550 1076 l 456 632 l 628 632 l 592 464 l 419 464 l 386 308 l 560 308 l 524 142 l 350 142 l 282 -181 l 107 -181 z "},"ď":{"ha":867,"x_min":21,"x_max":1196,"o":"m 918 849 l 1025 1014 l 1196 1014 l 1031 813 l 918 849 m 279 -14 q 170 9 218 -14 q 89 72 122 32 q 38 167 56 113 q 21 285 21 222 q 53 458 21 375 q 141 603 86 540 q 268 703 196 665 q 419 740 340 740 q 547 701 494 740 q 619 600 600 663 l 708 1014 l 894 1014 l 725 214 q 721 189 721 199 q 754 158 721 160 l 721 0 q 677 -7 696 -4 q 644 -10 658 -10 q 567 10 596 -10 q 539 69 539 29 q 541 94 539 81 q 547 126 543 107 q 423 22 494 57 q 279 -14 351 -14 m 363 144 q 413 153 386 144 q 465 179 440 163 q 513 218 490 196 q 550 267 535 240 l 586 440 q 538 542 578 501 q 444 582 497 582 q 358 559 400 582 q 285 498 317 536 q 235 412 254 460 q 217 314 217 364 q 256 193 217 242 q 363 144 294 144 z "},"đ":{"ha":867,"x_min":21,"x_max":975,"o":"m 576 932 l 690 932 l 708 1014 l 894 1014 l 876 932 l 975 932 l 951 821 l 853 821 l 725 214 q 721 189 721 199 q 754 158 721 160 l 721 0 q 677 -7 696 -4 q 644 -10 658 -10 q 566 12 592 -10 q 540 71 540 33 q 542 92 540 76 q 547 126 543 108 q 423 22 494 57 q 279 -14 351 -14 q 170 9 218 -14 q 89 72 122 32 q 38 167 56 113 q 21 285 21 222 q 53 458 21 375 q 141 603 86 540 q 268 703 196 665 q 419 740 340 740 q 547 701 494 740 q 619 600 600 663 l 667 821 l 553 821 l 576 932 m 363 144 q 413 153 386 144 q 465 179 440 163 q 513 218 490 196 q 550 267 535 240 l 586 440 q 538 542 578 501 q 444 582 497 582 q 358 559 400 582 q 285 498 317 536 q 235 412 254 460 q 217 314 217 364 q 256 193 217 242 q 363 144 294 144 z "},"°":{"ha":386,"x_min":143,"x_max":426,"o":"m 254 721 q 173 751 203 721 q 143 831 143 782 q 156 895 143 864 q 192 951 169 926 q 247 991 215 976 q 315 1006 279 1006 q 397 974 367 1006 q 426 893 426 942 q 413 825 426 857 q 376 770 399 793 q 321 734 353 747 q 254 721 289 721 m 274 811 q 314 830 294 811 q 333 874 333 849 q 322 904 333 893 q 296 915 311 915 q 253 897 272 915 q 235 854 235 878 q 244 823 235 835 q 274 811 254 811 z "},"÷":{"ha":722,"x_min":79,"x_max":640,"o":"m 282 582 l 282 760 l 439 760 l 439 582 l 282 582 m 282 67 l 282 246 l 439 246 l 439 67 l 282 67 m 79 339 l 79 488 l 640 488 l 640 339 l 79 339 z "},"$":{"ha":849,"x_min":-17,"x_max":857,"o":"m 740 728 q 718 751 736 738 q 674 780 700 765 q 613 806 647 794 q 542 822 579 818 l 490 583 q 584 554 535 571 q 674 510 633 538 q 742 442 715 483 q 769 339 769 401 q 736 185 769 249 q 649 78 703 121 q 524 15 594 36 q 378 -10 453 -7 l 346 -162 l 264 -162 l 296 -8 q 124 31 204 -1 q -17 117 43 64 l 103 282 q 130 253 108 271 q 184 217 151 235 q 258 185 217 200 q 346 164 300 169 l 396 401 l 347 417 q 255 453 294 433 q 188 497 215 472 q 147 554 161 522 q 133 629 133 586 q 164 774 133 710 q 246 884 194 838 q 365 958 297 931 q 508 992 433 985 l 539 1132 l 621 1132 l 590 992 q 744 953 676 985 q 857 883 811 922 l 740 728 m 556 281 q 526 341 556 318 q 449 383 497 364 l 401 161 q 517 196 479 164 q 556 281 556 228 m 343 693 q 367 638 343 658 q 439 600 392 617 l 486 824 q 379 783 415 818 q 343 693 343 747 z "},"ı":{"ha":351,"x_min":-6,"x_max":335,"o":"m 149 728 l 335 728 l 181 0 l -6 0 l 149 728 z "},"ȷ":{"ha":351,"x_min":-286,"x_max":335,"o":"m -122 -272 q -215 -256 -172 -272 q -286 -207 -257 -240 l -181 -81 q -151 -103 -169 -96 q -111 -111 -132 -111 q -49 -85 -78 -111 q -11 -19 -19 -60 l 149 728 l 335 728 l 179 -6 q 138 -113 167 -64 q 67 -198 108 -162 q -22 -253 26 -233 q -122 -272 -71 -272 z "},"e":{"ha":765,"x_min":22,"x_max":740,"o":"m 319 -14 q 195 9 250 -14 q 101 73 140 32 q 42 170 63 114 q 22 293 22 226 q 58 465 22 383 q 155 607 93 546 q 301 704 217 668 q 482 740 385 740 q 670 688 600 740 q 740 538 740 636 q 321 303 740 303 q 269 303 296 303 q 214 306 243 303 l 214 288 q 247 168 214 214 q 353 122 281 122 q 458 149 408 122 q 536 222 507 175 l 683 176 q 615 99 656 135 q 527 39 575 64 q 426 0 479 14 q 319 -14 374 -14 m 454 606 q 379 591 414 606 q 317 551 344 576 q 269 493 290 526 q 236 422 249 460 q 279 421 258 421 q 322 421 300 421 q 435 428 389 421 q 510 449 482 435 q 551 481 539 463 q 564 525 564 500 q 533 585 564 565 q 454 606 503 606 z "},"é":{"ha":765,"x_min":22,"x_max":740,"o":"m 514 825 l 393 849 l 499 1014 l 671 1014 l 514 825 m 319 -14 q 195 9 250 -14 q 101 73 140 32 q 42 170 63 114 q 22 293 22 226 q 58 465 22 383 q 155 607 93 546 q 301 704 217 668 q 482 740 385 740 q 670 688 600 740 q 740 538 740 636 q 321 303 740 303 q 269 303 296 303 q 214 306 243 303 l 214 288 q 247 168 214 214 q 353 122 281 122 q 458 149 408 122 q 536 222 507 175 l 683 176 q 615 99 656 135 q 527 39 575 64 q 426 0 479 14 q 319 -14 374 -14 m 454 606 q 379 591 414 606 q 317 551 344 576 q 269 493 290 526 q 236 422 249 460 q 279 421 258 421 q 322 421 300 421 q 435 428 389 421 q 510 449 482 435 q 551 481 539 463 q 564 525 564 500 q 533 585 564 565 q 454 606 503 606 z "},"ĕ":{"ha":765,"x_min":22,"x_max":740,"o":"m 319 -14 q 195 9 250 -14 q 101 73 140 32 q 42 170 63 114 q 22 293 22 226 q 58 465 22 383 q 155 607 93 546 q 301 704 217 668 q 482 740 385 740 q 670 688 600 740 q 740 538 740 636 q 321 303 740 303 q 269 303 296 303 q 214 306 243 303 l 214 288 q 247 168 214 214 q 353 122 281 122 q 458 149 408 122 q 536 222 507 175 l 683 176 q 615 99 656 135 q 527 39 575 64 q 426 0 479 14 q 319 -14 374 -14 m 454 606 q 379 591 414 606 q 317 551 344 576 q 269 493 290 526 q 236 422 249 460 q 279 421 258 421 q 322 421 300 421 q 435 428 389 421 q 510 449 482 435 q 551 481 539 463 q 564 525 564 500 q 533 585 564 565 q 454 606 503 606 m 501 911 q 559 940 531 911 q 601 1014 588 969 l 701 1014 q 672 940 693 974 q 623 881 651 906 q 559 842 594 856 q 485 828 524 828 q 378 867 417 828 q 340 968 340 906 q 346 1014 340 993 l 446 1014 q 442 986 442 999 q 458 933 442 954 q 501 911 475 911 z "},"ě":{"ha":765,"x_min":22,"x_max":740,"o":"m 311 969 l 418 1014 l 511 926 l 642 1014 l 729 969 l 557 829 l 422 829 l 311 969 m 319 -14 q 195 9 250 -14 q 101 73 140 32 q 42 170 63 114 q 22 293 22 226 q 58 465 22 383 q 155 607 93 546 q 301 704 217 668 q 482 740 385 740 q 670 688 600 740 q 740 538 740 636 q 321 303 740 303 q 269 303 296 303 q 214 306 243 303 l 214 288 q 247 168 214 214 q 353 122 281 122 q 458 149 408 122 q 536 222 507 175 l 683 176 q 615 99 656 135 q 527 39 575 64 q 426 0 479 14 q 319 -14 374 -14 m 454 606 q 379 591 414 606 q 317 551 344 576 q 269 493 290 526 q 236 422 249 460 q 279 421 258 421 q 322 421 300 421 q 435 428 389 421 q 510 449 482 435 q 551 481 539 463 q 564 525 564 500 q 533 585 564 565 q 454 606 503 606 z "},"ê":{"ha":765,"x_min":22,"x_max":740,"o":"m 303 874 l 474 1014 l 608 1014 l 719 874 l 613 829 l 519 917 l 389 829 l 303 874 m 319 -14 q 195 9 250 -14 q 101 73 140 32 q 42 170 63 114 q 22 293 22 226 q 58 465 22 383 q 155 607 93 546 q 301 704 217 668 q 482 740 385 740 q 670 688 600 740 q 740 538 740 636 q 321 303 740 303 q 269 303 296 303 q 214 306 243 303 l 214 288 q 247 168 214 214 q 353 122 281 122 q 458 149 408 122 q 536 222 507 175 l 683 176 q 615 99 656 135 q 527 39 575 64 q 426 0 479 14 q 319 -14 374 -14 m 454 606 q 379 591 414 606 q 317 551 344 576 q 269 493 290 526 q 236 422 249 460 q 279 421 258 421 q 322 421 300 421 q 435 428 389 421 q 510 449 482 435 q 551 481 539 463 q 564 525 564 500 q 533 585 564 565 q 454 606 503 606 z "},"ë":{"ha":765,"x_min":22,"x_max":740,"o":"m 289 839 l 325 1004 l 479 1004 l 443 839 l 289 839 m 550 839 l 585 1004 l 738 1004 l 704 839 l 550 839 m 319 -14 q 195 9 250 -14 q 101 73 140 32 q 42 170 63 114 q 22 293 22 226 q 58 465 22 383 q 155 607 93 546 q 301 704 217 668 q 482 740 385 740 q 670 688 600 740 q 740 538 740 636 q 321 303 740 303 q 269 303 296 303 q 214 306 243 303 l 214 288 q 247 168 214 214 q 353 122 281 122 q 458 149 408 122 q 536 222 507 175 l 683 176 q 615 99 656 135 q 527 39 575 64 q 426 0 479 14 q 319 -14 374 -14 m 454 606 q 379 591 414 606 q 317 551 344 576 q 269 493 290 526 q 236 422 249 460 q 279 421 258 421 q 322 421 300 421 q 435 428 389 421 q 510 449 482 435 q 551 481 539 463 q 564 525 564 500 q 533 585 564 565 q 454 606 503 606 z "},"ė":{"ha":765,"x_min":22,"x_max":740,"o":"m 319 -14 q 195 9 250 -14 q 101 73 140 32 q 42 170 63 114 q 22 293 22 226 q 58 465 22 383 q 155 607 93 546 q 301 704 217 668 q 482 740 385 740 q 670 688 600 740 q 740 538 740 636 q 321 303 740 303 q 269 303 296 303 q 214 306 243 303 l 214 288 q 247 168 214 214 q 353 122 281 122 q 458 149 408 122 q 536 222 507 175 l 683 176 q 615 99 656 135 q 527 39 575 64 q 426 0 479 14 q 319 -14 374 -14 m 454 606 q 379 591 414 606 q 317 551 344 576 q 269 493 290 526 q 236 422 249 460 q 279 421 258 421 q 322 421 300 421 q 435 428 389 421 q 510 449 482 435 q 551 481 539 463 q 564 525 564 500 q 533 585 564 565 q 454 606 503 606 m 414 839 l 451 1014 l 618 1014 l 582 839 l 414 839 z "},"è":{"ha":765,"x_min":22,"x_max":740,"o":"m 319 -14 q 195 9 250 -14 q 101 73 140 32 q 42 170 63 114 q 22 293 22 226 q 58 465 22 383 q 155 607 93 546 q 301 704 217 668 q 482 740 385 740 q 670 688 600 740 q 740 538 740 636 q 321 303 740 303 q 269 303 296 303 q 214 306 243 303 l 214 288 q 247 168 214 214 q 353 122 281 122 q 458 149 408 122 q 536 222 507 175 l 683 176 q 615 99 656 135 q 527 39 575 64 q 426 0 479 14 q 319 -14 374 -14 m 454 606 q 379 591 414 606 q 317 551 344 576 q 269 493 290 526 q 236 422 249 460 q 279 421 258 421 q 322 421 300 421 q 435 428 389 421 q 510 449 482 435 q 551 481 539 463 q 564 525 564 500 q 533 585 564 565 q 454 606 503 606 m 375 1014 l 546 1014 l 582 849 l 453 824 l 375 1014 z "},"₈":{"ha":565,"x_min":-35,"x_max":479,"o":"m 446 78 q 422 -3 446 33 q 360 -67 399 -40 q 270 -110 321 -94 q 167 -125 219 -125 q 85 -113 122 -125 q 22 -80 49 -101 q -20 -30 -6 -58 q -35 32 -35 -1 q -23 90 -35 65 q 9 135 -11 115 q 56 170 29 156 q 110 196 82 185 q 62 232 82 208 q 42 290 42 256 q 65 362 42 329 q 125 418 89 394 q 206 455 161 442 q 292 468 250 468 q 360 458 326 468 q 421 431 394 449 q 463 387 447 413 q 479 331 479 361 q 444 249 479 282 q 361 196 410 215 q 422 148 397 178 q 446 78 446 118 m 335 75 q 301 127 335 108 q 224 146 268 146 q 172 140 197 146 q 126 122 146 133 q 93 93 106 110 q 81 56 81 76 q 115 4 81 24 q 192 -15 149 -15 q 242 -8 217 -15 q 289 10 268 -1 q 322 39 310 22 q 335 75 335 56 m 150 292 q 179 251 150 265 q 243 236 208 236 q 285 241 264 236 q 324 255 306 246 q 353 277 342 264 q 364 307 364 290 q 336 347 364 332 q 269 361 308 361 q 226 356 247 361 q 188 342 204 351 q 160 321 171 333 q 150 292 150 308 z "},"⁸":{"ha":563,"x_min":104,"x_max":618,"o":"m 585 740 q 561 660 585 697 q 499 597 538 624 q 410 554 460 569 q 307 539 360 539 q 225 551 263 539 q 160 583 188 563 q 119 633 133 604 q 104 694 104 661 q 117 753 104 728 q 149 799 129 779 q 196 833 169 818 q 250 860 222 849 q 201 895 221 872 q 181 954 181 918 q 204 1026 181 993 q 265 1082 228 1058 q 346 1119 301 1106 q 432 1132 390 1132 q 501 1122 467 1132 q 560 1094 535 1113 q 602 1049 586 1075 q 618 993 618 1024 q 583 911 618 944 q 500 860 549 878 q 561 811 538 840 q 585 740 585 782 m 474 739 q 440 791 474 772 q 364 810 407 810 q 310 803 336 810 q 265 784 285 796 q 232 756 244 772 q 219 719 219 739 q 254 667 219 686 q 332 649 289 649 q 383 656 357 649 q 428 674 408 663 q 461 703 449 686 q 474 739 474 719 m 290 956 q 319 915 290 929 q 383 900 349 900 q 424 905 403 900 q 463 919 446 910 q 492 940 481 928 q 504 969 504 953 q 476 1010 504 996 q 410 1025 449 1025 q 327 1006 364 1025 q 290 956 290 988 z "},"…":{"ha":824,"x_min":-8,"x_max":699,"o":"m -8 0 l 35 200 l 188 200 l 144 0 l -8 0 m 249 0 l 290 200 l 443 200 l 400 0 l 249 0 m 503 0 l 546 200 l 699 200 l 657 0 l 503 0 z "},"ē":{"ha":765,"x_min":22,"x_max":740,"o":"m 319 -14 q 195 9 250 -14 q 101 73 140 32 q 42 170 63 114 q 22 293 22 226 q 58 465 22 383 q 155 607 93 546 q 301 704 217 668 q 482 740 385 740 q 670 688 600 740 q 740 538 740 636 q 321 303 740 303 q 269 303 296 303 q 214 306 243 303 l 214 288 q 247 168 214 214 q 353 122 281 122 q 458 149 408 122 q 536 222 507 175 l 683 176 q 615 99 656 135 q 527 39 575 64 q 426 0 479 14 q 319 -14 374 -14 m 454 606 q 379 591 414 606 q 317 551 344 576 q 269 493 290 526 q 236 422 249 460 q 279 421 258 421 q 322 421 300 421 q 435 428 389 421 q 510 449 482 435 q 551 481 539 463 q 564 525 564 500 q 533 585 564 565 q 454 606 503 606 m 301 878 l 326 993 l 724 993 l 699 878 l 301 878 z "},"—":{"ha":1236,"x_min":53,"x_max":1167,"o":"m 53 297 l 89 465 l 1167 465 l 1131 297 l 53 297 z "},"–":{"ha":808,"x_min":53,"x_max":739,"o":"m 53 297 l 89 465 l 739 465 l 704 297 l 53 297 z "},"ŋ":{"ha":808,"x_min":-6,"x_max":754,"o":"m 340 -272 q 249 -256 290 -272 q 178 -207 207 -240 l 283 -81 q 313 -103 294 -96 q 353 -111 332 -111 q 415 -86 385 -111 q 454 -19 446 -61 l 544 408 q 551 448 549 429 q 554 482 554 467 q 533 553 554 531 q 475 576 511 576 q 421 565 450 576 q 364 534 392 554 q 312 486 336 514 q 271 425 288 458 l 181 0 l -6 0 l 149 728 l 317 728 l 288 593 q 421 701 340 663 q 592 740 501 740 q 670 727 639 740 q 720 692 701 714 q 747 639 739 669 q 754 574 754 608 q 751 515 754 546 q 740 454 747 485 l 642 -6 q 599 -113 629 -64 q 529 -198 569 -162 q 440 -253 489 -233 q 340 -272 392 -272 z "},"ę":{"ha":765,"x_min":22,"x_max":740,"o":"m 282 -279 q 180 -240 213 -268 q 147 -174 147 -211 q 282 -11 147 -90 q 173 19 221 -6 q 92 85 125 44 q 40 178 58 125 q 22 293 22 231 q 58 465 22 383 q 155 607 93 546 q 301 704 217 668 q 482 740 385 740 q 670 688 600 740 q 740 538 740 636 q 321 303 740 303 q 269 303 296 303 q 214 306 243 303 l 214 288 q 247 168 214 214 q 353 122 281 122 q 458 149 408 122 q 536 222 507 175 l 683 176 q 560 57 636 106 q 396 -7 483 8 q 268 -133 268 -81 q 340 -182 268 -178 l 282 -279 m 454 606 q 379 591 414 606 q 317 551 344 576 q 269 493 290 526 q 236 422 249 460 q 279 421 258 421 q 322 421 300 421 q 435 428 389 421 q 510 449 482 435 q 551 481 539 463 q 564 525 564 500 q 533 585 564 565 q 454 606 503 606 z "},"=":{"ha":674,"x_min":111,"x_max":546,"o":"m 111 200 l 111 321 l 546 321 l 546 200 l 111 200 m 111 446 l 111 567 l 546 567 l 546 446 l 111 446 z "},"ð":{"ha":822,"x_min":17,"x_max":808,"o":"m 808 917 l 697 860 q 763 695 742 783 q 785 521 785 607 q 747 300 785 399 q 645 131 710 201 q 495 24 581 61 q 313 -14 410 -14 q 191 7 246 -14 q 97 65 136 28 q 38 154 58 103 q 17 265 17 206 q 50 415 17 344 q 139 540 83 486 q 266 624 194 593 q 413 656 338 656 q 531 626 479 656 q 610 547 583 596 q 592 674 607 614 q 543 793 576 735 l 414 725 l 376 797 l 496 861 q 419 938 464 900 q 317 1014 375 976 l 553 1014 q 605 974 581 996 q 650 926 629 951 l 771 990 l 808 917 m 210 289 q 247 185 210 226 q 349 144 285 144 q 432 163 392 144 q 502 210 472 181 q 550 280 532 240 q 568 364 568 319 q 531 466 568 426 q 428 506 493 506 q 345 488 385 506 q 276 442 306 471 q 228 373 246 413 q 210 289 210 333 z "},"ẽ":{"ha":765,"x_min":22,"x_max":781,"o":"m 319 -14 q 195 9 250 -14 q 101 73 140 32 q 42 170 63 114 q 22 293 22 226 q 58 465 22 383 q 155 607 93 546 q 301 704 217 668 q 482 740 385 740 q 670 688 600 740 q 740 538 740 636 q 321 303 740 303 q 269 303 296 303 q 214 306 243 303 l 214 288 q 247 168 214 214 q 353 122 281 122 q 458 149 408 122 q 536 222 507 175 l 683 176 q 615 99 656 135 q 527 39 575 64 q 426 0 479 14 q 319 -14 374 -14 m 454 606 q 379 591 414 606 q 317 551 344 576 q 269 493 290 526 q 236 422 249 460 q 279 421 258 421 q 322 421 300 421 q 435 428 389 421 q 510 449 482 435 q 551 481 539 463 q 564 525 564 500 q 533 585 564 565 q 454 606 503 606 m 578 836 q 528 846 549 836 q 490 867 507 856 q 456 889 472 879 q 417 899 439 899 q 380 889 394 899 q 357 867 365 879 q 345 844 349 854 q 342 832 342 833 l 239 832 q 256 874 242 844 q 294 934 269 904 q 355 987 319 964 q 435 1010 390 1010 q 485 999 465 1010 q 521 977 504 989 q 554 955 538 965 q 594 944 571 944 q 634 954 618 944 q 660 976 650 964 q 674 1000 669 989 q 679 1014 679 1011 l 781 1014 q 764 975 778 1004 q 724 915 750 946 q 662 860 699 885 q 578 836 625 836 z "},"!":{"ha":403,"x_min":19,"x_max":417,"o":"m 99 371 l 231 996 l 417 996 l 285 371 l 99 371 m 19 0 l 64 210 l 250 210 l 206 0 l 19 0 z "},"¡":{"ha":403,"x_min":18,"x_max":415,"o":"m 338 618 l 204 -7 l 18 -7 l 151 618 l 338 618 m 415 989 l 371 779 l 185 779 l 229 989 l 415 989 z "},"f":{"ha":501,"x_min":-29,"x_max":650,"o":"m 150 547 l 61 547 l 92 689 l 181 689 l 190 733 q 232 856 204 801 q 299 948 260 910 q 385 1007 338 986 q 486 1028 433 1028 q 650 985 571 1028 l 585 844 q 542 863 567 856 q 494 871 517 871 q 378 740 406 871 l 367 689 l 533 689 l 503 547 l 336 547 l 157 -294 l -29 -294 l 150 547 z "},"ﬀ":{"ha":863,"x_min":35,"x_max":1008,"o":"m 150 547 l 61 547 l 92 689 l 181 689 l 185 707 q 225 813 199 764 q 290 899 251 863 q 376 957 328 936 q 479 978 424 978 q 565 967 524 978 q 644 938 606 956 q 735 1003 685 979 q 849 1028 786 1028 q 936 1014 899 1028 q 1008 985 974 1000 l 942 844 q 903 862 925 854 q 854 869 882 869 q 770 831 801 869 q 728 740 739 792 l 717 689 l 894 689 l 865 547 l 688 547 l 571 0 l 385 0 l 501 547 l 336 547 l 221 0 l 35 0 l 150 547 m 531 689 q 545 746 536 715 q 565 800 554 776 q 525 815 547 811 q 483 819 503 819 q 407 790 435 819 q 371 713 379 760 l 367 689 l 531 689 z "},"ﬃ":{"ha":1117,"x_min":35,"x_max":1131,"o":"m 150 547 l 61 547 l 92 689 l 181 689 l 185 707 q 224 812 197 763 q 288 898 250 861 q 375 956 326 935 q 479 978 424 978 q 565 967 524 978 q 644 938 606 956 q 751 1003 689 979 q 888 1028 813 1028 q 1017 1003 956 1028 q 1131 938 1078 978 l 1028 799 q 958 849 1000 829 q 872 869 915 869 q 775 831 811 869 q 728 740 739 792 l 717 689 l 1092 689 l 946 0 l 758 0 l 875 547 l 688 547 l 571 0 l 385 0 l 501 547 l 336 547 l 221 0 l 35 0 l 150 547 m 531 689 q 545 746 536 715 q 565 800 554 776 q 525 815 547 811 q 483 819 503 819 q 408 788 435 819 q 371 713 381 757 l 367 689 l 531 689 z "},"ﬄ":{"ha":1231,"x_min":35,"x_max":1158,"o":"m 971 -11 q 858 24 896 -11 q 819 113 819 60 q 822 136 819 125 q 828 164 824 147 l 947 724 q 954 782 954 758 q 935 844 954 819 q 867 869 917 869 q 813 857 836 869 q 772 822 790 844 q 742 772 754 800 q 724 711 731 743 l 718 689 l 831 689 l 800 547 l 688 547 l 572 0 l 386 0 l 501 547 l 336 547 l 221 0 l 35 0 l 150 547 l 61 547 l 92 689 l 181 689 l 185 707 q 225 813 197 764 q 291 899 253 863 q 378 957 329 936 q 482 978 426 978 q 567 967 528 978 q 644 938 607 956 q 899 1028 742 1028 q 1088 974 1028 1028 q 1149 829 1149 919 q 1140 756 1149 794 l 1029 238 q 1027 225 1028 231 q 1026 213 1026 219 q 1037 173 1026 190 q 1075 156 1047 156 q 1100 158 1086 156 q 1126 165 1114 161 q 1148 171 1139 168 q 1158 174 1157 174 l 1149 24 q 1131 17 1147 22 q 1089 5 1114 11 q 1033 -6 1064 -1 q 971 -11 1001 -11 m 532 689 q 547 748 539 717 q 564 801 554 779 q 526 816 546 813 q 488 819 506 819 q 410 788 442 819 q 371 714 379 756 l 367 689 l 532 689 z "},"ﬁ":{"ha":767,"x_min":35,"x_max":781,"o":"m 150 547 l 61 547 l 92 689 l 181 689 l 190 733 q 233 847 203 793 q 310 941 264 901 q 414 1004 356 981 q 539 1028 472 1028 q 672 1002 614 1028 q 781 938 731 976 l 678 799 q 606 850 649 831 q 518 869 564 869 q 424 831 460 869 q 378 740 389 792 l 367 689 l 742 689 l 594 0 l 408 0 l 524 547 l 336 547 l 221 0 l 35 0 l 150 547 z "},"ﬂ":{"ha":879,"x_min":35,"x_max":807,"o":"m 619 -11 q 507 24 544 -11 q 469 113 469 60 q 475 160 469 133 l 594 718 q 603 783 603 756 q 585 844 603 819 q 519 869 568 869 q 422 826 457 869 q 372 714 388 783 l 367 689 l 479 689 l 450 547 l 336 547 l 221 0 l 35 0 l 150 547 l 61 547 l 92 689 l 181 689 l 194 750 q 317 956 224 885 q 547 1028 410 1028 q 737 974 676 1028 q 797 829 797 919 q 789 756 797 794 l 679 238 q 677 225 678 231 q 676 213 676 219 q 687 173 676 190 q 724 156 697 156 q 749 158 735 156 q 776 165 764 161 q 798 171 789 168 q 807 174 807 174 l 797 24 q 779 17 796 22 q 738 5 763 11 q 681 -6 713 -1 q 619 -11 650 -11 z "},"⅝":{"ha":1231,"x_min":68,"x_max":1163,"o":"m 368 808 q 501 765 451 808 q 550 651 550 721 q 527 560 550 601 q 465 487 504 518 q 372 438 425 456 q 261 421 319 421 q 140 448 192 421 q 68 521 89 475 l 150 594 q 206 545 169 563 q 290 528 242 528 q 392 556 349 528 q 436 642 436 585 q 406 705 436 685 q 343 725 376 725 q 271 708 308 725 q 211 663 233 690 l 115 663 q 151 747 131 700 q 192 842 171 794 q 233 935 214 890 q 265 1014 253 981 l 588 1014 l 564 904 l 322 904 l 265 783 q 308 801 282 794 q 368 808 333 808 m 142 65 l 610 522 l 1053 997 l 1121 922 l 664 472 l 208 -10 l 142 65 m 850 -7 q 769 5 806 -7 q 705 38 732 17 q 663 87 678 58 q 649 149 649 115 q 660 208 649 182 q 692 253 672 233 q 739 288 713 272 q 793 314 765 303 q 744 349 764 326 q 725 408 725 372 q 749 480 725 447 q 808 535 772 513 q 889 572 844 558 q 975 585 933 585 q 1044 575 1010 585 q 1104 547 1078 565 q 1147 503 1131 529 q 1163 447 1163 478 q 1128 365 1163 399 q 1044 314 1093 332 q 1105 265 1081 294 q 1129 194 1129 236 q 1106 115 1129 151 q 1043 51 1082 78 q 953 8 1004 24 q 850 -7 903 -7 m 875 103 q 926 109 900 103 q 972 127 951 115 q 1006 156 993 139 q 1018 193 1018 172 q 985 244 1018 225 q 907 264 951 264 q 855 257 881 264 q 808 238 829 250 q 775 210 788 226 q 763 174 763 193 q 797 122 763 140 q 875 103 832 103 m 926 354 q 968 359 947 354 q 1007 373 989 364 q 1036 394 1025 382 q 1047 424 1047 407 q 1019 464 1047 449 q 953 479 992 479 q 909 474 931 479 q 871 460 888 469 q 844 438 854 450 q 833 408 833 425 q 863 369 833 383 q 926 354 892 354 z "},"⁄":{"ha":278,"x_min":-333,"x_max":646,"o":"m -333 65 l 135 522 l 578 997 l 646 922 l 189 472 l -267 -10 l -333 65 z "},"⁵":{"ha":529,"x_min":81,"x_max":600,"o":"m 379 925 q 512 882 463 925 q 561 769 561 839 q 538 677 561 719 q 476 604 515 635 q 383 556 436 574 q 272 539 331 539 q 151 565 203 539 q 81 638 100 592 l 161 711 q 217 662 181 679 q 303 644 253 644 q 405 674 361 644 q 449 760 449 703 q 419 823 449 803 q 354 843 389 843 q 282 825 319 843 q 224 779 244 807 l 126 779 q 163 864 142 817 q 204 960 183 911 q 245 1053 225 1008 q 278 1132 265 1099 l 600 1132 l 576 1022 l 333 1022 l 276 900 q 320 918 294 911 q 379 925 346 925 z "},"₅":{"ha":531,"x_min":-60,"x_max":460,"o":"m 240 263 q 372 219 322 263 q 422 106 422 175 q 399 14 422 56 q 337 -59 376 -28 q 244 -108 297 -90 q 133 -125 192 -125 q 13 -98 64 -125 q -60 -26 -39 -71 l 21 47 q 77 -1 40 17 q 163 -19 114 -19 q 265 10 221 -19 q 308 96 308 39 q 278 159 308 139 q 214 179 249 179 q 143 162 181 179 q 83 117 106 144 l -14 117 q 22 201 1 154 q 64 297 43 249 q 105 390 85 344 q 138 468 125 435 l 460 468 l 436 358 l 194 358 l 138 238 q 180 255 154 247 q 240 263 206 263 z "},"ƒ":{"ha":731,"x_min":-92,"x_max":804,"o":"m 72 -272 q -20 -256 22 -272 q -92 -207 -62 -240 l 14 -81 q 44 -103 25 -96 q 83 -111 63 -111 q 146 -85 117 -111 q 183 -19 175 -60 l 294 500 l 206 500 l 235 643 l 325 643 l 344 733 q 387 856 358 801 q 453 948 415 910 q 540 1007 492 986 q 640 1028 588 1028 q 804 985 725 1028 l 739 844 q 696 863 721 856 q 647 871 671 871 q 532 740 560 871 l 511 643 l 678 643 l 647 500 l 481 500 l 371 -15 q 329 -119 358 -72 q 260 -201 300 -167 q 171 -253 219 -235 q 72 -272 122 -272 z "},"₄":{"ha":549,"x_min":-57,"x_max":449,"o":"m 207 -117 l 235 11 l -57 11 l -33 119 l 365 468 l 440 468 l 367 119 l 449 119 l 425 11 l 343 11 l 317 -117 l 207 -117 m 72 119 l 261 119 l 307 333 l 72 119 z "},"⁴":{"ha":550,"x_min":86,"x_max":590,"o":"m 350 547 l 376 675 l 86 675 l 108 782 l 507 1132 l 583 1132 l 508 783 l 590 783 l 567 675 l 486 675 l 458 547 l 350 547 m 214 783 l 404 783 l 449 996 l 214 783 z "},"g":{"ha":849,"x_min":-69,"x_max":833,"o":"m 225 -310 q 41 -270 111 -310 q -69 -158 -29 -231 l 53 -60 q 133 -140 81 -111 q 254 -169 186 -169 q 334 -158 294 -169 q 406 -121 374 -146 q 463 -57 439 -96 q 499 35 488 -18 l 518 126 q 403 30 471 64 q 264 -4 335 -4 q 161 19 206 -4 q 85 81 117 42 q 38 172 54 119 q 22 286 22 225 q 56 459 22 376 q 145 604 89 542 q 276 703 201 667 q 433 740 350 740 q 566 702 514 740 q 643 600 618 664 l 669 728 l 833 728 l 685 35 q 626 -110 668 -46 q 522 -218 583 -174 q 385 -286 461 -262 q 225 -310 310 -310 m 360 144 q 466 181 414 144 q 549 267 518 217 l 585 440 q 535 543 575 504 q 442 582 494 582 q 355 558 396 582 q 283 497 314 535 q 233 410 251 458 q 215 314 215 363 q 226 247 215 278 q 255 194 236 217 q 300 158 274 171 q 360 144 326 144 z "},"ğ":{"ha":849,"x_min":-69,"x_max":833,"o":"m 225 -310 q 41 -270 111 -310 q -69 -158 -29 -231 l 53 -60 q 133 -140 81 -111 q 254 -169 186 -169 q 334 -158 294 -169 q 406 -121 374 -146 q 463 -57 439 -96 q 499 35 488 -18 l 518 126 q 403 30 471 64 q 264 -4 335 -4 q 161 19 206 -4 q 85 81 117 42 q 38 172 54 119 q 22 286 22 225 q 56 459 22 376 q 145 604 89 542 q 276 703 201 667 q 433 740 350 740 q 566 702 514 740 q 643 600 618 664 l 669 728 l 833 728 l 685 35 q 626 -110 668 -46 q 522 -218 583 -174 q 385 -286 461 -262 q 225 -310 310 -310 m 360 144 q 466 181 414 144 q 549 267 518 217 l 585 440 q 535 543 575 504 q 442 582 494 582 q 355 558 396 582 q 283 497 314 535 q 233 410 251 458 q 215 314 215 363 q 226 247 215 278 q 255 194 236 217 q 300 158 274 171 q 360 144 326 144 m 489 911 q 547 940 518 911 q 589 1014 575 969 l 689 1014 q 660 940 681 974 q 610 881 639 906 q 547 842 582 856 q 472 828 511 828 q 366 867 404 828 q 328 968 328 906 q 333 1014 328 993 l 433 1014 q 429 986 429 999 q 446 933 429 954 q 489 911 463 911 z "},"ĝ":{"ha":849,"x_min":-69,"x_max":833,"o":"m 285 874 l 456 1014 l 590 1014 l 701 874 l 594 829 l 501 917 l 371 829 l 285 874 m 225 -310 q 41 -270 111 -310 q -69 -158 -29 -231 l 53 -60 q 133 -140 81 -111 q 254 -169 186 -169 q 334 -158 294 -169 q 406 -121 374 -146 q 463 -57 439 -96 q 499 35 488 -18 l 518 126 q 403 30 471 64 q 264 -4 335 -4 q 161 19 206 -4 q 85 81 117 42 q 38 172 54 119 q 22 286 22 225 q 56 459 22 376 q 145 604 89 542 q 276 703 201 667 q 433 740 350 740 q 566 702 514 740 q 643 600 618 664 l 669 728 l 833 728 l 685 35 q 626 -110 668 -46 q 522 -218 583 -174 q 385 -286 461 -262 q 225 -310 310 -310 m 360 144 q 466 181 414 144 q 549 267 518 217 l 585 440 q 535 543 575 504 q 442 582 494 582 q 355 558 396 582 q 283 497 314 535 q 233 410 251 458 q 215 314 215 363 q 226 247 215 278 q 255 194 236 217 q 300 158 274 171 q 360 144 326 144 z "},"ģ":{"ha":849,"x_min":-69,"x_max":833,"o":"m 586 1035 l 526 935 l 582 935 l 553 804 l 397 804 l 424 935 l 501 1035 l 586 1035 m 225 -310 q 41 -270 111 -310 q -69 -158 -29 -231 l 53 -60 q 133 -140 81 -111 q 254 -169 186 -169 q 334 -158 294 -169 q 406 -121 374 -146 q 463 -57 439 -96 q 499 35 488 -18 l 518 126 q 403 30 471 64 q 264 -4 335 -4 q 161 19 206 -4 q 85 81 117 42 q 38 172 54 119 q 22 286 22 225 q 56 459 22 376 q 145 604 89 542 q 276 703 201 667 q 433 740 350 740 q 566 702 514 740 q 643 600 618 664 l 669 728 l 833 728 l 685 35 q 626 -110 668 -46 q 522 -218 583 -174 q 385 -286 461 -262 q 225 -310 310 -310 m 360 144 q 466 181 414 144 q 549 267 518 217 l 585 440 q 535 543 575 504 q 442 582 494 582 q 355 558 396 582 q 283 497 314 535 q 233 410 251 458 q 215 314 215 363 q 226 247 215 278 q 255 194 236 217 q 300 158 274 171 q 360 144 326 144 z "},"ġ":{"ha":849,"x_min":-69,"x_max":833,"o":"m 225 -310 q 41 -270 111 -310 q -69 -158 -29 -231 l 53 -60 q 133 -140 81 -111 q 254 -169 186 -169 q 334 -158 294 -169 q 406 -121 374 -146 q 463 -57 439 -96 q 499 35 488 -18 l 518 126 q 403 30 471 64 q 264 -4 335 -4 q 161 19 206 -4 q 85 81 117 42 q 38 172 54 119 q 22 286 22 225 q 56 459 22 376 q 145 604 89 542 q 276 703 201 667 q 433 740 350 740 q 566 702 514 740 q 643 600 618 664 l 669 728 l 833 728 l 685 35 q 626 -110 668 -46 q 522 -218 583 -174 q 385 -286 461 -262 q 225 -310 310 -310 m 360 144 q 466 181 414 144 q 549 267 518 217 l 585 440 q 535 543 575 504 q 442 582 494 582 q 355 558 396 582 q 283 497 314 535 q 233 410 251 458 q 215 314 215 363 q 226 247 215 278 q 255 194 236 217 q 300 158 274 171 q 360 144 326 144 m 397 839 l 435 1014 l 601 1014 l 565 839 l 397 839 z "},"ß":{"ha":747,"x_min":-6,"x_max":718,"o":"m 278 163 q 362 174 322 163 q 431 208 401 186 q 476 264 460 231 q 493 343 493 297 q 459 432 493 401 q 378 463 425 463 l 350 463 l 385 629 l 411 629 q 461 640 439 629 q 499 667 483 650 q 524 708 515 685 q 532 754 532 731 q 508 814 532 794 q 451 833 485 833 q 363 793 396 833 q 318 693 331 753 l 171 0 l -6 0 l 147 725 q 193 833 160 783 q 274 917 226 882 q 379 972 321 953 q 500 992 438 992 q 658 942 597 992 q 718 806 718 892 q 703 724 718 764 q 666 651 689 685 q 614 594 643 618 q 556 558 585 569 q 653 483 619 539 q 688 351 688 426 q 649 188 688 256 q 548 78 611 121 q 405 14 485 35 q 242 -8 325 -7 l 278 163 z "},">":{"ha":764,"x_min":111,"x_max":697,"o":"m 697 310 l 111 -37 l 111 171 l 426 360 l 111 557 l 111 754 l 697 400 l 697 310 z "},"«":{"ha":874,"x_min":26,"x_max":846,"o":"m 46 400 l 451 663 l 419 511 l 185 360 l 357 217 l 325 64 l 26 310 l 46 400 m 439 400 l 846 663 l 814 511 l 579 360 l 751 217 l 719 64 l 421 310 l 439 400 z "},"»":{"ha":874,"x_min":4,"x_max":819,"o":"m 800 310 l 399 64 l 429 217 l 664 360 l 492 511 l 525 663 l 819 400 l 800 310 m 406 310 l 4 64 l 36 217 l 269 360 l 99 511 l 131 663 l 425 400 l 406 310 z "},"‹":{"ha":479,"x_min":26,"x_max":451,"o":"m 46 400 l 451 663 l 419 511 l 185 360 l 357 217 l 325 64 l 26 310 l 46 400 z "},"›":{"ha":479,"x_min":4,"x_max":425,"o":"m 406 310 l 4 64 l 36 217 l 269 360 l 99 511 l 131 663 l 425 400 l 406 310 z "},"h":{"ha":808,"x_min":-6,"x_max":754,"o":"m 210 1014 l 396 1014 l 306 593 q 432 702 360 664 q 583 740 504 740 q 665 727 632 740 q 717 691 697 714 q 746 637 738 668 q 754 569 754 606 q 751 513 754 542 q 740 454 747 483 l 644 0 l 458 0 l 544 408 q 553 476 553 447 q 468 576 553 576 q 418 565 446 576 q 363 534 390 554 q 312 486 336 514 q 271 425 288 458 l 181 0 l -6 0 l 210 1014 z "},"ħ":{"ha":808,"x_min":-6,"x_max":754,"o":"m 110 932 l 192 932 l 210 1014 l 396 1014 l 378 932 l 508 932 l 485 821 l 354 821 l 306 593 q 432 702 360 664 q 583 740 504 740 q 665 727 632 740 q 717 691 697 714 q 746 637 738 668 q 754 569 754 606 q 751 513 754 542 q 740 454 747 483 l 644 0 l 458 0 l 544 408 q 553 476 553 447 q 468 576 553 576 q 418 565 446 576 q 363 534 390 554 q 312 486 336 514 q 271 425 288 458 l 181 0 l -6 0 l 168 821 l 86 821 l 110 932 z "},"ĥ":{"ha":808,"x_min":-6,"x_max":797,"o":"m 411 874 l 569 1013 l 694 1013 l 797 874 l 699 829 l 613 917 l 490 829 l 411 874 m 210 1014 l 396 1014 l 306 593 q 432 702 360 664 q 583 740 504 740 q 665 727 632 740 q 717 691 697 714 q 746 637 738 668 q 754 569 754 606 q 751 513 754 542 q 740 454 747 483 l 644 0 l 458 0 l 544 408 q 553 476 553 447 q 468 576 553 576 q 418 565 446 576 q 363 534 390 554 q 312 486 336 514 q 271 425 288 458 l 181 0 l -6 0 l 210 1014 z "},"-":{"ha":558,"x_min":53,"x_max":490,"o":"m 53 297 l 89 465 l 490 465 l 454 297 l 53 297 z "},"i":{"ha":351,"x_min":-6,"x_max":396,"o":"m 149 728 l 335 728 l 181 0 l -6 0 l 149 728 m 210 1014 l 396 1014 l 357 829 l 171 829 l 210 1014 z "},"í":{"ha":351,"x_min":-6,"x_max":450,"o":"m 293 825 l 172 849 l 278 1014 l 450 1014 l 293 825 m 149 728 l 335 728 l 181 0 l -6 0 l 149 728 z "},"ĭ":{"ha":351,"x_min":-6,"x_max":467,"o":"m 149 728 l 335 728 l 181 0 l -6 0 l 149 728 m 267 911 q 324 940 296 911 q 367 1014 353 969 l 467 1014 q 438 940 458 974 q 388 881 417 906 q 324 842 360 856 q 250 828 289 828 q 144 867 182 828 q 106 968 106 906 q 111 1014 106 993 l 211 1014 q 207 986 207 999 q 224 933 207 954 q 267 911 240 911 z "},"î":{"ha":351,"x_min":-6,"x_max":488,"o":"m 71 874 l 242 1014 l 376 1014 l 488 874 l 381 829 l 288 917 l 157 829 l 71 874 m 149 728 l 335 728 l 181 0 l -6 0 l 149 728 z "},"ï":{"ha":351,"x_min":-6,"x_max":504,"o":"m 56 839 l 92 1004 l 246 1004 l 210 839 l 56 839 m 317 839 l 351 1004 l 504 1004 l 471 839 l 317 839 m 149 728 l 335 728 l 181 0 l -6 0 l 149 728 z "},"ì":{"ha":351,"x_min":-6,"x_max":343,"o":"m 149 728 l 335 728 l 181 0 l -6 0 l 149 728 m 136 1014 l 307 1014 l 343 849 l 214 824 l 136 1014 z "},"ĳ":{"ha":710,"x_min":-6,"x_max":754,"o":"m 149 728 l 335 728 l 181 0 l -6 0 l 149 728 m 210 1014 l 396 1014 l 357 829 l 171 829 l 210 1014 m 236 -272 q 144 -256 186 -272 q 72 -207 101 -240 l 178 -81 q 208 -103 189 -96 q 247 -111 226 -111 q 310 -85 281 -111 q 347 -19 339 -60 l 507 728 l 693 728 l 538 -6 q 496 -113 525 -64 q 426 -198 467 -162 q 336 -253 385 -233 q 236 -272 288 -272 m 568 1014 l 754 1014 l 714 829 l 528 829 l 568 1014 z "},"j":{"ha":358,"x_min":-279,"x_max":403,"o":"m -115 -272 q -208 -256 -165 -272 q -279 -207 -250 -240 l -174 -81 q -144 -103 -162 -96 q -104 -111 -125 -111 q -42 -85 -71 -111 q -4 -19 -12 -60 l 156 728 l 342 728 l 186 -6 q 144 -113 174 -64 q 74 -198 115 -162 q -15 -253 33 -233 q -115 -272 -64 -272 m 217 1014 l 403 1014 l 363 829 l 176 829 l 217 1014 z "},"ī":{"ha":351,"x_min":-6,"x_max":490,"o":"m 149 728 l 335 728 l 181 0 l -6 0 l 149 728 m 68 878 l 93 993 l 490 993 l 465 878 l 68 878 z "},"į":{"ha":351,"x_min":-68,"x_max":396,"o":"m 149 728 l 335 728 l 181 0 q 53 -126 53 -74 q 125 -175 53 -171 l 67 -272 q -35 -233 -3 -261 q -68 -167 -68 -204 q 75 0 -68 -82 l -6 0 l 149 728 m 210 1014 l 396 1014 l 357 829 l 171 829 l 210 1014 z "},"ĩ":{"ha":351,"x_min":-6,"x_max":551,"o":"m 149 728 l 335 728 l 181 0 l -6 0 l 149 728 m 349 836 q 299 846 319 836 q 260 867 278 856 q 226 889 243 879 q 188 899 210 899 q 151 889 165 899 q 128 867 136 879 q 116 844 119 854 q 113 832 113 833 l 10 832 q 26 874 13 844 q 65 934 40 904 q 126 987 90 964 q 206 1010 161 1010 q 256 999 236 1010 q 292 977 275 989 q 325 955 308 965 q 365 944 342 944 q 405 954 389 944 q 431 976 421 964 q 445 1000 440 989 q 450 1014 450 1011 l 551 1014 q 535 975 549 1004 q 495 915 521 946 q 433 860 469 885 q 349 836 396 836 z "},"ĵ":{"ha":351,"x_min":-286,"x_max":478,"o":"m -122 -272 q -215 -256 -172 -272 q -286 -207 -257 -240 l -181 -81 q -151 -103 -169 -96 q -111 -111 -132 -111 q -49 -85 -78 -111 q -11 -19 -19 -60 l 149 728 l 335 728 l 179 -6 q 138 -113 167 -64 q 67 -198 108 -162 q -22 -253 26 -233 q -122 -272 -71 -272 m 61 874 l 232 1014 l 367 1014 l 478 874 l 371 829 l 278 917 l 147 829 l 61 874 z "},"k":{"ha":778,"x_min":-6,"x_max":743,"o":"m 210 1014 l 394 1014 l 294 542 q 427 683 353 629 q 592 738 501 738 q 706 696 668 738 q 743 579 743 654 q 690 412 743 489 q 533 285 636 335 l 669 0 l 472 0 l 331 329 q 513 406 449 353 q 576 518 576 458 q 558 565 576 550 q 513 581 540 581 q 438 561 476 581 q 365 507 400 542 q 299 426 329 472 q 249 329 268 381 l 179 0 l -6 0 l 210 1014 z "},"ķ":{"ha":778,"x_min":-6,"x_max":743,"o":"m 201 -296 l 261 -196 l 206 -196 l 235 -65 l 390 -65 l 364 -196 l 286 -296 l 201 -296 m 210 1014 l 394 1014 l 294 542 q 427 683 353 629 q 592 738 501 738 q 706 696 668 738 q 743 579 743 654 q 690 412 743 489 q 533 285 636 335 l 669 0 l 472 0 l 331 329 q 513 406 449 353 q 576 518 576 458 q 558 565 576 550 q 513 581 540 581 q 438 561 476 581 q 365 507 400 542 q 299 426 329 472 q 249 329 268 381 l 179 0 l -6 0 l 210 1014 z "},"ĸ":{"ha":749,"x_min":-6,"x_max":799,"o":"m 149 728 l 335 728 l 264 399 l 600 726 l 799 726 l 478 418 l 664 0 l 465 0 l 336 315 l 226 217 l 181 0 l -6 0 l 149 728 z "},"l":{"ha":429,"x_min":22,"x_max":393,"o":"m 168 -11 q 60 22 97 -11 q 22 115 22 54 q 24 140 22 128 q 28 168 25 153 l 208 1014 l 393 1014 l 228 233 q 226 219 226 226 q 225 206 225 213 q 282 149 225 149 q 317 154 297 149 q 356 168 338 160 l 350 26 q 259 -1 310 8 q 168 -11 208 -11 z "},"ĺ":{"ha":429,"x_min":22,"x_max":496,"o":"m 339 1049 l 218 1072 l 324 1238 l 496 1238 l 339 1049 m 168 -11 q 60 22 97 -11 q 22 115 22 54 q 24 140 22 128 q 28 168 25 153 l 208 1014 l 393 1014 l 228 233 q 226 219 226 226 q 225 206 225 213 q 282 149 225 149 q 317 154 297 149 q 356 168 338 160 l 350 26 q 259 -1 310 8 q 168 -11 208 -11 z "},"ľ":{"ha":422,"x_min":22,"x_max":699,"o":"m 421 849 l 528 1014 l 699 1014 l 533 813 l 421 849 m 168 -11 q 60 22 97 -11 q 22 115 22 54 q 24 140 22 128 q 28 168 25 153 l 208 1014 l 393 1014 l 228 233 q 226 219 226 226 q 225 206 225 213 q 282 149 225 149 q 317 154 297 149 q 356 168 338 160 l 350 26 q 259 -1 310 8 q 168 -11 208 -11 z "},"ļ":{"ha":429,"x_min":22,"x_max":393,"o":"m 31 -296 l 90 -196 l 35 -196 l 64 -65 l 219 -65 l 193 -196 l 115 -296 l 31 -296 m 168 -11 q 60 22 97 -11 q 22 115 22 54 q 24 140 22 128 q 28 168 25 153 l 208 1014 l 393 1014 l 228 233 q 226 219 226 226 q 225 206 225 213 q 282 149 225 149 q 317 154 297 149 q 356 168 338 160 l 350 26 q 259 -1 310 8 q 168 -11 208 -11 z "},"ŀ":{"ha":546,"x_min":22,"x_max":561,"o":"m 168 -11 q 60 22 97 -11 q 22 115 22 54 q 24 140 22 128 q 28 168 25 153 l 208 1014 l 393 1014 l 228 233 q 226 219 226 226 q 225 206 225 213 q 282 149 225 149 q 317 154 297 149 q 356 168 338 160 l 350 26 q 259 -1 310 8 q 168 -11 208 -11 m 364 369 l 408 579 l 561 579 l 517 369 l 364 369 z "},"<":{"ha":764,"x_min":40,"x_max":626,"o":"m 40 400 l 626 754 l 626 557 l 311 360 l 626 171 l 626 -37 l 40 310 l 40 400 z "},"¬":{"ha":821,"x_min":74,"x_max":760,"o":"m 760 556 l 672 147 l 515 147 l 567 389 l 74 389 l 108 556 l 760 556 z "},"ł":{"ha":476,"x_min":14,"x_max":503,"o":"m 14 474 l 154 550 l 253 1014 l 439 1014 l 364 665 l 478 728 l 503 628 l 338 538 l 276 249 q 272 224 274 235 q 269 206 269 214 q 326 149 269 149 q 362 154 342 149 q 401 168 382 160 l 394 26 q 303 -1 354 8 q 213 -11 253 -11 q 104 22 142 -11 q 67 115 67 54 q 69 140 67 128 q 74 168 71 153 l 126 422 l 39 374 l 14 474 z "},"m":{"ha":1239,"x_min":-6,"x_max":1185,"o":"m 149 728 l 317 728 l 288 593 q 416 701 340 663 q 571 740 492 740 q 696 698 657 740 q 738 586 735 656 q 869 701 796 661 q 1022 740 943 740 q 1101 727 1069 740 q 1151 691 1132 714 q 1177 638 1169 668 q 1185 571 1185 607 q 1182 520 1185 549 q 1171 454 1179 492 l 1074 0 l 888 0 l 974 408 q 981 448 978 429 q 983 482 983 467 q 963 553 983 531 q 908 576 943 576 q 803 533 857 576 q 717 424 750 490 l 628 0 l 442 0 l 528 408 q 536 483 536 451 q 517 554 536 532 q 461 576 497 576 q 410 565 436 576 q 358 534 383 554 q 310 486 332 514 q 271 425 288 458 l 181 0 l -6 0 l 149 728 z "},"−":{"ha":764,"x_min":107,"x_max":668,"o":"m 107 381 l 107 529 l 668 529 l 668 381 l 107 381 z "},"µ":{"ha":881,"x_min":-56,"x_max":817,"o":"m 163 728 l 349 728 l 260 313 q 251 242 251 272 q 338 144 251 144 q 438 177 385 144 q 535 276 490 210 l 631 728 l 817 728 l 707 214 q 705 201 706 207 q 704 190 704 196 q 746 158 704 160 l 711 0 q 663 -7 683 -4 q 626 -10 642 -10 q 524 69 524 -10 q 525 93 524 76 q 533 136 526 110 q 490 85 517 111 q 431 36 464 58 q 363 0 399 14 q 293 -14 326 -14 q 224 9 247 -14 q 197 68 200 32 l 131 -294 l -56 -294 l 163 728 z "},"×":{"ha":676,"x_min":68,"x_max":588,"o":"m 588 239 l 469 124 l 326 267 l 183 124 l 68 240 l 210 382 l 74 519 l 192 635 l 328 499 l 464 636 l 579 519 l 443 382 l 588 239 z "},"n":{"ha":808,"x_min":-6,"x_max":754,"o":"m 149 728 l 317 728 l 288 593 q 421 701 340 663 q 592 740 501 740 q 670 727 639 740 q 720 692 701 714 q 747 638 739 669 q 754 572 754 607 q 751 515 754 544 q 740 454 747 485 l 644 0 l 458 0 l 544 408 q 551 448 549 429 q 554 482 554 467 q 533 553 554 531 q 475 576 511 576 q 421 565 450 576 q 364 534 392 554 q 312 486 336 514 q 271 425 288 458 l 181 0 l -6 0 l 149 728 z "},"ń":{"ha":808,"x_min":-6,"x_max":754,"o":"m 536 825 l 415 849 l 521 1014 l 693 1014 l 536 825 m 149 728 l 317 728 l 288 593 q 421 701 340 663 q 592 740 501 740 q 670 727 639 740 q 720 692 701 714 q 747 638 739 669 q 754 572 754 607 q 751 515 754 544 q 740 454 747 485 l 644 0 l 458 0 l 544 408 q 551 448 549 429 q 554 482 554 467 q 533 553 554 531 q 475 576 511 576 q 421 565 450 576 q 364 534 392 554 q 312 486 336 514 q 271 425 288 458 l 181 0 l -6 0 l 149 728 z "},"ŉ":{"ha":808,"x_min":-69,"x_max":754,"o":"m -69 849 l -4 950 l 0 1014 l 208 1014 l 42 813 l -69 849 m 149 728 l 317 728 l 288 593 q 421 701 340 663 q 592 740 501 740 q 670 727 639 740 q 720 692 701 714 q 747 638 739 669 q 754 572 754 607 q 751 515 754 544 q 740 454 747 485 l 644 0 l 458 0 l 544 408 q 551 448 549 429 q 554 482 554 467 q 533 553 554 531 q 475 576 511 576 q 421 565 450 576 q 364 534 392 554 q 312 486 336 514 q 271 425 288 458 l 181 0 l -6 0 l 149 728 z "},"ň":{"ha":808,"x_min":-6,"x_max":754,"o":"m 304 969 l 411 1014 l 504 926 l 635 1014 l 722 969 l 550 829 l 415 829 l 304 969 m 149 728 l 317 728 l 288 593 q 421 701 340 663 q 592 740 501 740 q 670 727 639 740 q 720 692 701 714 q 747 638 739 669 q 754 572 754 607 q 751 515 754 544 q 740 454 747 485 l 644 0 l 458 0 l 544 408 q 551 448 549 429 q 554 482 554 467 q 533 553 554 531 q 475 576 511 576 q 421 565 450 576 q 364 534 392 554 q 312 486 336 514 q 271 425 288 458 l 181 0 l -6 0 l 149 728 z "},"ņ":{"ha":808,"x_min":-6,"x_max":754,"o":"m 190 -296 l 250 -196 l 194 -196 l 224 -65 l 379 -65 l 353 -196 l 275 -296 l 190 -296 m 149 728 l 317 728 l 288 593 q 421 701 340 663 q 592 740 501 740 q 670 727 639 740 q 720 692 701 714 q 747 638 739 669 q 754 572 754 607 q 751 515 754 544 q 740 454 747 485 l 644 0 l 458 0 l 544 408 q 551 448 549 429 q 554 482 554 467 q 533 553 554 531 q 475 576 511 576 q 421 565 450 576 q 364 534 392 554 q 312 486 336 514 q 271 425 288 458 l 181 0 l -6 0 l 149 728 z "},"ṅ":{"ha":808,"x_min":-6,"x_max":754,"o":"m 396 839 l 433 1014 l 600 1014 l 564 839 l 396 839 m 149 728 l 317 728 l 288 593 q 421 701 340 663 q 592 740 501 740 q 670 727 639 740 q 720 692 701 714 q 747 638 739 669 q 754 572 754 607 q 751 515 754 544 q 740 454 747 485 l 644 0 l 458 0 l 544 408 q 551 448 549 429 q 554 482 554 467 q 533 553 554 531 q 475 576 511 576 q 421 565 450 576 q 364 534 392 554 q 312 486 336 514 q 271 425 288 458 l 181 0 l -6 0 l 149 728 z "},"₉":{"ha":575,"x_min":-29,"x_max":485,"o":"m 4 238 q 28 328 4 285 q 91 403 51 371 q 183 453 131 435 q 293 472 236 472 q 435 418 385 472 q 485 267 485 364 q 460 111 485 183 q 392 -13 436 39 q 288 -95 349 -65 q 151 -125 226 -125 q 42 -102 90 -125 q -29 -35 -6 -79 l 51 42 q 100 -4 67 13 q 178 -21 133 -21 q 293 19 244 -21 q 358 131 342 58 q 288 88 332 103 q 201 74 243 74 q 57 120 110 74 q 4 238 4 167 m 269 371 q 210 361 239 371 q 160 336 182 351 q 126 300 139 321 q 113 257 113 279 q 145 196 113 221 q 228 171 178 171 q 285 180 257 171 q 335 204 314 189 q 370 240 357 219 q 383 282 383 260 q 351 344 383 318 q 269 371 319 371 z "},"⁹":{"ha":574,"x_min":111,"x_max":625,"o":"m 144 896 q 168 986 144 943 q 231 1062 192 1029 q 323 1113 271 1094 q 432 1132 375 1132 q 574 1077 524 1132 q 625 926 625 1022 q 601 771 625 843 q 533 646 576 699 q 427 563 489 593 q 292 533 365 533 q 182 556 229 533 q 111 624 135 579 l 190 699 q 240 654 206 671 q 318 638 274 638 q 433 677 385 638 q 499 789 482 717 q 428 747 472 761 q 340 732 383 732 q 260 744 296 732 q 198 779 224 757 q 158 831 172 801 q 144 896 144 861 m 410 1029 q 351 1019 379 1029 q 300 994 322 1010 q 265 958 278 979 q 251 915 251 938 q 285 854 251 879 q 367 829 318 829 q 425 838 397 829 q 475 862 453 847 q 510 897 497 876 q 524 939 524 917 q 491 1003 524 976 q 410 1029 458 1029 z "},"ñ":{"ha":808,"x_min":-6,"x_max":765,"o":"m 149 728 l 317 728 l 288 593 q 421 701 340 663 q 592 740 501 740 q 670 727 639 740 q 720 692 701 714 q 747 638 739 669 q 754 572 754 607 q 751 515 754 544 q 740 454 747 485 l 644 0 l 458 0 l 544 408 q 551 448 549 429 q 554 482 554 467 q 533 553 554 531 q 475 576 511 576 q 421 565 450 576 q 364 534 392 554 q 312 486 336 514 q 271 425 288 458 l 181 0 l -6 0 l 149 728 m 563 836 q 513 846 533 836 q 474 867 492 856 q 440 889 457 879 q 401 899 424 899 q 365 889 379 899 q 342 867 350 879 q 330 844 333 854 q 326 832 326 833 l 224 832 q 240 874 226 844 q 279 934 254 904 q 340 987 304 964 q 419 1010 375 1010 q 469 999 450 1010 q 506 977 489 989 q 539 955 522 965 q 579 944 556 944 q 619 954 603 944 q 644 976 635 964 q 659 1000 654 989 q 664 1014 664 1011 l 765 1014 q 749 975 763 1004 q 709 915 735 946 q 647 860 683 885 q 563 836 610 836 z "},"#":{"ha":961,"x_min":17,"x_max":976,"o":"m 947 589 l 754 589 l 672 399 l 844 399 l 815 260 l 610 260 l 494 0 l 346 0 l 461 260 l 314 260 l 199 0 l 49 0 l 164 260 l 17 260 l 46 399 l 228 399 l 308 589 l 149 589 l 178 719 l 369 719 l 488 986 l 636 986 l 518 719 l 665 719 l 783 986 l 933 986 l 814 719 l 976 719 l 947 589 m 524 399 l 606 589 l 458 589 l 378 399 l 524 399 z "},"o":{"ha":814,"x_min":21,"x_max":769,"o":"m 315 -14 q 187 10 242 -14 q 95 76 132 35 q 40 173 58 118 q 21 289 21 228 q 55 456 21 375 q 149 601 89 538 q 293 702 210 664 q 475 740 376 740 q 602 716 547 740 q 694 651 657 692 q 751 554 732 610 q 769 436 769 499 q 735 269 769 350 q 641 126 701 189 q 497 24 581 63 q 315 -14 414 -14 m 349 144 q 433 166 392 144 q 506 224 474 188 q 557 309 538 260 q 576 414 576 358 q 540 535 576 489 q 442 582 504 582 q 358 560 399 582 q 285 502 317 539 q 233 417 253 465 q 214 313 214 368 q 250 191 214 238 q 349 144 286 144 z "},"ó":{"ha":814,"x_min":21,"x_max":769,"o":"m 525 825 l 404 849 l 510 1014 l 682 1014 l 525 825 m 315 -14 q 187 10 242 -14 q 95 76 132 35 q 40 173 58 118 q 21 289 21 228 q 55 456 21 375 q 149 601 89 538 q 293 702 210 664 q 475 740 376 740 q 602 716 547 740 q 694 651 657 692 q 751 554 732 610 q 769 436 769 499 q 735 269 769 350 q 641 126 701 189 q 497 24 581 63 q 315 -14 414 -14 m 349 144 q 433 166 392 144 q 506 224 474 188 q 557 309 538 260 q 576 414 576 358 q 540 535 576 489 q 442 582 504 582 q 358 560 399 582 q 285 502 317 539 q 233 417 253 465 q 214 313 214 368 q 250 191 214 238 q 349 144 286 144 z "},"ŏ":{"ha":814,"x_min":21,"x_max":769,"o":"m 315 -14 q 187 10 242 -14 q 95 76 132 35 q 40 173 58 118 q 21 289 21 228 q 55 456 21 375 q 149 601 89 538 q 293 702 210 664 q 475 740 376 740 q 602 716 547 740 q 694 651 657 692 q 751 554 732 610 q 769 436 769 499 q 735 269 769 350 q 641 126 701 189 q 497 24 581 63 q 315 -14 414 -14 m 349 144 q 433 166 392 144 q 506 224 474 188 q 557 309 538 260 q 576 414 576 358 q 540 535 576 489 q 442 582 504 582 q 358 560 399 582 q 285 502 317 539 q 233 417 253 465 q 214 313 214 368 q 250 191 214 238 q 349 144 286 144 m 507 911 q 565 940 536 911 q 607 1014 593 969 l 707 1014 q 678 940 699 974 q 628 881 657 906 q 565 842 600 856 q 490 828 529 828 q 384 867 422 828 q 346 968 346 906 q 351 1014 346 993 l 451 1014 q 447 986 447 999 q 464 933 447 954 q 507 911 481 911 z "},"ô":{"ha":814,"x_min":21,"x_max":769,"o":"m 300 874 l 471 1014 l 606 1014 l 717 874 l 610 829 l 517 917 l 386 829 l 300 874 m 315 -14 q 187 10 242 -14 q 95 76 132 35 q 40 173 58 118 q 21 289 21 228 q 55 456 21 375 q 149 601 89 538 q 293 702 210 664 q 475 740 376 740 q 602 716 547 740 q 694 651 657 692 q 751 554 732 610 q 769 436 769 499 q 735 269 769 350 q 641 126 701 189 q 497 24 581 63 q 315 -14 414 -14 m 349 144 q 433 166 392 144 q 506 224 474 188 q 557 309 538 260 q 576 414 576 358 q 540 535 576 489 q 442 582 504 582 q 358 560 399 582 q 285 502 317 539 q 233 417 253 465 q 214 313 214 368 q 250 191 214 238 q 349 144 286 144 z "},"ö":{"ha":814,"x_min":21,"x_max":769,"o":"m 293 839 l 329 1004 l 483 1004 l 447 839 l 293 839 m 554 839 l 589 1004 l 742 1004 l 708 839 l 554 839 m 315 -14 q 187 10 242 -14 q 95 76 132 35 q 40 173 58 118 q 21 289 21 228 q 55 456 21 375 q 149 601 89 538 q 293 702 210 664 q 475 740 376 740 q 602 716 547 740 q 694 651 657 692 q 751 554 732 610 q 769 436 769 499 q 735 269 769 350 q 641 126 701 189 q 497 24 581 63 q 315 -14 414 -14 m 349 144 q 433 166 392 144 q 506 224 474 188 q 557 309 538 260 q 576 414 576 358 q 540 535 576 489 q 442 582 504 582 q 358 560 399 582 q 285 502 317 539 q 233 417 253 465 q 214 313 214 368 q 250 191 214 238 q 349 144 286 144 z "},"œ":{"ha":1340,"x_min":21,"x_max":1307,"o":"m 314 -14 q 192 9 246 -14 q 99 72 138 32 q 41 168 61 113 q 21 289 21 224 q 58 465 21 383 q 157 608 94 547 q 301 705 219 669 q 474 740 383 740 q 620 697 561 740 q 708 571 679 653 q 855 698 779 656 q 1018 740 931 740 q 1138 718 1085 740 q 1229 656 1192 696 q 1287 560 1267 615 q 1307 436 1307 504 q 1298 352 1307 383 q 1282 304 1289 321 l 756 304 q 753 288 753 296 q 753 272 753 279 q 792 161 753 204 q 896 118 831 118 q 1002 147 950 118 q 1079 221 1054 176 l 1225 176 q 1067 38 1164 89 q 863 -14 969 -14 q 722 28 779 -14 q 619 150 664 69 q 467 26 540 67 q 314 -14 394 -14 m 349 144 q 435 166 393 144 q 508 224 476 188 q 558 310 539 261 q 576 414 576 358 q 540 535 576 488 q 442 582 504 582 q 356 560 397 582 q 283 501 315 539 q 233 415 251 464 q 214 310 214 365 q 250 191 214 238 q 349 144 286 144 m 1119 419 q 1122 436 1121 428 q 1122 451 1122 444 q 1085 564 1122 522 q 983 606 1047 606 q 855 554 913 606 q 774 419 797 503 l 1119 419 z "},"ò":{"ha":814,"x_min":21,"x_max":769,"o":"m 315 -14 q 187 10 242 -14 q 95 76 132 35 q 40 173 58 118 q 21 289 21 228 q 55 456 21 375 q 149 601 89 538 q 293 702 210 664 q 475 740 376 740 q 602 716 547 740 q 694 651 657 692 q 751 554 732 610 q 769 436 769 499 q 735 269 769 350 q 641 126 701 189 q 497 24 581 63 q 315 -14 414 -14 m 349 144 q 433 166 392 144 q 506 224 474 188 q 557 309 538 260 q 576 414 576 358 q 540 535 576 489 q 442 582 504 582 q 358 560 399 582 q 285 502 317 539 q 233 417 253 465 q 214 313 214 368 q 250 191 214 238 q 349 144 286 144 m 381 1014 l 551 1014 l 588 849 l 458 824 l 381 1014 z "},"ő":{"ha":814,"x_min":21,"x_max":769,"o":"m 406 826 l 313 849 l 410 1014 l 553 1014 l 406 826 m 622 826 l 531 849 l 626 1014 l 769 1014 l 622 826 m 315 -14 q 187 10 242 -14 q 95 76 132 35 q 40 173 58 118 q 21 289 21 228 q 55 456 21 375 q 149 601 89 538 q 293 702 210 664 q 475 740 376 740 q 602 716 547 740 q 694 651 657 692 q 751 554 732 610 q 769 436 769 499 q 735 269 769 350 q 641 126 701 189 q 497 24 581 63 q 315 -14 414 -14 m 349 144 q 433 166 392 144 q 506 224 474 188 q 557 309 538 260 q 576 414 576 358 q 540 535 576 489 q 442 582 504 582 q 358 560 399 582 q 285 502 317 539 q 233 417 253 465 q 214 313 214 368 q 250 191 214 238 q 349 144 286 144 z "},"ō":{"ha":814,"x_min":21,"x_max":769,"o":"m 307 878 l 332 993 l 729 993 l 704 878 l 307 878 m 315 -14 q 187 10 242 -14 q 95 76 132 35 q 40 173 58 118 q 21 289 21 228 q 55 456 21 375 q 149 601 89 538 q 293 702 210 664 q 475 740 376 740 q 602 716 547 740 q 694 651 657 692 q 751 554 732 610 q 769 436 769 499 q 735 269 769 350 q 641 126 701 189 q 497 24 581 63 q 315 -14 414 -14 m 349 144 q 433 166 392 144 q 506 224 474 188 q 557 309 538 260 q 576 414 576 358 q 540 535 576 489 q 442 582 504 582 q 358 560 399 582 q 285 502 317 539 q 233 417 253 465 q 214 313 214 368 q 250 191 214 238 q 349 144 286 144 z "},"⅛":{"ha":1203,"x_min":79,"x_max":1139,"o":"m 104 65 l 572 522 l 1015 997 l 1083 922 l 626 472 l 171 -10 l 104 65 m 410 533 l 386 425 l 79 425 l 103 533 l 207 533 l 283 896 q 256 874 274 886 q 219 851 239 863 q 179 833 200 840 q 143 825 158 825 l 167 936 q 212 948 188 936 q 258 974 236 960 q 294 1001 279 989 q 308 1015 308 1014 l 419 1015 l 317 533 l 410 533 m 826 -7 q 745 5 782 -7 q 681 38 708 17 q 640 87 654 58 q 625 149 625 115 q 637 208 625 182 q 669 253 649 233 q 715 288 689 272 q 769 314 742 303 q 721 349 740 326 q 701 408 701 372 q 725 480 701 447 q 785 535 749 513 q 865 572 821 558 q 951 585 910 585 q 1020 575 986 585 q 1081 547 1054 565 q 1123 503 1107 529 q 1139 447 1139 478 q 1104 365 1139 399 q 1021 314 1069 332 q 1081 265 1057 294 q 1106 194 1106 236 q 1082 115 1106 151 q 1019 51 1058 78 q 930 8 981 24 q 826 -7 879 -7 m 851 103 q 902 109 876 103 q 949 127 928 115 q 982 156 969 139 q 994 193 994 172 q 961 244 994 225 q 883 264 928 264 q 831 257 857 264 q 785 238 806 250 q 751 210 764 226 q 739 174 739 193 q 774 122 739 140 q 851 103 808 103 m 903 354 q 944 359 924 354 q 983 373 965 364 q 1013 394 1001 382 q 1024 424 1024 407 q 996 464 1024 449 q 929 479 968 479 q 885 474 907 479 q 847 460 864 469 q 820 438 831 450 q 810 408 810 425 q 839 369 810 383 q 903 354 868 354 z "},"¹":{"ha":400,"x_min":92,"x_max":432,"o":"m 421 651 l 397 542 l 92 542 l 115 651 l 218 651 l 294 1014 q 269 992 286 1004 q 232 969 251 981 q 192 951 213 958 q 156 943 171 943 l 179 1053 q 224 1065 200 1053 q 269 1091 249 1076 q 305 1119 290 1106 q 319 1133 319 1132 l 432 1133 l 328 651 l 421 651 z "},"½":{"ha":1207,"x_min":78,"x_max":1154,"o":"m 611 0 q 640 99 622 57 q 683 174 657 142 q 746 230 708 206 q 835 275 783 254 q 905 302 869 289 q 968 331 940 315 q 1013 369 996 347 q 1031 422 1031 390 q 938 485 1031 485 q 839 462 882 485 q 768 415 796 439 l 717 496 q 753 526 729 510 q 811 558 778 543 q 886 582 844 572 q 975 592 928 592 q 1108 553 1063 592 q 1154 446 1154 514 q 1138 361 1154 397 q 1094 299 1122 325 q 1027 255 1065 274 q 944 222 989 236 q 846 170 878 200 q 807 108 814 140 l 1088 108 l 1065 0 l 611 0 m 86 65 l 554 522 l 997 997 l 1065 922 l 608 472 l 153 -10 l 86 65 m 408 533 l 385 425 l 78 425 l 101 533 l 206 533 l 282 896 q 255 874 272 886 q 218 851 238 863 q 178 833 199 840 q 142 825 157 825 l 165 936 q 210 948 186 936 q 256 974 235 960 q 292 1001 278 989 q 307 1015 307 1014 l 418 1015 l 315 533 l 408 533 z "},"₂":{"ha":567,"x_min":-71,"x_max":492,"o":"m -71 -118 q -41 -19 -58 -61 q 3 56 -24 24 q 69 112 31 88 q 161 157 108 136 q 233 184 197 171 q 299 214 269 197 q 346 251 328 231 q 364 304 364 272 q 339 351 364 335 q 268 367 314 367 q 165 344 210 367 q 92 299 119 322 l 39 379 q 78 410 53 393 q 137 441 103 426 q 214 465 171 456 q 307 475 257 475 q 445 436 399 475 q 492 328 492 397 q 475 244 492 279 q 429 182 458 208 q 360 137 400 156 q 275 104 321 118 q 172 52 206 82 q 132 -10 139 22 l 425 -10 l 401 -118 l -71 -118 z "},"₁":{"ha":447,"x_min":-49,"x_max":332,"o":"m 332 -10 l 310 -118 l -49 -118 l -26 -10 l 103 -10 l 179 354 q 149 333 169 344 q 106 310 129 321 q 58 291 82 299 q 15 283 33 283 l 39 394 q 92 406 64 394 q 146 433 121 418 q 188 460 171 447 q 204 474 204 472 l 317 474 l 213 -10 l 332 -10 z "},"¼":{"ha":1163,"x_min":76,"x_max":1113,"o":"m 863 129 l 572 129 l 594 236 l 994 586 l 1069 586 l 994 238 l 1076 238 l 1053 129 l 972 129 l 944 0 l 836 0 l 863 129 m 890 238 l 935 450 l 701 238 l 890 238 m 133 65 l 601 522 l 1044 997 l 1113 922 l 656 472 l 200 -10 l 133 65 m 407 533 l 383 425 l 76 425 l 100 533 l 204 533 l 281 896 q 253 874 271 886 q 217 851 236 863 q 176 833 197 840 q 140 825 156 825 l 164 936 q 209 948 185 936 q 255 974 233 960 q 291 1001 276 989 q 306 1015 306 1014 l 417 1015 l 314 533 l 407 533 z "},"⅓":{"ha":1199,"x_min":81,"x_max":1140,"o":"m 89 65 l 557 522 l 1000 997 l 1068 922 l 611 472 l 156 -10 l 89 65 m 411 533 l 388 425 l 81 425 l 104 533 l 208 533 l 285 896 q 258 874 275 886 q 221 851 240 863 q 181 833 201 840 q 144 825 160 825 l 168 936 q 213 948 189 936 q 259 974 238 960 q 295 1001 281 989 q 310 1015 310 1014 l 421 1015 l 318 533 l 411 533 m 815 -7 q 680 21 732 -7 q 621 103 628 49 l 697 183 q 707 161 699 175 q 732 134 715 147 q 774 112 749 121 q 836 103 800 103 q 940 124 896 103 q 985 183 985 144 q 938 236 985 219 q 806 253 890 253 l 774 253 l 794 353 l 825 353 q 965 372 911 353 q 1019 435 1019 392 q 988 476 1019 463 q 924 490 957 490 q 831 472 871 490 q 760 422 792 453 l 708 510 q 813 572 747 550 q 944 593 878 593 q 1086 553 1032 593 q 1140 454 1140 514 q 1099 358 1140 396 q 985 308 1057 321 q 1067 265 1039 300 q 1096 185 1096 231 q 1071 99 1096 135 q 1006 39 1046 63 q 917 4 967 15 q 815 -7 867 -7 z "},"₃":{"ha":544,"x_min":-54,"x_max":465,"o":"m 139 -125 q 5 -97 57 -125 q -54 -15 -47 -68 l 22 65 q 31 43 22 57 q 56 17 39 29 q 99 -5 74 4 q 161 -14 125 -14 q 217 -9 190 -14 q 265 6 244 -4 q 298 32 286 17 q 310 67 310 47 q 262 119 310 103 q 131 136 214 136 l 99 136 l 119 236 l 150 236 q 290 255 236 236 q 344 317 344 274 q 313 359 344 344 q 249 374 282 374 q 156 355 196 374 q 85 304 117 336 l 33 393 q 137 454 72 433 q 268 475 201 475 q 411 435 357 475 q 465 336 465 396 q 423 242 465 279 q 310 192 381 204 q 392 149 363 183 q 421 67 421 114 q 396 -18 421 18 q 331 -78 371 -54 q 240 -113 290 -101 q 139 -125 190 -125 z "},"ǫ":{"ha":814,"x_min":21,"x_max":769,"o":"m 281 -279 q 178 -240 211 -268 q 146 -174 146 -211 q 279 -12 146 -92 q 167 19 215 -7 q 86 86 118 46 q 38 178 54 126 q 21 289 21 231 q 55 456 21 375 q 149 601 89 538 q 293 702 210 664 q 475 740 376 740 q 602 716 547 740 q 694 651 657 692 q 751 554 732 610 q 769 436 769 499 q 742 285 769 358 q 665 152 714 213 q 546 49 615 92 q 393 -7 476 7 q 267 -133 267 -81 q 339 -182 267 -178 l 281 -279 m 349 144 q 433 166 392 144 q 506 224 474 188 q 557 309 538 260 q 576 414 576 358 q 540 535 576 489 q 442 582 504 582 q 358 560 399 582 q 285 502 317 539 q 233 417 253 465 q 214 313 214 368 q 250 191 214 238 q 349 144 286 144 z "},"ª":{"ha":590,"x_min":94,"x_max":576,"o":"m 222 471 q 129 507 164 471 q 94 600 94 543 q 113 677 94 642 q 163 739 131 713 q 238 780 194 765 q 329 794 281 794 q 433 772 392 794 l 439 799 q 441 814 440 807 q 442 828 442 821 q 364 896 442 896 q 288 882 325 896 q 206 840 250 868 l 183 925 q 394 990 288 990 q 529 953 482 990 q 576 842 576 915 q 574 812 576 826 q 569 782 572 797 l 538 638 q 536 622 536 632 q 564 597 536 599 l 539 479 q 507 475 522 476 q 481 474 492 474 q 406 529 406 474 q 406 542 406 533 q 408 561 407 550 q 319 494 368 517 q 222 471 271 471 m 283 571 q 322 577 301 571 q 359 594 342 583 q 390 617 376 604 q 406 644 403 631 l 417 699 q 378 711 400 707 q 338 715 357 715 q 258 691 290 715 q 225 629 225 667 q 241 588 225 604 q 283 571 257 571 z "},"º":{"ha":594,"x_min":108,"x_max":615,"o":"m 307 471 q 220 488 257 471 q 158 532 183 504 q 121 598 133 560 q 108 678 108 636 q 131 794 108 738 q 195 894 154 850 q 292 964 236 938 q 417 990 349 990 q 503 974 467 990 q 565 929 540 957 q 603 864 590 901 q 615 783 615 826 q 592 667 615 724 q 529 567 569 611 q 432 497 489 524 q 307 471 375 471 m 332 588 q 385 601 360 588 q 431 640 411 615 q 464 697 451 664 q 476 765 476 729 q 453 842 476 813 q 392 872 431 872 q 338 858 364 872 q 292 820 313 844 q 260 764 272 796 q 247 696 247 732 q 270 617 247 647 q 332 588 293 588 z "},"ø":{"ha":814,"x_min":-22,"x_max":807,"o":"m 81 93 q 35 183 50 133 q 21 289 21 233 q 55 456 21 375 q 149 601 89 538 q 294 702 210 664 q 476 740 378 740 q 575 726 531 740 q 654 688 619 713 l 701 733 l 807 733 l 706 638 q 769 436 769 554 q 735 269 769 350 q 641 126 701 189 q 497 24 581 63 q 315 -14 414 -14 q 213 1 258 -14 q 132 43 167 15 l 81 -6 l -22 -6 l 81 93 m 349 144 q 433 166 392 144 q 506 224 474 188 q 557 309 538 260 q 576 414 576 358 q 561 497 576 458 l 263 178 q 349 144 296 144 m 214 313 q 228 232 214 265 l 524 551 q 442 582 489 582 q 358 560 399 582 q 285 502 317 539 q 233 417 253 465 q 214 313 214 368 z "},"ǿ":{"ha":814,"x_min":-22,"x_max":807,"o":"m 81 93 q 35 183 50 133 q 21 289 21 233 q 55 456 21 375 q 149 601 89 538 q 294 702 210 664 q 476 740 378 740 q 575 726 531 740 q 654 688 619 713 l 701 733 l 807 733 l 706 638 q 769 436 769 554 q 735 269 769 350 q 641 126 701 189 q 497 24 581 63 q 315 -14 414 -14 q 213 1 258 -14 q 132 43 167 15 l 81 -6 l -22 -6 l 81 93 m 349 144 q 433 166 392 144 q 506 224 474 188 q 557 309 538 260 q 576 414 576 358 q 561 497 576 458 l 263 178 q 349 144 296 144 m 214 313 q 228 232 214 265 l 524 551 q 442 582 489 582 q 358 560 399 582 q 285 502 317 539 q 233 417 253 465 q 214 313 214 368 m 524 825 l 403 849 l 508 1014 l 681 1014 l 524 825 z "},"õ":{"ha":814,"x_min":21,"x_max":782,"o":"m 315 -14 q 187 10 242 -14 q 95 76 132 35 q 40 173 58 118 q 21 289 21 228 q 55 456 21 375 q 149 601 89 538 q 293 702 210 664 q 475 740 376 740 q 602 716 547 740 q 694 651 657 692 q 751 554 732 610 q 769 436 769 499 q 735 269 769 350 q 641 126 701 189 q 497 24 581 63 q 315 -14 414 -14 m 349 144 q 433 166 392 144 q 506 224 474 188 q 557 309 538 260 q 576 414 576 358 q 540 535 576 489 q 442 582 504 582 q 358 560 399 582 q 285 502 317 539 q 233 417 253 465 q 214 313 214 368 q 250 191 214 238 q 349 144 286 144 m 579 836 q 529 846 550 836 q 491 867 508 856 q 457 889 474 879 q 418 899 440 899 q 381 889 396 899 q 358 867 367 879 q 347 844 350 854 q 343 832 343 833 l 240 832 q 257 874 243 844 q 296 934 271 904 q 356 987 321 964 q 436 1010 392 1010 q 486 999 467 1010 q 522 977 506 989 q 556 955 539 965 q 596 944 572 944 q 635 954 619 944 q 661 976 651 964 q 676 1000 671 989 q 681 1014 681 1011 l 782 1014 q 765 975 779 1004 q 726 915 751 946 q 663 860 700 885 q 579 836 626 836 z "},"p":{"ha":850,"x_min":-69,"x_max":804,"o":"m 149 728 l 311 728 l 285 603 q 405 703 338 667 q 551 740 472 740 q 657 717 610 740 q 737 653 704 694 q 787 558 769 613 q 804 442 804 504 q 772 269 804 351 q 686 124 740 188 q 560 24 632 61 q 411 -14 489 -14 q 279 24 332 -14 q 207 128 226 63 l 117 -296 l -69 -296 l 149 728 m 383 144 q 469 167 428 144 q 541 228 510 190 q 591 313 572 265 q 610 411 610 361 q 571 533 610 485 q 465 582 532 582 q 414 573 440 582 q 363 547 388 564 q 315 508 338 531 q 278 460 293 486 l 240 289 q 290 185 251 226 q 383 144 329 144 z "},"¶":{"ha":882,"x_min":86,"x_max":942,"o":"m 86 550 q 118 729 86 649 q 210 867 150 810 q 354 955 269 924 q 544 986 439 986 l 942 986 l 911 847 l 819 847 l 615 -111 l 457 -111 l 543 289 l 479 289 l 394 -111 l 236 -111 l 321 289 q 148 361 210 290 q 86 550 86 432 m 244 569 q 274 468 244 504 q 350 428 304 432 l 440 847 q 361 821 397 844 q 299 760 325 797 q 259 673 274 722 q 244 569 244 624 m 663 847 l 597 847 l 508 428 l 572 428 l 663 847 z "},"(":{"ha":422,"x_min":49,"x_max":510,"o":"m 49 365 q 74 542 49 457 q 145 710 100 626 q 251 878 190 794 q 381 1051 311 963 l 510 992 q 403 844 456 921 q 312 688 351 767 q 248 529 272 608 q 224 376 224 450 q 243 190 224 290 q 294 -6 263 89 l 143 -74 q 105 29 122 -25 q 75 140 88 83 q 56 254 63 197 q 49 365 49 311 z "},")":{"ha":422,"x_min":-51,"x_max":401,"o":"m 401 599 q 374 419 401 507 q 301 249 347 332 q 196 85 256 165 q 69 -74 136 4 l -51 -6 q 59 146 8 72 q 147 292 110 219 q 206 438 185 364 q 226 589 226 511 q 219 708 226 647 q 201 823 211 768 q 178 922 190 878 q 156 992 165 967 l 311 1051 q 376 824 350 942 q 401 599 401 707 z "},"%":{"ha":1056,"x_min":54,"x_max":1033,"o":"m 304 579 q 231 592 264 579 q 174 629 197 606 q 137 685 150 653 q 124 754 124 717 q 147 849 124 804 q 207 927 169 893 q 293 981 244 961 q 393 1000 342 1000 q 466 987 433 1000 q 522 950 499 974 q 559 894 546 926 q 572 825 572 863 q 550 731 572 775 q 490 652 528 686 q 404 599 453 618 q 304 579 356 579 m 324 672 q 366 684 344 672 q 404 716 388 696 q 431 762 421 736 q 442 815 442 788 q 423 881 442 854 q 374 907 404 907 q 331 895 353 907 q 293 863 310 883 q 266 817 276 843 q 256 764 256 792 q 274 699 256 725 q 324 672 292 672 m 694 -14 q 622 -1 654 -14 q 565 36 589 13 q 528 92 542 60 q 515 161 515 124 q 538 256 515 211 q 597 334 560 300 q 683 388 635 368 q 783 407 732 407 q 857 394 824 407 q 914 357 890 381 q 950 301 938 333 q 963 232 963 269 q 940 138 963 182 q 881 59 918 93 q 794 6 843 25 q 694 -14 746 -14 m 714 79 q 757 91 736 79 q 794 122 778 103 q 822 168 811 142 q 832 222 832 194 q 813 288 832 261 q 764 314 794 314 q 722 302 743 314 q 683 270 700 290 q 655 224 665 250 q 644 171 644 199 q 664 106 644 132 q 714 79 683 79 m 54 65 l 522 522 l 965 997 l 1033 922 l 576 472 l 122 -10 l 54 65 z "},".":{"ha":311,"x_min":-8,"x_max":188,"o":"m -8 0 l 35 200 l 188 200 l 144 0 l -8 0 z "},"‰":{"ha":1565,"x_min":61,"x_max":1476,"o":"m 313 579 q 238 592 271 579 q 180 629 204 606 q 143 685 156 653 q 131 754 131 717 q 153 849 131 804 q 214 927 176 893 q 299 981 251 961 q 397 1000 347 1000 q 472 987 439 1000 q 530 950 506 974 q 567 894 554 926 q 579 825 579 863 q 556 731 579 775 q 496 652 533 686 q 410 599 458 618 q 313 579 363 579 m 332 672 q 374 684 353 672 q 411 716 394 696 q 438 763 428 736 q 449 817 449 789 q 429 881 449 854 q 378 907 410 907 q 336 895 357 907 q 299 863 315 883 q 272 817 282 843 q 261 763 261 790 q 281 699 261 725 q 332 672 300 672 m 704 -14 q 628 -1 663 -14 q 571 36 594 13 q 534 92 547 60 q 521 161 521 124 q 544 256 521 211 q 604 334 567 300 q 690 388 642 368 q 788 407 738 407 q 863 394 829 407 q 920 357 896 381 q 957 301 944 333 q 969 232 969 269 q 947 138 969 182 q 888 59 925 93 q 802 6 850 25 q 704 -14 754 -14 m 722 79 q 764 91 743 79 q 801 123 785 103 q 828 169 818 143 q 839 224 839 196 q 819 288 839 261 q 768 314 800 314 q 726 302 747 314 q 689 270 706 290 q 662 224 672 250 q 651 169 651 197 q 671 106 651 132 q 722 79 690 79 m 1211 -14 q 1135 -1 1169 -14 q 1078 36 1101 13 q 1041 92 1054 60 q 1028 160 1028 124 q 1051 255 1028 210 q 1111 334 1074 300 q 1197 388 1149 368 q 1294 407 1244 407 q 1369 394 1336 407 q 1427 357 1403 381 q 1464 301 1451 333 q 1476 232 1476 269 q 1454 138 1476 182 q 1394 59 1432 93 q 1309 6 1357 25 q 1211 -14 1261 -14 m 1229 79 q 1271 91 1250 79 q 1308 123 1292 103 q 1335 169 1325 143 q 1346 224 1346 196 q 1327 288 1346 261 q 1276 314 1308 314 q 1235 302 1256 314 q 1197 270 1214 290 q 1169 224 1179 250 q 1158 169 1158 197 q 1178 106 1158 132 q 1229 79 1197 79 m 61 65 l 529 522 l 972 997 l 1040 922 l 583 472 l 128 -10 l 61 65 z "},"+":{"ha":593,"x_min":82,"x_max":536,"o":"m 536 568 l 536 418 l 393 418 l 393 261 l 226 261 l 226 418 l 82 418 l 82 568 l 226 568 l 226 725 l 393 725 l 393 568 l 536 568 z "},"±":{"ha":710,"x_min":93,"x_max":585,"o":"m 93 39 l 93 189 l 583 189 l 583 39 l 93 39 m 585 597 l 585 449 l 422 449 l 422 272 l 256 272 l 256 449 l 93 449 l 93 597 l 256 597 l 256 774 l 422 774 l 422 597 l 585 597 z "},"q":{"ha":849,"x_min":21,"x_max":832,"o":"m 254 -14 q 156 9 199 -14 q 83 72 113 32 q 37 165 53 111 q 21 281 21 218 q 56 458 21 375 q 148 604 90 542 q 281 703 206 667 q 435 740 356 740 q 567 702 514 740 q 643 601 619 664 l 669 728 l 832 728 l 663 -72 q 660 -85 661 -79 q 660 -96 660 -90 q 700 -128 660 -126 l 667 -286 q 616 -292 643 -290 q 567 -294 589 -294 q 485 -268 517 -294 q 453 -196 453 -242 q 453 -182 453 -189 q 456 -168 454 -175 l 518 128 q 398 22 465 57 q 254 -14 331 -14 m 357 144 q 459 178 411 144 q 547 264 507 211 l 585 436 q 570 493 582 467 q 540 540 558 519 q 497 571 521 560 q 446 582 472 582 q 360 559 401 582 q 286 499 318 536 q 235 413 254 461 q 215 313 215 364 q 253 192 215 240 q 357 144 290 144 z "},"?":{"ha":654,"x_min":75,"x_max":674,"o":"m 140 324 q 185 447 154 392 q 293 540 217 503 q 373 581 335 561 q 441 626 411 601 q 489 681 471 650 q 507 751 507 711 q 478 822 507 797 q 410 847 450 847 q 357 837 382 847 q 310 810 332 826 q 269 774 288 794 q 238 736 251 754 l 133 819 q 272 952 186 906 q 449 999 357 999 q 533 986 492 999 q 605 947 574 974 q 655 880 636 921 q 674 782 674 839 q 659 676 674 721 q 618 597 644 631 q 557 539 592 564 q 482 492 522 514 q 421 460 451 475 q 365 426 390 444 q 319 383 339 407 q 293 324 300 358 l 140 324 m 75 0 l 115 192 l 268 192 l 228 0 l 75 0 z "},"¿":{"ha":647,"x_min":-51,"x_max":547,"o":"m 482 379 q 437 256 468 311 q 329 163 406 200 q 249 122 288 142 q 181 77 211 101 q 133 22 151 53 q 115 -49 115 -8 q 144 -119 115 -94 q 213 -144 172 -144 q 265 -134 240 -144 q 313 -108 290 -124 q 353 -72 335 -92 q 385 -33 371 -53 l 489 -117 q 351 -249 436 -203 q 174 -296 265 -296 q 90 -283 131 -296 q 17 -244 49 -271 q -33 -177 -14 -218 q -51 -79 -51 -136 q -37 27 -51 -18 q 4 106 -22 72 q 65 164 31 139 q 140 211 100 189 q 201 243 171 228 q 258 277 232 258 q 303 319 283 296 q 329 379 322 343 l 482 379 m 547 703 l 507 511 l 354 511 l 394 703 l 547 703 z "},"\"":{"ha":538,"x_min":139,"x_max":579,"o":"m 139 693 l 204 1004 l 363 1004 l 297 693 l 139 693 m 354 693 l 421 1004 l 579 1004 l 513 693 l 354 693 z "},"„":{"ha":599,"x_min":-22,"x_max":474,"o":"m -22 -182 l 47 0 l -7 0 l 35 203 l 224 203 l 181 -3 l 94 -182 l -22 -182 m 228 -182 l 297 0 l 243 0 l 286 203 l 474 203 l 429 -3 l 344 -182 l 228 -182 z "},"‚":{"ha":349,"x_min":-22,"x_max":224,"o":"m -22 -182 l 47 0 l -7 0 l 35 203 l 224 203 l 181 -3 l 94 -182 l -22 -182 z "},"“":{"ha":583,"x_min":126,"x_max":610,"o":"m 365 1014 l 300 844 l 354 844 l 315 657 l 126 657 l 167 847 l 251 1014 l 365 1014 m 610 1014 l 543 844 l 599 844 l 558 657 l 371 657 l 411 847 l 494 1014 l 610 1014 z "},"‘":{"ha":340,"x_min":126,"x_max":365,"o":"m 365 1014 l 300 844 l 354 844 l 315 657 l 126 657 l 167 847 l 251 1014 l 365 1014 z "},"”":{"ha":572,"x_min":153,"x_max":636,"o":"m 397 696 l 463 865 l 408 865 l 447 1053 l 636 1053 l 596 863 l 511 696 l 397 696 m 153 696 l 219 865 l 164 865 l 204 1053 l 392 1053 l 351 863 l 268 696 l 153 696 z "},"’":{"ha":328,"x_min":153,"x_max":392,"o":"m 153 696 l 218 865 l 164 865 l 203 1053 l 392 1053 l 351 863 l 267 696 l 153 696 z "},"'":{"ha":322,"x_min":139,"x_max":363,"o":"m 139 693 l 204 1004 l 363 1004 l 297 693 l 139 693 z "},"r":{"ha":525,"x_min":-6,"x_max":568,"o":"m 149 728 l 319 728 l 286 572 q 404 691 339 647 q 535 735 469 735 q 556 734 549 735 q 568 732 563 733 l 533 567 q 384 534 454 565 q 274 440 314 503 l 181 0 l -6 0 l 149 728 z "},"ŕ":{"ha":525,"x_min":-6,"x_max":568,"o":"m 403 825 l 282 849 l 388 1014 l 560 1014 l 403 825 m 149 728 l 319 728 l 286 572 q 404 691 339 647 q 535 735 469 735 q 556 734 549 735 q 568 732 563 733 l 533 567 q 384 534 454 565 q 274 440 314 503 l 181 0 l -6 0 l 149 728 z "},"ř":{"ha":525,"x_min":-6,"x_max":604,"o":"m 186 969 l 293 1014 l 386 926 l 517 1014 l 604 969 l 432 829 l 297 829 l 186 969 m 149 728 l 319 728 l 286 572 q 404 691 339 647 q 535 735 469 735 q 556 734 549 735 q 568 732 563 733 l 533 567 q 384 534 454 565 q 274 440 314 503 l 181 0 l -6 0 l 149 728 z "},"ŗ":{"ha":525,"x_min":-42,"x_max":568,"o":"m -42 -296 l 18 -196 l -37 -196 l -8 -65 l 147 -65 l 121 -196 l 43 -296 l -42 -296 m 149 728 l 319 728 l 286 572 q 404 691 339 647 q 535 735 469 735 q 556 734 549 735 q 568 732 563 733 l 533 567 q 384 534 454 565 q 274 440 314 503 l 181 0 l -6 0 l 149 728 z "},"®":{"ha":1188,"x_min":85,"x_max":1135,"o":"m 607 -10 q 399 28 494 -10 q 233 134 303 67 q 124 293 163 201 q 85 493 85 385 q 124 692 85 600 q 233 850 163 783 q 399 955 303 917 q 607 993 494 993 q 816 955 719 993 q 983 850 913 917 q 1094 692 1054 783 q 1135 493 1135 600 q 1094 293 1135 385 q 983 134 1054 201 q 816 28 913 67 q 607 -10 719 -10 m 608 58 q 785 90 703 58 q 927 179 867 122 q 1022 316 988 236 q 1056 490 1056 396 q 1022 661 1056 582 q 929 799 989 740 q 788 890 869 857 q 608 924 706 924 q 429 890 511 924 q 288 799 347 857 q 197 662 229 740 q 164 493 164 583 q 197 322 164 401 q 288 184 229 243 q 429 92 347 125 q 608 58 511 58 m 382 800 l 654 800 q 732 782 696 800 q 794 735 768 764 q 834 669 819 706 q 849 596 849 633 q 817 489 849 539 q 736 419 786 439 l 879 189 l 732 189 l 603 394 l 515 394 l 515 189 l 382 189 l 382 800 m 643 508 q 698 531 678 508 q 718 596 718 554 q 694 662 718 640 q 639 683 671 683 l 515 683 l 515 508 l 643 508 z "},"s":{"ha":667,"x_min":-35,"x_max":649,"o":"m 256 -14 q 90 15 168 -14 q -35 99 13 44 l 58 215 q 279 119 165 119 q 371 144 338 119 q 404 214 404 169 q 374 262 404 244 q 278 299 344 279 q 183 331 222 315 q 117 367 143 347 q 80 410 92 386 q 68 467 68 435 q 94 578 68 528 q 166 665 121 629 q 271 722 211 701 q 397 742 331 742 q 538 718 475 742 q 649 642 600 694 l 550 529 q 460 590 506 571 q 368 610 415 610 q 284 586 319 610 q 249 514 249 563 q 275 469 249 485 q 364 436 301 454 q 536 365 481 404 q 592 256 592 325 q 567 147 592 196 q 497 62 542 97 q 391 6 453 26 q 256 -14 329 -14 z "},"ﬆ":{"ha":1153,"x_min":-42,"x_max":1156,"o":"m 260 -14 q 173 -6 217 -14 q 90 14 129 1 q 17 44 50 26 q -42 82 -17 61 l 56 208 q 281 119 165 119 q 374 142 335 119 q 413 208 413 164 q 403 241 413 228 q 378 263 394 254 q 336 280 361 272 q 278 296 311 288 q 189 323 228 310 q 124 355 150 336 q 83 401 97 374 q 69 471 69 429 q 98 582 69 532 q 172 667 126 632 q 273 722 217 703 q 386 742 329 742 q 467 733 419 742 q 549 697 514 724 q 538 779 538 738 q 553 871 538 826 q 606 950 569 915 q 699 1005 642 985 q 840 1025 757 1025 q 933 1015 896 1025 q 992 987 969 1006 q 1023 942 1014 968 q 1032 881 1032 915 q 1026 810 1032 849 q 1011 728 1021 772 l 1156 728 l 1125 585 l 981 585 l 906 229 q 903 217 903 222 q 903 208 903 213 q 917 169 903 181 q 956 158 931 158 q 1012 168 982 158 q 1061 185 1042 178 l 1061 38 q 963 4 1019 21 q 851 -12 906 -12 q 743 17 786 -12 q 700 115 700 46 q 703 147 700 129 q 710 183 706 164 l 794 585 l 704 585 l 735 728 l 825 728 q 838 806 833 772 q 843 864 843 839 q 826 924 843 907 q 768 942 808 942 q 654 894 692 942 q 617 778 617 846 q 626 703 617 739 q 646 654 636 668 l 549 538 q 456 594 500 578 q 371 610 411 610 q 281 588 319 610 q 242 517 242 565 q 276 458 242 472 q 383 428 311 443 q 474 403 435 417 q 538 369 513 389 q 577 322 564 350 q 590 253 590 293 q 564 142 590 192 q 492 58 538 93 q 388 5 447 24 q 260 -14 328 -14 z "},"ś":{"ha":667,"x_min":-35,"x_max":649,"o":"m 443 825 l 322 849 l 428 1014 l 600 1014 l 443 825 m 256 -14 q 90 15 168 -14 q -35 99 13 44 l 58 215 q 279 119 165 119 q 371 144 338 119 q 404 214 404 169 q 374 262 404 244 q 278 299 344 279 q 183 331 222 315 q 117 367 143 347 q 80 410 92 386 q 68 467 68 435 q 94 578 68 528 q 166 665 121 629 q 271 722 211 701 q 397 742 331 742 q 538 718 475 742 q 649 642 600 694 l 550 529 q 460 590 506 571 q 368 610 415 610 q 284 586 319 610 q 249 514 249 563 q 275 469 249 485 q 364 436 301 454 q 536 365 481 404 q 592 256 592 325 q 567 147 592 196 q 497 62 542 97 q 391 6 453 26 q 256 -14 329 -14 z "},"š":{"ha":667,"x_min":-35,"x_max":654,"o":"m 236 969 l 343 1014 l 436 926 l 567 1014 l 654 969 l 482 829 l 347 829 l 236 969 m 256 -14 q 90 15 168 -14 q -35 99 13 44 l 58 215 q 279 119 165 119 q 371 144 338 119 q 404 214 404 169 q 374 262 404 244 q 278 299 344 279 q 183 331 222 315 q 117 367 143 347 q 80 410 92 386 q 68 467 68 435 q 94 578 68 528 q 166 665 121 629 q 271 722 211 701 q 397 742 331 742 q 538 718 475 742 q 649 642 600 694 l 550 529 q 460 590 506 571 q 368 610 415 610 q 284 586 319 610 q 249 514 249 563 q 275 469 249 485 q 364 436 301 454 q 536 365 481 404 q 592 256 592 325 q 567 147 592 196 q 497 62 542 97 q 391 6 453 26 q 256 -14 329 -14 z "},"ə":{"ha":803,"x_min":8,"x_max":758,"o":"m 304 -14 q 176 8 231 -14 q 83 69 121 31 q 27 160 46 107 q 8 274 8 213 q 15 349 8 310 q 36 422 22 389 l 564 422 q 565 440 565 431 q 565 457 565 449 q 526 565 565 526 q 428 604 486 604 q 324 577 375 604 q 247 506 274 550 l 99 550 q 165 626 126 592 q 251 687 204 661 q 351 726 297 713 q 464 740 406 740 q 591 717 536 740 q 683 651 646 693 q 740 555 721 610 q 758 438 758 500 q 725 269 758 350 q 631 125 692 188 q 488 24 571 63 q 304 -14 404 -14 m 336 121 q 463 172 406 121 q 543 307 519 224 l 200 307 q 199 290 199 297 q 199 272 199 282 q 236 162 199 203 q 336 121 274 121 z "},"ŝ":{"ha":667,"x_min":-35,"x_max":653,"o":"m 236 874 l 407 1014 l 542 1014 l 653 874 l 546 829 l 453 917 l 322 829 l 236 874 m 256 -14 q 90 15 168 -14 q -35 99 13 44 l 58 215 q 279 119 165 119 q 371 144 338 119 q 404 214 404 169 q 374 262 404 244 q 278 299 344 279 q 183 331 222 315 q 117 367 143 347 q 80 410 92 386 q 68 467 68 435 q 94 578 68 528 q 166 665 121 629 q 271 722 211 701 q 397 742 331 742 q 538 718 475 742 q 649 642 600 694 l 550 529 q 460 590 506 571 q 368 610 415 610 q 284 586 319 610 q 249 514 249 563 q 275 469 249 485 q 364 436 301 454 q 536 365 481 404 q 592 256 592 325 q 567 147 592 196 q 497 62 542 97 q 391 6 453 26 q 256 -14 329 -14 z "},"§":{"ha":715,"x_min":-12,"x_max":710,"o":"m 585 299 q 607 211 607 272 q 570 58 607 121 q 478 -45 533 -6 q 359 -103 422 -85 q 244 -122 296 -122 q 149 -107 192 -122 q 75 -69 107 -92 q 22 -22 43 -47 q -12 22 0 3 l 131 136 q 197 73 161 92 q 274 54 232 54 q 322 62 297 54 q 365 84 346 69 q 395 119 383 99 q 407 167 407 140 q 399 197 407 185 q 380 215 392 208 q 353 223 368 221 q 322 226 338 225 q 152 288 210 235 q 94 428 94 342 q 113 523 94 488 q 146 576 132 558 q 128 620 135 592 q 121 685 121 649 q 149 802 121 746 q 226 901 178 858 q 335 968 274 943 q 463 993 397 993 q 563 976 521 993 q 633 933 604 958 q 681 877 663 907 q 710 822 699 847 l 553 754 q 513 809 542 790 q 439 828 483 828 q 350 797 389 828 q 311 713 311 765 q 337 660 311 674 q 400 646 363 647 q 487 634 443 644 q 565 601 531 624 q 622 543 600 579 q 643 456 643 507 q 637 405 643 429 q 622 360 631 381 q 603 323 613 339 q 585 299 593 307 m 272 429 q 290 383 272 397 q 331 363 307 368 q 381 355 356 357 q 422 344 406 353 q 450 379 439 357 q 461 425 461 401 q 433 480 461 464 q 375 496 404 496 q 335 500 354 496 q 308 508 317 504 q 283 476 294 497 q 272 429 272 454 z "},";":{"ha":343,"x_min":-10,"x_max":310,"o":"m 115 519 l 157 719 l 310 719 l 267 519 l 115 519 m -10 -160 l 63 6 l 4 6 l 46 200 l 207 200 l 165 6 l 74 -160 l -10 -160 z "},"⅞":{"ha":1188,"x_min":44,"x_max":1124,"o":"m 44 65 l 513 522 l 956 997 l 1024 922 l 567 472 l 111 -10 l 44 65 m 811 -7 q 730 5 767 -7 q 666 38 693 17 q 624 87 639 58 q 610 149 610 115 q 622 208 610 182 q 653 253 633 233 q 700 288 674 272 q 754 314 726 303 q 706 349 725 326 q 686 408 686 372 q 710 480 686 447 q 769 535 733 513 q 850 572 806 558 q 936 585 894 585 q 1005 575 971 585 q 1065 547 1039 565 q 1108 503 1092 529 q 1124 447 1124 478 q 1089 365 1124 399 q 1006 314 1054 332 q 1066 265 1042 294 q 1090 194 1090 236 q 1067 115 1090 151 q 1004 51 1043 78 q 915 8 965 24 q 811 -7 864 -7 m 836 103 q 887 109 861 103 q 933 127 913 115 q 967 156 954 139 q 979 193 979 172 q 946 244 979 225 q 868 264 913 264 q 816 257 842 264 q 769 238 790 250 q 736 210 749 226 q 724 174 724 193 q 758 122 724 140 q 836 103 793 103 m 888 354 q 929 359 908 354 q 968 373 950 364 q 997 394 986 382 q 1008 424 1008 407 q 981 464 1008 449 q 914 479 953 479 q 870 474 892 479 q 832 460 849 469 q 805 438 815 450 q 794 408 794 425 q 824 369 794 383 q 888 354 853 354 m 472 904 l 158 904 l 182 1014 l 667 1014 l 214 431 l 90 431 l 472 904 z "},"⁷":{"ha":524,"x_min":93,"x_max":669,"o":"m 475 1022 l 161 1022 l 183 1132 l 669 1132 l 217 547 l 93 547 l 475 1022 z "},"₇":{"ha":522,"x_min":-49,"x_max":529,"o":"m 333 358 l 19 358 l 43 468 l 529 468 l 75 -117 l -49 -117 l 333 358 z "},"₆":{"ha":572,"x_min":-15,"x_max":499,"o":"m 465 108 q 442 19 465 61 q 378 -56 418 -24 q 286 -106 339 -87 q 176 -125 233 -125 q 35 -71 85 -125 q -15 79 -15 -17 q 9 235 -15 164 q 78 360 33 307 q 183 442 122 413 q 319 472 244 472 q 428 450 381 472 q 499 383 475 428 l 419 307 q 370 351 404 335 q 292 368 336 368 q 176 328 225 368 q 111 217 128 289 q 183 258 138 244 q 268 272 228 272 q 413 226 360 272 q 465 108 465 179 m 200 -24 q 259 -14 231 -24 q 310 11 288 -4 q 345 47 332 26 q 358 90 358 68 q 326 152 358 126 q 243 178 293 178 q 184 169 213 178 q 133 144 156 160 q 98 108 111 129 q 85 65 85 88 q 118 3 85 29 q 200 -24 151 -24 z "},"⁶":{"ha":574,"x_min":125,"x_max":639,"o":"m 606 767 q 582 677 606 719 q 519 603 558 635 q 426 552 479 571 q 317 533 374 533 q 175 588 225 533 q 125 738 125 642 q 149 894 125 822 q 217 1019 174 967 q 323 1102 261 1072 q 458 1132 385 1132 q 567 1109 519 1132 q 639 1042 615 1086 l 558 965 q 510 1010 543 993 q 432 1026 476 1026 q 317 987 365 1026 q 251 875 268 947 q 322 917 278 903 q 407 932 367 932 q 552 885 499 932 q 606 767 606 838 m 340 635 q 398 644 369 635 q 449 669 426 654 q 485 706 471 685 q 499 749 499 726 q 466 811 499 786 q 383 836 433 836 q 324 827 353 836 q 274 803 296 818 q 238 767 251 788 q 225 724 225 746 q 258 661 225 688 q 340 635 292 635 z "}," ":{"ha":328,"x_min":0,"x_max":0,"o":""},"£":{"ha":729,"x_min":7,"x_max":746,"o":"m 101 529 l 194 529 q 176 616 186 574 q 167 700 167 658 q 194 815 167 761 q 269 908 222 868 q 376 970 315 947 q 500 993 436 993 q 647 954 582 993 q 746 847 711 915 l 625 733 q 558 812 603 782 q 467 842 514 842 q 415 831 439 842 q 372 801 390 819 q 342 756 353 782 q 331 699 331 729 q 342 618 331 660 q 363 529 353 576 l 607 529 l 576 389 l 365 389 q 350 332 361 360 q 319 275 339 304 q 271 214 300 246 q 201 144 242 182 q 257 158 232 154 q 304 161 282 161 q 392 149 351 161 q 478 138 433 138 q 525 143 501 138 q 581 160 549 149 l 596 21 q 516 -10 560 1 q 435 -21 472 -21 q 375 -15 404 -21 q 317 -1 346 -8 q 258 13 288 7 q 196 19 228 19 q 113 11 161 19 q 19 -11 64 3 l 7 121 q 143 253 94 188 q 203 389 192 318 l 72 389 l 101 529 z "},"t":{"ha":518,"x_min":65,"x_max":521,"o":"m 217 -12 q 108 17 150 -12 q 65 115 65 47 q 71 167 65 143 l 160 585 l 69 585 l 100 728 l 189 728 l 239 964 l 425 964 l 375 728 l 521 728 l 490 585 l 346 585 l 269 229 q 267 217 268 222 q 267 207 267 213 q 281 169 267 181 q 319 158 296 158 q 374 167 347 158 q 421 185 401 176 l 426 38 q 329 3 386 18 q 217 -12 272 -12 z "},"ŧ":{"ha":519,"x_min":25,"x_max":522,"o":"m 49 478 l 138 478 l 161 585 l 71 585 l 101 728 l 192 728 l 242 964 l 428 964 l 378 728 l 522 728 l 492 585 l 347 585 l 324 478 l 469 478 l 446 367 l 300 367 l 274 242 q 270 223 271 231 q 269 208 269 215 q 284 169 269 181 q 322 158 299 158 q 376 168 349 158 q 422 185 404 178 l 429 38 q 331 3 388 18 q 217 -12 274 -12 q 109 17 151 -12 q 67 115 67 47 q 71 167 67 139 l 114 367 l 25 367 l 49 478 z "},"ť":{"ha":518,"x_min":65,"x_max":753,"o":"m 475 849 l 582 1014 l 753 1014 l 588 813 l 475 849 m 217 -12 q 108 17 150 -12 q 65 115 65 47 q 71 167 65 143 l 160 585 l 69 585 l 100 728 l 189 728 l 239 964 l 425 964 l 375 728 l 521 728 l 490 585 l 346 585 l 269 229 q 267 217 268 222 q 267 207 267 213 q 281 169 267 181 q 319 158 296 158 q 374 167 347 158 q 421 185 401 176 l 426 38 q 329 3 386 18 q 217 -12 272 -12 z "},"þ":{"ha":801,"x_min":-69,"x_max":760,"o":"m 203 986 l 393 986 q 373 888 383 942 q 351 785 363 833 q 328 671 339 729 q 394 726 354 703 q 493 749 435 749 q 610 723 560 749 q 693 655 660 697 q 743 558 726 613 q 760 447 760 504 q 728 281 760 367 q 639 126 696 196 q 503 12 582 57 q 329 -33 424 -33 q 233 -11 263 -33 q 192 38 203 11 q 165 -86 178 -25 q 142 -196 154 -139 q 121 -296 131 -253 l -69 -296 l 203 986 m 358 135 q 443 158 404 135 q 510 221 482 182 q 553 310 538 260 q 568 413 568 360 q 538 533 568 485 q 447 581 507 581 q 358 548 399 581 q 283 467 317 515 l 236 244 q 234 238 235 240 q 233 229 233 235 q 242 196 233 213 q 267 166 250 179 q 306 144 283 153 q 358 135 329 135 z "},"⅜":{"ha":1217,"x_min":74,"x_max":1150,"o":"m 268 414 q 133 442 185 414 q 74 524 82 471 l 150 606 q 160 583 151 596 q 185 557 168 569 q 227 535 201 544 q 289 526 253 526 q 345 531 318 526 q 393 547 372 536 q 426 572 414 557 q 439 606 439 586 q 391 658 439 642 q 258 675 343 675 l 226 675 l 247 776 l 278 776 q 419 795 365 776 q 472 857 472 814 q 442 899 472 885 q 376 913 411 913 q 284 894 324 913 q 213 844 244 875 l 161 933 q 265 994 200 974 q 397 1015 331 1015 q 539 976 485 1015 q 593 876 593 936 q 551 781 593 818 q 438 731 510 744 q 519 688 490 722 q 549 607 549 653 q 524 522 549 558 q 459 461 499 485 q 369 426 419 438 q 268 414 319 414 m 143 65 l 611 522 l 1054 997 l 1122 922 l 665 472 l 210 -10 l 143 65 m 838 -7 q 756 5 793 -7 q 692 38 719 17 q 651 87 665 58 q 636 149 636 115 q 648 208 636 182 q 680 253 660 233 q 726 288 700 272 q 781 314 753 303 q 732 349 751 326 q 713 408 713 372 q 736 480 713 447 q 796 535 760 513 q 876 572 832 558 q 963 585 921 585 q 1031 575 997 585 q 1092 547 1065 565 q 1134 503 1118 529 q 1150 447 1150 478 q 1115 365 1150 399 q 1032 314 1081 332 q 1092 265 1068 294 q 1117 194 1117 236 q 1093 115 1117 151 q 1031 51 1069 78 q 941 8 992 24 q 838 -7 890 -7 m 863 103 q 913 109 888 103 q 960 127 939 115 q 993 156 981 139 q 1006 193 1006 172 q 972 244 1006 225 q 894 264 939 264 q 842 257 868 264 q 796 238 817 250 q 763 210 775 226 q 750 174 750 193 q 785 122 750 140 q 863 103 819 103 m 914 354 q 956 359 935 354 q 994 373 976 364 q 1024 394 1013 382 q 1035 424 1035 407 q 1007 464 1035 449 q 940 479 979 479 q 897 474 918 479 q 858 460 875 469 q 831 438 842 450 q 821 408 821 425 q 850 369 821 383 q 914 354 879 354 z "},"³":{"ha":544,"x_min":85,"x_max":604,"o":"m 283 532 q 156 560 204 532 q 85 642 108 589 l 161 724 q 172 699 163 713 q 197 672 181 685 q 240 651 214 660 q 304 643 267 643 q 357 649 331 643 q 404 664 383 654 q 438 688 425 674 q 450 722 450 703 q 403 775 450 758 q 269 792 356 792 l 238 792 l 258 893 l 289 893 q 429 913 375 893 q 483 972 483 932 q 453 1017 483 1004 q 386 1031 422 1031 q 295 1012 335 1031 q 224 961 256 993 l 172 1050 q 276 1112 211 1090 q 406 1133 342 1133 q 551 1094 497 1133 q 604 992 604 1054 q 562 899 604 936 q 449 849 519 861 q 531 806 503 840 q 560 722 560 771 q 535 638 560 674 q 470 579 510 603 q 381 544 431 556 q 283 532 332 532 z "},"¾":{"ha":1181,"x_min":72,"x_max":1160,"o":"m 267 414 q 132 442 183 414 q 72 524 81 471 l 149 606 q 158 583 150 596 q 183 557 167 569 q 226 535 200 544 q 288 526 251 526 q 344 531 317 526 q 392 547 371 536 q 425 572 413 557 q 438 606 438 586 q 390 658 438 642 q 257 675 342 675 l 225 675 l 246 776 l 276 776 q 417 795 364 776 q 471 857 471 814 q 440 899 471 885 q 375 913 410 913 q 283 894 322 913 q 211 844 243 875 l 160 933 q 264 994 199 974 q 396 1015 329 1015 q 538 976 483 1015 q 592 876 592 936 q 550 781 592 818 q 436 731 508 744 q 518 688 489 722 q 547 607 547 653 q 522 522 547 558 q 458 461 497 485 q 368 426 418 438 q 267 414 318 414 m 876 129 l 586 129 l 608 236 l 1008 586 l 1083 586 l 1008 238 l 1090 238 l 1067 129 l 986 129 l 958 0 l 850 0 l 876 129 m 904 238 l 949 450 l 715 238 l 904 238 m 181 65 l 649 522 l 1092 997 l 1160 922 l 703 472 l 247 -10 l 181 65 z "},"™":{"ha":1113,"x_min":176,"x_max":1136,"o":"m 547 868 l 422 868 l 360 571 l 239 571 l 301 868 l 176 868 l 203 989 l 574 989 l 547 868 m 633 986 l 813 986 l 838 768 l 957 986 l 1136 986 l 1049 571 l 928 571 l 983 831 l 857 629 l 761 629 l 721 831 l 665 571 l 544 571 l 633 986 z "},"²":{"ha":560,"x_min":69,"x_max":632,"o":"m 69 540 q 99 640 82 597 q 144 714 117 682 q 209 770 171 746 q 300 815 247 794 q 374 843 338 829 q 439 873 410 857 q 486 910 468 889 q 504 963 504 932 q 479 1009 504 993 q 408 1025 454 1025 q 305 1003 350 1025 q 231 957 260 981 l 178 1038 q 217 1068 192 1051 q 276 1099 242 1085 q 353 1124 310 1114 q 446 1133 396 1133 q 585 1094 538 1133 q 632 986 632 1054 q 615 900 632 936 q 567 838 597 864 q 498 794 538 813 q 414 763 458 776 q 312 710 346 740 q 271 649 278 681 l 546 649 l 522 540 l 69 540 z "},"⅔":{"ha":1224,"x_min":56,"x_max":1163,"o":"m 56 424 q 84 523 67 481 q 128 597 101 565 q 191 653 154 629 q 278 699 228 678 q 349 726 314 713 q 413 755 385 739 q 458 792 440 771 q 475 846 475 814 q 451 892 475 875 q 382 908 426 908 q 283 886 326 908 q 211 840 239 864 l 161 919 q 198 950 174 933 q 256 981 222 967 q 330 1006 289 996 q 418 1015 371 1015 q 553 976 507 1015 q 599 868 599 938 q 582 784 599 819 q 537 722 565 749 q 469 677 508 696 q 388 644 431 658 q 289 594 321 624 q 250 532 257 564 l 515 532 l 492 424 l 56 424 m 164 65 l 632 522 l 1075 997 l 1143 922 l 686 472 l 231 -10 l 164 65 m 838 -7 q 702 21 754 -7 q 643 103 650 49 l 719 183 q 729 161 721 175 q 754 134 738 147 q 797 112 771 121 q 858 103 822 103 q 963 124 918 103 q 1007 183 1007 144 q 960 236 1007 219 q 828 253 913 253 l 796 253 l 817 353 l 847 353 q 988 372 933 353 q 1042 435 1042 392 q 1010 476 1042 463 q 946 490 979 490 q 853 472 893 490 q 782 422 814 453 l 731 510 q 835 572 769 550 q 967 593 900 593 q 1108 553 1054 593 q 1163 454 1163 514 q 1121 358 1163 396 q 1007 308 1079 321 q 1090 265 1061 300 q 1118 185 1118 231 q 1093 99 1118 135 q 1028 39 1068 63 q 939 4 989 15 q 838 -7 889 -7 z "},"u":{"ha":826,"x_min":31,"x_max":794,"o":"m 201 -14 q 31 164 31 -14 q 34 215 31 188 q 44 272 38 242 l 142 728 l 326 728 l 239 313 q 232 275 235 292 q 229 243 229 258 q 313 144 229 144 q 415 177 361 144 q 513 276 468 210 l 608 728 l 794 728 l 685 214 q 683 201 683 207 q 682 189 682 194 q 715 158 682 160 l 682 0 q 638 -7 657 -4 q 604 -10 619 -10 q 528 10 556 -10 q 501 69 501 29 q 503 94 501 81 q 511 136 504 108 q 369 24 449 61 q 201 -14 289 -14 z "},"ú":{"ha":826,"x_min":31,"x_max":794,"o":"m 501 825 l 381 849 l 486 1014 l 658 1014 l 501 825 m 201 -14 q 31 164 31 -14 q 34 215 31 188 q 44 272 38 242 l 142 728 l 326 728 l 239 313 q 232 275 235 292 q 229 243 229 258 q 313 144 229 144 q 415 177 361 144 q 513 276 468 210 l 608 728 l 794 728 l 685 214 q 683 201 683 207 q 682 189 682 194 q 715 158 682 160 l 682 0 q 638 -7 657 -4 q 604 -10 619 -10 q 528 10 556 -10 q 501 69 501 29 q 503 94 501 81 q 511 136 504 108 q 369 24 449 61 q 201 -14 289 -14 z "},"ŭ":{"ha":826,"x_min":31,"x_max":794,"o":"m 201 -14 q 31 164 31 -14 q 34 215 31 188 q 44 272 38 242 l 142 728 l 326 728 l 239 313 q 232 275 235 292 q 229 243 229 258 q 313 144 229 144 q 415 177 361 144 q 513 276 468 210 l 608 728 l 794 728 l 685 214 q 683 201 683 207 q 682 189 682 194 q 715 158 682 160 l 682 0 q 638 -7 657 -4 q 604 -10 619 -10 q 528 10 556 -10 q 501 69 501 29 q 503 94 501 81 q 511 136 504 108 q 369 24 449 61 q 201 -14 289 -14 m 488 911 q 545 940 517 911 q 588 1014 574 969 l 688 1014 q 658 940 679 974 q 609 881 638 906 q 545 842 581 856 q 471 828 510 828 q 365 867 403 828 q 326 968 326 906 q 332 1014 326 993 l 432 1014 q 428 986 428 999 q 444 933 428 954 q 488 911 461 911 z "},"û":{"ha":826,"x_min":31,"x_max":794,"o":"m 296 874 l 467 1014 l 601 1014 l 713 874 l 606 829 l 513 917 l 382 829 l 296 874 m 201 -14 q 31 164 31 -14 q 34 215 31 188 q 44 272 38 242 l 142 728 l 326 728 l 239 313 q 232 275 235 292 q 229 243 229 258 q 313 144 229 144 q 415 177 361 144 q 513 276 468 210 l 608 728 l 794 728 l 685 214 q 683 201 683 207 q 682 189 682 194 q 715 158 682 160 l 682 0 q 638 -7 657 -4 q 604 -10 619 -10 q 528 10 556 -10 q 501 69 501 29 q 503 94 501 81 q 511 136 504 108 q 369 24 449 61 q 201 -14 289 -14 z "},"ü":{"ha":826,"x_min":31,"x_max":794,"o":"m 276 839 l 313 1004 l 467 1004 l 431 839 l 276 839 m 538 839 l 572 1004 l 725 1004 l 692 839 l 538 839 m 201 -14 q 31 164 31 -14 q 34 215 31 188 q 44 272 38 242 l 142 728 l 326 728 l 239 313 q 232 275 235 292 q 229 243 229 258 q 313 144 229 144 q 415 177 361 144 q 513 276 468 210 l 608 728 l 794 728 l 685 214 q 683 201 683 207 q 682 189 682 194 q 715 158 682 160 l 682 0 q 638 -7 657 -4 q 604 -10 619 -10 q 528 10 556 -10 q 501 69 501 29 q 503 94 501 81 q 511 136 504 108 q 369 24 449 61 q 201 -14 289 -14 z "},"ù":{"ha":826,"x_min":31,"x_max":794,"o":"m 201 -14 q 31 164 31 -14 q 34 215 31 188 q 44 272 38 242 l 142 728 l 326 728 l 239 313 q 232 275 235 292 q 229 243 229 258 q 313 144 229 144 q 415 177 361 144 q 513 276 468 210 l 608 728 l 794 728 l 685 214 q 683 201 683 207 q 682 189 682 194 q 715 158 682 160 l 682 0 q 638 -7 657 -4 q 604 -10 619 -10 q 528 10 556 -10 q 501 69 501 29 q 503 94 501 81 q 511 136 504 108 q 369 24 449 61 q 201 -14 289 -14 m 364 1014 l 535 1014 l 571 849 l 442 824 l 364 1014 z "},"ű":{"ha":826,"x_min":31,"x_max":794,"o":"m 201 -14 q 31 164 31 -14 q 34 215 31 188 q 44 272 38 242 l 142 728 l 326 728 l 239 313 q 232 275 235 292 q 229 243 229 258 q 313 144 229 144 q 415 177 361 144 q 513 276 468 210 l 608 728 l 794 728 l 685 214 q 683 201 683 207 q 682 189 682 194 q 715 158 682 160 l 682 0 q 638 -7 657 -4 q 604 -10 619 -10 q 528 10 556 -10 q 501 69 501 29 q 503 94 501 81 q 511 136 504 108 q 369 24 449 61 q 201 -14 289 -14 m 368 826 l 275 849 l 372 1014 l 515 1014 l 368 826 m 585 826 l 493 849 l 589 1014 l 732 1014 l 585 826 z "},"ū":{"ha":826,"x_min":31,"x_max":794,"o":"m 201 -14 q 31 164 31 -14 q 34 215 31 188 q 44 272 38 242 l 142 728 l 326 728 l 239 313 q 232 275 235 292 q 229 243 229 258 q 313 144 229 144 q 415 177 361 144 q 513 276 468 210 l 608 728 l 794 728 l 685 214 q 683 201 683 207 q 682 189 682 194 q 715 158 682 160 l 682 0 q 638 -7 657 -4 q 604 -10 619 -10 q 528 10 556 -10 q 501 69 501 29 q 503 94 501 81 q 511 136 504 108 q 369 24 449 61 q 201 -14 289 -14 m 290 878 l 315 993 l 713 993 l 688 878 l 290 878 z "},"_":{"ha":633,"x_min":-49,"x_max":468,"o":"m -49 -168 l -14 0 l 468 0 l 432 -168 l -49 -168 z "}," ":{"ha":328,"x_min":0,"x_max":0,"o":""},"­":{"ha":808,"x_min":53,"x_max":739,"o":"m 53 297 l 89 465 l 739 465 l 704 297 l 53 297 z "},"Ş":{"ha":822,"x_min":-29,"x_max":844,"o":"m 193 -176 q 238 -194 207 -186 q 306 -203 269 -203 q 367 -190 343 -203 q 390 -149 390 -178 q 374 -119 390 -128 q 329 -111 357 -111 q 269 -117 301 -111 q 221 -128 238 -124 l 301 -10 q 119 28 206 -4 q -29 117 33 61 l 90 282 q 123 249 97 269 q 187 209 149 229 q 274 175 225 189 q 378 161 324 161 q 502 194 461 161 q 543 281 543 226 q 527 326 543 307 q 483 361 511 346 q 417 390 456 376 q 333 417 379 403 q 175 497 229 449 q 121 629 121 544 q 156 783 121 715 q 248 897 190 850 q 381 969 306 944 q 539 993 457 993 q 715 960 638 993 q 844 883 792 928 l 726 728 q 700 754 721 738 q 648 787 679 771 q 578 814 617 803 q 497 825 539 825 q 372 789 414 825 q 331 693 331 753 q 342 652 331 669 q 378 622 354 635 q 435 597 401 608 q 513 574 468 586 q 613 539 568 558 q 690 492 658 519 q 740 428 722 465 q 757 339 757 390 q 726 188 757 251 q 642 83 694 125 q 522 17 590 40 q 382 -10 454 -6 l 342 -58 q 363 -54 351 -56 q 385 -53 374 -53 q 452 -72 425 -53 q 479 -131 479 -90 q 429 -231 479 -190 q 278 -272 379 -272 q 199 -264 233 -272 q 142 -244 165 -256 l 193 -176 z "},"ş":{"ha":667,"x_min":-35,"x_max":649,"o":"m 100 -176 q 145 -194 114 -186 q 213 -203 176 -203 q 274 -190 250 -203 q 297 -149 297 -178 q 281 -119 297 -128 q 236 -111 264 -111 q 176 -117 208 -111 q 128 -128 144 -124 l 208 -11 q 69 24 133 -4 q -35 99 6 51 l 58 215 q 279 119 165 119 q 371 144 338 119 q 404 214 404 169 q 374 262 404 244 q 278 299 344 279 q 183 331 222 315 q 117 367 143 347 q 80 410 92 386 q 68 467 68 435 q 94 578 68 528 q 166 665 121 629 q 271 722 211 701 q 397 742 331 742 q 538 718 475 742 q 649 642 600 694 l 550 529 q 460 590 506 571 q 368 610 415 610 q 284 586 319 610 q 249 514 249 563 q 275 469 249 485 q 364 436 301 454 q 536 365 481 404 q 592 256 592 325 q 569 151 592 199 q 507 69 547 104 q 410 13 467 35 q 286 -12 354 -8 l 249 -58 q 269 -54 258 -56 q 292 -53 281 -53 q 359 -72 332 -53 q 386 -131 386 -90 q 336 -231 386 -190 q 185 -272 286 -272 q 106 -264 140 -272 q 49 -244 72 -256 l 100 -176 z "},"Ţ":{"ha":822,"x_min":104,"x_max":921,"o":"m 400 818 l 104 818 l 139 986 l 921 986 l 885 818 l 590 818 l 417 0 l 363 0 l 314 -58 q 335 -54 324 -56 q 357 -53 346 -53 q 424 -72 397 -53 q 451 -131 451 -90 q 401 -231 451 -190 q 250 -272 351 -272 q 172 -264 206 -272 q 114 -244 138 -256 l 165 -176 q 210 -194 179 -186 q 278 -203 242 -203 q 339 -190 315 -203 q 363 -149 363 -178 q 346 -119 363 -128 q 301 -111 329 -111 q 242 -117 274 -111 q 193 -128 210 -124 l 281 0 l 225 0 l 400 818 z "},"ţ":{"ha":518,"x_min":1,"x_max":521,"o":"m 53 -176 q 98 -194 67 -186 q 165 -203 129 -203 q 226 -190 203 -203 q 250 -149 250 -178 q 233 -119 250 -128 q 189 -111 217 -111 q 129 -117 161 -111 q 81 -128 97 -124 l 164 -7 q 92 33 119 3 q 65 115 65 63 q 71 167 65 143 l 160 585 l 69 585 l 100 728 l 189 728 l 239 964 l 425 964 l 375 728 l 521 728 l 490 585 l 346 585 l 269 229 q 267 217 268 222 q 267 207 267 213 q 281 169 267 181 q 319 158 296 158 q 374 167 347 158 q 421 185 401 176 l 426 38 q 340 6 390 19 q 240 -11 290 -8 l 201 -58 q 222 -54 211 -56 q 244 -53 233 -53 q 312 -72 285 -53 q 339 -131 339 -90 q 289 -231 339 -190 q 138 -272 239 -272 q 59 -264 93 -272 q 1 -244 25 -256 l 53 -176 z "},"Ș":{"ha":822,"x_min":-29,"x_max":844,"o":"m 211 -296 l 271 -196 l 215 -196 l 244 -65 l 400 -65 l 374 -196 l 296 -296 l 211 -296 m 338 -11 q 137 22 233 -11 q -29 117 40 56 l 90 282 q 123 249 97 269 q 187 209 149 229 q 274 175 225 189 q 378 161 324 161 q 502 194 461 161 q 543 281 543 226 q 527 326 543 307 q 483 361 511 346 q 417 390 456 376 q 333 417 379 403 q 175 497 229 449 q 121 629 121 544 q 156 783 121 715 q 248 897 190 850 q 381 969 306 944 q 539 993 457 993 q 715 960 638 993 q 844 883 792 928 l 726 728 q 700 754 721 738 q 648 787 679 771 q 578 814 617 803 q 497 825 539 825 q 372 789 414 825 q 331 693 331 753 q 342 652 331 669 q 378 622 354 635 q 435 597 401 608 q 513 574 468 586 q 613 539 568 558 q 690 492 658 519 q 740 428 722 465 q 757 339 757 390 q 721 179 757 246 q 626 70 685 113 q 492 8 568 28 q 338 -11 417 -11 z "},"ș":{"ha":667,"x_min":-35,"x_max":649,"o":"m 119 -296 l 179 -196 l 124 -196 l 153 -65 l 308 -65 l 282 -196 l 204 -296 l 119 -296 m 256 -14 q 90 15 168 -14 q -35 99 13 44 l 58 215 q 279 119 165 119 q 371 144 338 119 q 404 214 404 169 q 374 262 404 244 q 278 299 344 279 q 183 331 222 315 q 117 367 143 347 q 80 410 92 386 q 68 467 68 435 q 94 578 68 528 q 166 665 121 629 q 271 722 211 701 q 397 742 331 742 q 538 718 475 742 q 649 642 600 694 l 550 529 q 460 590 506 571 q 368 610 415 610 q 284 586 319 610 q 249 514 249 563 q 275 469 249 485 q 364 436 301 454 q 536 365 481 404 q 592 256 592 325 q 567 147 592 196 q 497 62 542 97 q 391 6 453 26 q 256 -14 329 -14 z "},"Ț":{"ha":822,"x_min":106,"x_max":922,"o":"m 197 -296 l 257 -196 l 201 -196 l 231 -65 l 386 -65 l 360 -196 l 282 -296 l 197 -296 m 401 818 l 106 818 l 140 986 l 922 986 l 886 818 l 592 818 l 418 0 l 226 0 l 401 818 z "},"ț":{"ha":518,"x_min":65,"x_max":521,"o":"m 92 -296 l 151 -196 l 96 -196 l 125 -65 l 281 -65 l 254 -196 l 176 -296 l 92 -296 m 217 -12 q 108 17 150 -12 q 65 115 65 47 q 71 167 65 143 l 160 585 l 69 585 l 100 728 l 189 728 l 239 964 l 425 964 l 375 728 l 521 728 l 490 585 l 346 585 l 269 229 q 267 217 268 222 q 267 207 267 213 q 281 169 267 181 q 319 158 296 158 q 374 167 347 158 q 421 185 401 176 l 426 38 q 329 3 386 18 q 217 -12 272 -12 z "},"μ":{"ha":842,"x_min":-69,"x_max":803,"o":"m 149 728 l 335 728 l 246 313 q 239 275 242 293 q 236 242 236 257 q 324 144 236 144 q 423 177 369 144 q 521 276 476 210 l 617 728 l 803 728 l 693 214 q 691 201 692 207 q 690 190 690 196 q 731 158 690 160 l 697 0 q 649 -7 669 -4 q 613 -10 628 -10 q 510 69 510 -10 q 511 93 510 76 q 519 136 513 110 q 476 85 503 111 q 416 36 449 58 q 348 0 383 14 q 279 -14 313 -14 q 209 9 233 -14 q 182 68 185 32 l 117 -294 l -69 -294 l 149 728 z "},"∕":{"ha":832,"x_min":-86,"x_max":951,"o":"m -86 78 l 864 997 l 951 908 l 1 -10 l -86 78 z "},"∙":{"ha":311,"x_min":61,"x_max":258,"o":"m 61 336 l 106 546 l 258 546 l 214 336 l 61 336 z "},"ų":{"ha":826,"x_min":31,"x_max":794,"o":"m 201 -14 q 31 164 31 -14 q 34 215 31 188 q 44 272 38 242 l 142 728 l 326 728 l 239 313 q 232 275 235 292 q 229 243 229 258 q 313 144 229 144 q 415 177 361 144 q 513 276 468 210 l 608 728 l 794 728 l 685 214 q 683 201 683 207 q 682 189 682 194 q 715 158 682 160 l 682 0 q 554 -126 554 -74 q 626 -175 554 -171 l 568 -272 q 466 -233 499 -261 q 433 -167 433 -204 q 565 -6 433 -85 q 501 69 501 8 q 503 94 501 81 q 511 136 504 108 q 369 24 449 61 q 201 -14 289 -14 z "},"ů":{"ha":826,"x_min":31,"x_max":794,"o":"m 361 886 q 406 981 361 947 q 518 1014 450 1014 q 600 991 571 1014 q 629 928 629 968 q 585 834 629 868 q 472 800 542 800 q 391 823 421 800 q 361 886 361 846 m 506 957 q 460 940 479 957 q 442 899 442 924 q 453 869 442 881 q 485 857 465 857 q 529 874 508 857 q 550 915 550 890 q 538 946 550 935 q 506 957 525 957 m 201 -14 q 31 164 31 -14 q 34 215 31 188 q 44 272 38 242 l 142 728 l 326 728 l 239 313 q 232 275 235 292 q 229 243 229 258 q 313 144 229 144 q 415 177 361 144 q 513 276 468 210 l 608 728 l 794 728 l 685 214 q 683 201 683 207 q 682 189 682 194 q 715 158 682 160 l 682 0 q 638 -7 657 -4 q 604 -10 619 -10 q 528 10 556 -10 q 501 69 501 29 q 503 94 501 81 q 511 136 504 108 q 369 24 449 61 q 201 -14 289 -14 z "},"ũ":{"ha":826,"x_min":31,"x_max":794,"o":"m 201 -14 q 31 164 31 -14 q 34 215 31 188 q 44 272 38 242 l 142 728 l 326 728 l 239 313 q 232 275 235 292 q 229 243 229 258 q 313 144 229 144 q 415 177 361 144 q 513 276 468 210 l 608 728 l 794 728 l 685 214 q 683 201 683 207 q 682 189 682 194 q 715 158 682 160 l 682 0 q 638 -7 657 -4 q 604 -10 619 -10 q 528 10 556 -10 q 501 69 501 29 q 503 94 501 81 q 511 136 504 108 q 369 24 449 61 q 201 -14 289 -14 m 567 836 q 517 846 538 836 q 478 867 496 856 q 444 889 461 879 q 406 899 428 899 q 369 889 383 899 q 346 867 354 879 q 334 844 338 854 q 331 832 331 833 l 228 832 q 244 874 231 844 q 283 934 258 904 q 344 987 308 964 q 424 1010 379 1010 q 474 999 454 1010 q 510 977 493 989 q 543 955 526 965 q 583 944 560 944 q 623 954 607 944 q 649 976 639 964 q 663 1000 658 989 q 668 1014 668 1011 l 769 1014 q 753 975 767 1004 q 713 915 739 946 q 651 860 688 885 q 567 836 614 836 z "},"v":{"ha":731,"x_min":69,"x_max":754,"o":"m 69 728 l 263 728 l 307 151 q 398 299 357 228 q 473 440 439 369 q 534 580 507 510 q 583 728 561 650 l 754 728 q 603 364 704 546 q 361 0 503 182 l 167 0 l 69 728 z "},"w":{"ha":1097,"x_min":58,"x_max":1138,"o":"m 58 728 l 240 728 l 328 167 q 357 209 340 182 q 390 265 374 236 q 423 322 407 294 q 449 364 439 349 l 371 728 l 533 728 l 569 503 q 592 549 578 518 q 622 615 607 581 q 650 680 638 649 q 667 728 663 711 l 818 728 q 742 542 785 629 q 642 365 700 454 l 678 199 q 776 338 733 274 q 853 463 819 401 q 913 589 886 525 q 967 728 940 653 l 1138 728 q 965 364 1075 546 q 700 0 854 182 l 560 0 l 519 238 q 489 190 510 224 q 445 118 468 156 q 401 47 422 81 q 368 0 379 14 l 199 0 l 58 728 z "},"ẃ":{"ha":1097,"x_min":58,"x_max":1138,"o":"m 646 825 l 525 849 l 631 1014 l 803 1014 l 646 825 m 58 728 l 240 728 l 328 167 q 357 209 340 182 q 390 265 374 236 q 423 322 407 294 q 449 364 439 349 l 371 728 l 533 728 l 569 503 q 592 549 578 518 q 622 615 607 581 q 650 680 638 649 q 667 728 663 711 l 818 728 q 742 542 785 629 q 642 365 700 454 l 678 199 q 776 338 733 274 q 853 463 819 401 q 913 589 886 525 q 967 728 940 653 l 1138 728 q 965 364 1075 546 q 700 0 854 182 l 560 0 l 519 238 q 489 190 510 224 q 445 118 468 156 q 401 47 422 81 q 368 0 379 14 l 199 0 l 58 728 z "},"ŵ":{"ha":1097,"x_min":58,"x_max":1138,"o":"m 422 874 l 593 1014 l 728 1014 l 839 874 l 732 829 l 639 917 l 508 829 l 422 874 m 58 728 l 240 728 l 328 167 q 357 209 340 182 q 390 265 374 236 q 423 322 407 294 q 449 364 439 349 l 371 728 l 533 728 l 569 503 q 592 549 578 518 q 622 615 607 581 q 650 680 638 649 q 667 728 663 711 l 818 728 q 742 542 785 629 q 642 365 700 454 l 678 199 q 776 338 733 274 q 853 463 819 401 q 913 589 886 525 q 967 728 940 653 l 1138 728 q 965 364 1075 546 q 700 0 854 182 l 560 0 l 519 238 q 489 190 510 224 q 445 118 468 156 q 401 47 422 81 q 368 0 379 14 l 199 0 l 58 728 z "},"ẅ":{"ha":1097,"x_min":58,"x_max":1138,"o":"m 410 839 l 446 1004 l 600 1004 l 564 839 l 410 839 m 671 839 l 706 1004 l 858 1004 l 825 839 l 671 839 m 58 728 l 240 728 l 328 167 q 357 209 340 182 q 390 265 374 236 q 423 322 407 294 q 449 364 439 349 l 371 728 l 533 728 l 569 503 q 592 549 578 518 q 622 615 607 581 q 650 680 638 649 q 667 728 663 711 l 818 728 q 742 542 785 629 q 642 365 700 454 l 678 199 q 776 338 733 274 q 853 463 819 401 q 913 589 886 525 q 967 728 940 653 l 1138 728 q 965 364 1075 546 q 700 0 854 182 l 560 0 l 519 238 q 489 190 510 224 q 445 118 468 156 q 401 47 422 81 q 368 0 379 14 l 199 0 l 58 728 z "},"ẁ":{"ha":1097,"x_min":58,"x_max":1138,"o":"m 58 728 l 240 728 l 328 167 q 357 209 340 182 q 390 265 374 236 q 423 322 407 294 q 449 364 439 349 l 371 728 l 533 728 l 569 503 q 592 549 578 518 q 622 615 607 581 q 650 680 638 649 q 667 728 663 711 l 818 728 q 742 542 785 629 q 642 365 700 454 l 678 199 q 776 338 733 274 q 853 463 819 401 q 913 589 886 525 q 967 728 940 653 l 1138 728 q 965 364 1075 546 q 700 0 854 182 l 560 0 l 519 238 q 489 190 510 224 q 445 118 468 156 q 401 47 422 81 q 368 0 379 14 l 199 0 l 58 728 m 503 1014 l 674 1014 l 710 849 l 581 824 l 503 1014 z "},"x":{"ha":710,"x_min":-83,"x_max":767,"o":"m 243 363 l 76 728 l 267 728 l 360 500 l 367 475 l 383 500 l 576 728 l 767 728 l 444 363 l 615 0 l 424 0 l 326 226 l 319 250 l 303 226 l 108 0 l -83 0 l 243 363 z "},"y":{"ha":722,"x_min":-61,"x_max":754,"o":"m -61 -175 q 10 -165 -19 -171 q 63 -148 40 -160 q 106 -117 86 -136 q 146 -69 125 -99 l 186 -15 l 65 728 l 256 728 l 318 161 l 365 239 q 440 372 408 310 q 497 492 472 433 q 540 608 522 550 q 574 728 558 665 l 754 728 q 714 603 735 661 q 661 479 693 544 q 583 334 629 414 q 468 143 536 254 l 357 -36 q 263 -167 308 -114 q 172 -254 218 -221 q 74 -302 125 -287 q -39 -318 22 -317 l -61 -175 z "},"ý":{"ha":722,"x_min":-61,"x_max":754,"o":"m -61 -175 q 10 -165 -19 -171 q 63 -148 40 -160 q 106 -117 86 -136 q 146 -69 125 -99 l 186 -15 l 65 728 l 256 728 l 318 161 l 365 239 q 440 372 408 310 q 497 492 472 433 q 540 608 522 550 q 574 728 558 665 l 754 728 q 714 603 735 661 q 661 479 693 544 q 583 334 629 414 q 468 143 536 254 l 357 -36 q 263 -167 308 -114 q 172 -254 218 -221 q 74 -302 125 -287 q -39 -318 22 -317 l -61 -175 m 458 825 l 338 849 l 443 1014 l 615 1014 l 458 825 z "},"ŷ":{"ha":722,"x_min":-61,"x_max":754,"o":"m -61 -175 q 10 -165 -19 -171 q 63 -148 40 -160 q 106 -117 86 -136 q 146 -69 125 -99 l 186 -15 l 65 728 l 256 728 l 318 161 l 365 239 q 440 372 408 310 q 497 492 472 433 q 540 608 522 550 q 574 728 558 665 l 754 728 q 714 603 735 661 q 661 479 693 544 q 583 334 629 414 q 468 143 536 254 l 357 -36 q 263 -167 308 -114 q 172 -254 218 -221 q 74 -302 125 -287 q -39 -318 22 -317 l -61 -175 m 242 874 l 413 1014 l 547 1014 l 658 874 l 551 829 l 458 917 l 328 829 l 242 874 z "},"ÿ":{"ha":722,"x_min":-61,"x_max":754,"o":"m -61 -175 q 10 -165 -19 -171 q 63 -148 40 -160 q 106 -117 86 -136 q 146 -69 125 -99 l 186 -15 l 65 728 l 256 728 l 318 161 l 365 239 q 440 372 408 310 q 497 492 472 433 q 540 608 522 550 q 574 728 558 665 l 754 728 q 714 603 735 661 q 661 479 693 544 q 583 334 629 414 q 468 143 536 254 l 357 -36 q 263 -167 308 -114 q 172 -254 218 -221 q 74 -302 125 -287 q -39 -318 22 -317 l -61 -175 m 228 839 l 264 1004 l 418 1004 l 382 839 l 228 839 m 489 839 l 524 1004 l 676 1004 l 643 839 l 489 839 z "},"¥":{"ha":953,"x_min":117,"x_max":1024,"o":"m 704 558 l 800 558 l 775 438 l 615 438 l 547 344 l 539 303 l 746 303 l 722 182 l 513 182 l 475 0 l 285 0 l 322 182 l 117 182 l 143 303 l 349 303 l 358 347 l 331 438 l 172 438 l 197 558 l 294 558 l 158 986 l 365 986 l 488 511 l 815 986 l 1024 986 l 704 558 z "},"ỳ":{"ha":722,"x_min":-61,"x_max":754,"o":"m -61 -175 q 10 -165 -19 -171 q 63 -148 40 -160 q 106 -117 86 -136 q 146 -69 125 -99 l 186 -15 l 65 728 l 256 728 l 318 161 l 365 239 q 440 372 408 310 q 497 492 472 433 q 540 608 522 550 q 574 728 558 665 l 754 728 q 714 603 735 661 q 661 479 693 544 q 583 334 629 414 q 468 143 536 254 l 357 -36 q 263 -167 308 -114 q 172 -254 218 -221 q 74 -302 125 -287 q -39 -318 22 -317 l -61 -175 m 311 1014 l 482 1014 l 518 849 l 389 824 l 311 1014 z "},"ỹ":{"ha":722,"x_min":-61,"x_max":754,"o":"m -61 -175 q 10 -165 -19 -171 q 63 -148 40 -160 q 106 -117 86 -136 q 146 -69 125 -99 l 186 -15 l 65 728 l 256 728 l 318 161 l 365 239 q 440 372 408 310 q 497 492 472 433 q 540 608 522 550 q 574 728 558 665 l 754 728 q 714 603 735 661 q 661 479 693 544 q 583 334 629 414 q 468 143 536 254 l 357 -36 q 263 -167 308 -114 q 172 -254 218 -221 q 74 -302 125 -287 q -39 -318 22 -317 l -61 -175 m 515 836 q 465 846 486 836 q 427 867 444 856 q 393 889 410 879 q 354 899 376 899 q 317 889 332 899 q 294 867 303 879 q 283 844 286 854 q 279 832 279 833 l 176 832 q 193 874 179 844 q 232 934 207 904 q 292 987 257 964 q 372 1010 328 1010 q 422 999 403 1010 q 458 977 442 989 q 492 955 475 965 q 532 944 508 944 q 572 954 556 944 q 597 976 588 964 q 612 1000 607 989 q 617 1014 617 1011 l 718 1014 q 701 975 715 1004 q 662 915 688 946 q 599 860 636 885 q 515 836 563 836 z "},"z":{"ha":654,"x_min":-53,"x_max":674,"o":"m -29 114 l 446 597 l 90 597 l 118 728 l 674 728 l 649 614 l 175 131 l 553 131 l 525 0 l -53 0 l -29 114 z "},"ź":{"ha":654,"x_min":-53,"x_max":674,"o":"m 422 825 l 301 849 l 407 1014 l 579 1014 l 422 825 m -29 114 l 446 597 l 90 597 l 118 728 l 674 728 l 649 614 l 175 131 l 553 131 l 525 0 l -53 0 l -29 114 z "},"ž":{"ha":654,"x_min":-53,"x_max":674,"o":"m 213 969 l 319 1014 l 413 926 l 543 1014 l 631 969 l 458 829 l 324 829 l 213 969 m -29 114 l 446 597 l 90 597 l 118 728 l 674 728 l 649 614 l 175 131 l 553 131 l 525 0 l -53 0 l -29 114 z "},"ż":{"ha":654,"x_min":-53,"x_max":674,"o":"m -29 114 l 446 597 l 90 597 l 118 728 l 674 728 l 649 614 l 175 131 l 553 131 l 525 0 l -53 0 l -29 114 m 317 839 l 354 1014 l 521 1014 l 485 839 l 317 839 z "},"₀":{"ha":654,"x_min":-15,"x_max":563,"o":"m 213 -125 q 110 -103 153 -125 q 39 -46 67 -81 q -2 33 11 -11 q -15 121 -15 76 q 13 242 -15 181 q 88 354 40 304 q 201 436 136 404 q 339 468 265 468 q 440 445 397 468 q 509 387 482 422 q 549 308 536 351 q 563 221 563 264 q 535 100 563 161 q 461 -11 508 39 q 350 -93 414 -61 q 213 -125 286 -125 m 100 135 q 108 81 100 107 q 132 33 115 54 q 174 -2 149 11 q 235 -15 199 -15 q 325 7 285 -15 q 393 63 365 29 q 435 135 421 96 q 450 207 450 174 q 442 262 450 235 q 417 310 433 289 q 374 344 400 331 q 314 357 349 357 q 224 335 264 357 q 156 279 183 313 q 115 207 129 246 q 100 135 100 168 z "},"⁰":{"ha":654,"x_min":126,"x_max":704,"o":"m 353 539 q 251 561 293 539 q 181 618 208 583 q 140 697 153 653 q 126 783 126 740 q 153 905 126 843 q 228 1017 181 967 q 341 1100 276 1068 q 479 1132 406 1132 q 581 1109 539 1132 q 651 1051 624 1086 q 691 971 678 1015 q 704 883 704 926 q 677 763 704 824 q 603 651 650 701 q 492 570 556 601 q 353 539 428 539 m 242 799 q 249 744 242 771 q 274 696 257 717 q 315 662 290 675 q 376 649 340 649 q 467 671 426 649 q 534 726 507 693 q 576 797 561 758 q 590 869 590 836 q 582 924 590 897 q 557 973 574 951 q 515 1008 540 994 q 456 1021 490 1021 q 365 999 406 1021 q 298 943 325 976 q 256 871 271 910 q 242 799 242 832 z "}," ":{"ha":1228,"x_min":0,"x_max":0,"o":""}," ":{"ha":797,"x_min":0,"x_max":0,"o":""},"̏":{"ha":488,"x_min":65,"x_max":453,"o":"m 283 1014 l 425 1014 l 453 849 l 351 824 l 283 1014 m 65 1014 l 210 1014 l 235 849 l 135 824 l 65 1014 z "},"̑":{"ha":439,"x_min":60,"x_max":418,"o":"m 60 828 q 88 902 68 868 q 138 961 108 936 q 202 1000 167 986 q 275 1014 238 1014 q 381 972 343 1014 q 418 869 418 931 q 414 828 418 849 l 315 828 q 317 849 317 839 q 318 867 318 858 q 260 931 318 931 q 158 828 179 931 l 60 828 l 60 828 z "},"ˉ":{"ha":557,"x_min":94,"x_max":517,"o":"m 119 993 l 517 993 l 492 878 l 94 878 l 119 993 z "},"¤":{"ha":800,"x_min":90,"x_max":729,"o":"m 264 688 q 331 718 294 707 q 411 729 367 729 q 490 719 454 729 q 557 689 526 708 l 653 788 l 729 711 l 635 618 q 667 548 656 586 q 679 468 679 510 q 667 390 679 428 q 633 319 656 351 l 729 225 l 660 156 l 560 250 q 492 220 529 231 q 411 210 456 210 q 260 251 325 210 l 158 156 l 90 225 l 186 321 q 143 468 143 388 q 185 615 143 553 l 90 711 l 165 788 l 264 688 m 282 468 q 319 366 282 406 q 411 326 356 326 q 503 367 467 326 q 540 469 540 407 q 503 572 540 532 q 411 611 467 611 q 319 571 356 611 q 282 468 282 531 z "},"₡":{"ha":761,"x_min":25,"x_max":756,"o":"m 192 11 q 67 122 108 47 q 25 292 25 197 q 48 429 25 363 q 113 553 71 496 q 213 654 154 611 q 342 719 271 697 l 379 896 l 465 896 l 431 738 q 456 740 443 739 q 481 740 468 740 q 495 740 488 740 q 510 739 503 739 l 544 896 l 631 896 l 593 724 q 699 659 658 703 q 756 554 739 615 l 563 499 q 519 560 550 539 q 444 582 489 582 q 360 562 401 582 q 288 506 319 542 q 238 420 257 469 q 218 314 218 371 q 255 192 218 239 q 353 144 292 144 q 441 169 397 144 q 508 231 485 194 l 678 175 q 576 69 638 114 q 439 1 515 24 l 404 -167 l 318 -167 l 351 -12 q 336 -13 344 -12 q 321 -14 328 -14 q 272 -10 294 -14 l 239 -167 l 154 -167 l 192 11 z "},"₩":{"ha":1521,"x_min":28,"x_max":1578,"o":"m 53 411 l 281 411 l 260 533 l 79 533 l 103 647 l 240 647 l 183 986 l 389 986 l 431 647 l 644 647 l 599 983 l 776 983 l 810 657 l 982 983 l 1158 983 l 968 647 l 1183 647 l 1369 986 l 1578 986 l 1375 647 l 1515 647 l 1492 533 l 1307 533 l 1235 411 l 1467 411 l 1442 296 l 1165 296 l 989 0 l 828 0 l 758 414 l 511 0 l 350 0 l 300 296 l 28 296 l 53 411 m 460 411 l 592 411 l 660 533 l 444 533 l 460 411 m 922 411 l 1054 411 l 1121 533 l 906 533 l 922 411 m 483 219 l 526 296 l 474 296 l 483 219 m 950 219 l 992 296 l 939 296 l 950 219 z "},"₣":{"ha":813,"x_min":-12,"x_max":901,"o":"m 60 0 l 90 144 l -12 144 l 14 271 l 117 271 l 269 986 l 901 986 l 865 818 l 425 818 l 371 564 l 738 564 l 703 408 l 338 408 l 308 271 l 454 271 l 429 144 l 281 144 l 250 0 l 60 0 z "},"₦":{"ha":1143,"x_min":26,"x_max":1143,"o":"m 1119 558 l 1008 558 l 976 407 l 1088 407 l 1064 292 l 951 292 l 890 0 l 735 0 l 581 292 l 329 292 l 268 0 l 76 0 l 138 292 l 26 292 l 50 407 l 163 407 l 194 558 l 83 558 l 107 672 l 219 672 l 286 986 l 435 986 l 597 672 l 842 672 l 910 985 l 1100 985 l 1033 672 l 1143 672 l 1119 558 m 354 407 l 519 407 l 440 558 l 386 558 l 354 407 m 735 407 l 785 407 l 818 558 l 657 558 l 735 407 z "},"₤":{"ha":714,"x_min":15,"x_max":756,"o":"m 100 597 l 188 597 q 178 649 182 624 q 175 700 175 674 q 203 815 175 761 q 277 908 231 868 q 384 970 324 947 q 508 993 444 993 q 655 954 590 993 q 756 847 719 915 l 635 733 q 567 812 611 782 q 475 842 522 842 q 423 831 447 842 q 380 801 399 819 q 350 756 361 782 q 339 699 339 729 q 344 650 339 675 q 356 597 349 625 l 583 597 l 560 482 l 378 482 q 378 465 378 474 q 379 447 379 456 q 379 433 379 440 q 378 419 379 426 l 546 419 l 522 304 l 346 304 q 294 229 326 268 q 210 144 261 190 q 265 158 240 154 q 314 161 290 161 q 401 149 361 161 q 486 138 442 138 q 533 143 510 138 q 589 160 557 149 l 604 21 q 525 -10 568 1 q 443 -21 482 -21 q 383 -15 413 -21 q 325 -1 354 -8 q 266 13 296 7 q 204 19 236 19 q 121 11 169 19 q 28 -11 72 3 l 15 121 q 183 304 136 213 l 38 304 l 61 419 l 215 419 l 215 429 q 211 482 215 454 l 75 482 l 100 597 z "},"₹":{"ha":718,"x_min":88,"x_max":785,"o":"m 717 663 l 588 663 q 558 569 579 614 q 506 487 538 525 q 433 419 474 449 q 344 371 392 389 l 499 0 l 282 0 l 88 486 l 242 486 q 291 500 267 486 q 336 538 315 514 q 372 594 357 563 q 393 663 388 626 l 107 663 l 131 776 l 381 776 q 351 816 369 801 q 310 831 332 831 l 142 831 l 175 986 l 785 986 l 761 871 l 550 871 q 586 776 576 825 l 740 776 l 717 663 z "},"℠":{"ha":1060,"x_min":101,"x_max":1093,"o":"m 914 986 l 1093 986 l 1006 571 l 886 571 l 940 831 l 815 629 l 718 629 l 678 831 l 622 571 l 503 571 l 590 986 l 769 986 l 796 768 l 914 986 m 453 858 q 400 888 426 876 q 342 900 374 900 q 281 865 281 900 q 295 845 281 854 q 350 825 310 836 q 449 785 417 810 q 481 717 481 761 q 465 651 481 679 q 424 604 450 624 q 361 575 397 585 q 282 565 325 565 q 182 580 231 565 q 101 619 133 594 l 167 708 q 228 674 193 689 q 301 660 263 660 q 363 690 363 660 q 346 713 363 704 q 286 733 329 722 q 194 773 224 750 q 165 836 165 796 q 181 900 165 871 q 223 950 196 929 q 285 982 250 971 q 361 993 321 993 q 442 981 404 993 q 515 947 481 969 l 453 858 z "},"Ə":{"ha":997,"x_min":31,"x_max":978,"o":"m 400 -7 q 241 26 310 -7 q 125 116 172 60 q 54 244 78 172 q 31 393 31 315 q 42 492 31 451 q 64 557 53 533 l 769 557 q 772 578 771 568 q 772 600 772 589 q 717 763 772 704 q 575 822 661 822 q 502 811 539 822 q 432 781 465 800 q 372 733 399 761 q 328 671 344 704 l 147 736 q 238 840 186 793 q 349 922 289 888 q 477 974 410 956 q 615 993 544 993 q 770 960 703 993 q 884 871 838 926 q 954 742 931 815 q 978 590 978 669 q 933 372 978 479 q 810 181 888 265 q 626 44 732 96 q 400 -7 521 -7 m 439 161 q 535 179 489 161 q 620 230 581 197 q 690 308 660 263 q 736 407 719 353 l 231 407 q 225 354 225 383 q 240 277 225 313 q 283 216 256 242 q 351 176 311 190 q 439 161 390 161 z "}}}
